<svg id="Layer_1" data-name="Layer 1" xmlns="http://www.w3.org/2000/svg" viewBox="0 0 1309.8 239.6"><defs><style>.cls-1{fill:#56afff;}.cls-2{fill:#fdfdfd;}</style></defs><polygon class="cls-1" points="445.05 231.15 295.97 2.23 235.1 89.57 252.3 113.83 294.2 53.4 409.76 231.15 445.05 231.15"/><polygon class="cls-1" points="310.96 231.15 161.44 2.23 0 231.15 172.46 231.15 217.45 163.67 199.81 140.29 152.61 206.89 54.25 206.45 160.11 53.4 277.88 231.15 310.96 231.15"/><path class="cls-2" d="M-55-385.38a4.25,4.25,0,0,1,3.92,1.92A8.34,8.34,0,0,1-49.92-379v120.47a65.67,65.67,0,0,1-.55,8.39,18.84,18.84,0,0,1-2.65,7.58,15.17,15.17,0,0,1-6.29,5.47Q-63.62-235-71.1-235q-4.92,0-8.76-.18a21.49,21.49,0,0,1-7-1.46,17.67,17.67,0,0,1-5.94-4,34.66,34.66,0,0,1-5.47-7.66L-156.7-351.25h-.91v109.88a8.29,8.29,0,0,1-1.19,4.47,4.25,4.25,0,0,1-3.92,1.92H-179a4.47,4.47,0,0,1-4-1.92,7.85,7.85,0,0,1-1.28-4.47V-361.83a77.94,77.94,0,0,1,.46-8.58,21.66,21.66,0,0,1,2.1-7.48,13.89,13.89,0,0,1,4.74-5.39,14.87,14.87,0,0,1,8.4-2.1h13.69a30.85,30.85,0,0,1,7.39.73,12.26,12.26,0,0,1,4.74,2.29,16.93,16.93,0,0,1,3.56,4.1c1.1,1.71,2.31,3.78,3.65,6.21L-77.3-269.11h.91V-379a8.87,8.87,0,0,1,1.1-4.47c.73-1.28,2.06-1.92,4-1.92Z" transform="translate(632.73 385.38)"/><path class="cls-2" d="M52.29-385.38q14.24,0,23.09,4.29a33.4,33.4,0,0,1,13.78,11.87,45.82,45.82,0,0,1,6.57,18.07,149.06,149.06,0,0,1,1.64,22.9v36.14a149.2,149.2,0,0,1-1.64,22.91A47.5,47.5,0,0,1,89.25-251a32.46,32.46,0,0,1-13.69,11.95q-8.86,4.29-23.27,4.29H7.75q-14.23,0-23.09-4.38a33.13,33.13,0,0,1-13.69-12,47.56,47.56,0,0,1-6.48-18.16,148,148,0,0,1-1.64-22.73v-36.14A147.87,147.87,0,0,1-35.51-351a46.6,46.6,0,0,1,6.57-18.16,33.29,33.29,0,0,1,13.69-12q8.76-4.28,23-4.29Zm17.88,54q0-5.65-.36-10.59a24.36,24.36,0,0,0-2.1-8.58,12.7,12.7,0,0,0-5.57-5.74q-3.82-2.1-10.77-2.1H8.66q-6.75,0-10.58,2.1a13.17,13.17,0,0,0-5.66,5.74,22.75,22.75,0,0,0-2.19,8.58q-.37,4.94-.37,10.59v42.53q0,5.65.37,10.58a21.9,21.9,0,0,0,2.19,8.49,13.32,13.32,0,0,0,5.66,5.66Q1.9-262,8.66-262H51.37q6.95,0,10.77-2.1a12.83,12.83,0,0,0,5.57-5.66,23.42,23.42,0,0,0,2.1-8.49q.36-4.92.36-10.58Z" transform="translate(632.73 385.38)"/><path class="cls-2" d="M206.15-297.58q1.09,1.63,3.83,6.29c1.83,3.11,4,6.7,6.39,10.77s5,8.34,7.57,12.78,5.05,8.64,7.3,12.59,4.08,7.3,5.48,10,2.1,4.47,2.1,5.2a6.48,6.48,0,0,1-.91,3.47,3.56,3.56,0,0,1-3.29,1.46H214.54a6.3,6.3,0,0,1-3.46-.82,7.53,7.53,0,0,1-2.38-2.83l-33-58.41H137.16v55.67A8.29,8.29,0,0,1,136-236.9,4.26,4.26,0,0,1,132-235h-16.6a4.48,4.48,0,0,1-4-1.92,7.85,7.85,0,0,1-1.28-4.47v-76.47a7.84,7.84,0,0,1,1.19-4.38q1.19-1.83,4.11-1.83h79.39a13.76,13.76,0,0,0,6.66-1.37,9.25,9.25,0,0,0,3.75-3.74,16.88,16.88,0,0,0,1.73-5.48,45.62,45.62,0,0,0,.45-6.57,45.82,45.82,0,0,0-.45-6.57,17,17,0,0,0-1.73-5.47,9.25,9.25,0,0,0-3.75-3.74,13.65,13.65,0,0,0-6.66-1.37H115.44q-2.93,0-4.11-1.83a7.84,7.84,0,0,1-1.19-4.38V-379a8.34,8.34,0,0,1,1.19-4.47,4.44,4.44,0,0,1,4.11-1.92h84.14q10.39,0,17.15,3.47a27.47,27.47,0,0,1,10.68,9.49A40.3,40.3,0,0,1,233-358.36a85.85,85.85,0,0,1,1.64,17.15,95,95,0,0,1-1.19,15.06,41.91,41.91,0,0,1-4.38,13.33,30.45,30.45,0,0,1-8.67,10Q214.9-298.68,206.15-297.58Z" transform="translate(632.73 385.38)"/><path class="cls-2" d="M326.06-385.38q14.79,0,24.37,4.66a37.1,37.1,0,0,1,15.06,12.87,51.7,51.7,0,0,1,7.57,19.34,130.21,130.21,0,0,1,2.1,24.1v28.47a131.08,131.08,0,0,1-2.1,24.27,50.85,50.85,0,0,1-7.57,19.26,37.44,37.44,0,0,1-15.06,12.78Q340.85-235,326.06-235H263.82a16,16,0,0,1-5.38-1,17.35,17.35,0,0,1-5.11-2.83,17.21,17.21,0,0,1-3.83-4.29,9.87,9.87,0,0,1-1.56-5.39V-373a10.91,10.91,0,0,1,4.29-9,15.91,15.91,0,0,1,10.13-3.38ZM325.52-262q7.85,0,12.32-2.38a15.84,15.84,0,0,0,6.75-6.66,27.61,27.61,0,0,0,2.92-9.94,108.33,108.33,0,0,0,.64-12.23v-33.95a108.33,108.33,0,0,0-.64-12.23,26.89,26.89,0,0,0-2.92-9.86,16.53,16.53,0,0,0-6.75-6.66q-4.48-2.46-12.32-2.46H275V-262Z" transform="translate(632.73 385.38)"/><path class="cls-2" d="M409.84-385.38a7.29,7.29,0,0,1,3.1,1.1q2,1.09,2,5.29v137.8c0,2.81-.67,4.57-2,5.3a7.24,7.24,0,0,1-3.1,1.09H393.05a7.27,7.27,0,0,1-3.11-1.09c-1.34-.73-2-2.49-2-5.3V-379c0-2.8.66-4.56,2-5.29a7.32,7.32,0,0,1,3.11-1.1Z" transform="translate(632.73 385.38)"/><path class="cls-2" d="M455.83-330.26a5.26,5.26,0,0,0,1.55,4,5,5,0,0,0,3.56,1.46H515.7q8.38,0,14,3.19a24.69,24.69,0,0,1,8.85,8.49A36.51,36.51,0,0,1,543.17-301a71.21,71.21,0,0,1,1.37,14v16.06A59.59,59.59,0,0,1,543-257.25a33,33,0,0,1-5,11.5,25.11,25.11,0,0,1-9,7.85,28.93,28.93,0,0,1-13.6,2.92H433c-1.95,0-3.32-.61-4.11-1.82a7.9,7.9,0,0,1-1.19-4.39v-14.6a7.88,7.88,0,0,1,1.19-4.38c.79-1.21,2.16-1.82,4.11-1.82H511q4.38,0,5.48-3.2a20.91,20.91,0,0,0,1.09-6.84v-15.7a21.2,21.2,0,0,0-1.09-6.75c-.73-2.19-2.5-3.29-5.29-3.29H456.38q-15.15,0-21.81-8.58t-6.66-23.91V-353.8a50.49,50.49,0,0,1,1.27-11.13,27.72,27.72,0,0,1,4.48-10.13,24.4,24.4,0,0,1,8.76-7.4q5.56-2.91,14.32-2.92h78.67a4.31,4.31,0,0,1,3.92,1.83,7.88,7.88,0,0,1,1.19,4.38v14.6a7.84,7.84,0,0,1-1.19,4.38,4.31,4.31,0,0,1-3.92,1.83H461.12a5.92,5.92,0,0,0-3.55,1.27,3.93,3.93,0,0,0-1.74,3.29Z" transform="translate(632.73 385.38)"/><path class="cls-2" d="M676.31-243a6.6,6.6,0,0,1,.73,4.2q-.18,3.83-4.19,3.83H653.13c-1.82,0-3.1-.36-3.83-1.09a9.07,9.07,0,0,1-2-2.56l-28.47-49.83q-2.93-5.48-6-7.12-2.92-1.82-9.86-1.82H584.51v56q0,4.2-2,5.3a7.24,7.24,0,0,1-3.1,1.09H562.6a7.83,7.83,0,0,1-3.19-1.09q-2.1-1.1-2.1-5.3V-379q0-4.38,2.1-5.38a8.38,8.38,0,0,1,3.19-1h16.8a7.74,7.74,0,0,1,3.1,1q2,1,2,5.38v54.58H601.3q6.39,0,9.58-1.56t6.12-7l27.56-48.74a9.26,9.26,0,0,1,.82-1.36,5.31,5.31,0,0,1,1.18-1.19c.73-.73,2.07-1.1,4-1.1h18.07c2.19,0,3.59.86,4.2,2.56a5.51,5.51,0,0,1-.55,4.93L642.18-325l-4.92,8.21a35.23,35.23,0,0,1-3.47,4.75,73.41,73.41,0,0,1,5.38,6.11,67.3,67.3,0,0,1,5.57,8.31Z" transform="translate(632.73 385.38)"/><path class="cls-2" d="M435.64-145.78a41.43,41.43,0,0,1-10.4-1.23,29.9,29.9,0,0,1-8.63-3.68,30.68,30.68,0,0,1-7.08-6.22l5.73-7.21a32.06,32.06,0,0,0,9.7,8,24.6,24.6,0,0,0,11.09,2.41,25,25,0,0,0,7.24-1,14.62,14.62,0,0,0,5.57-2.95,6.13,6.13,0,0,0,2.17-4.79,5,5,0,0,0-1.06-3.19,8.61,8.61,0,0,0-2.87-2.21,22,22,0,0,0-4.05-1.52q-2.25-.6-4.59-1c-1.55-.27-3-.52-4.38-.74a52.93,52.93,0,0,1-9.12-2.08,24.83,24.83,0,0,1-6.84-3.4,14.13,14.13,0,0,1-4.26-4.91,14.14,14.14,0,0,1-1.47-6.55,13.79,13.79,0,0,1,1.76-6.88,15.83,15.83,0,0,1,5-5.28,24.49,24.49,0,0,1,7.45-3.31,35.24,35.24,0,0,1,9.25-1.15,37.65,37.65,0,0,1,9.62,1.15,25.75,25.75,0,0,1,7.78,3.39,21.4,21.4,0,0,1,5.69,5.53l-6.06,6.39a20.45,20.45,0,0,0-4.71-4.67,20.43,20.43,0,0,0-5.85-2.87,22.88,22.88,0,0,0-6.71-1,23.75,23.75,0,0,0-7.12,1,12.1,12.1,0,0,0-4.92,2.75,5.68,5.68,0,0,0-1.8,4.21,6,6,0,0,0,1.07,3.56,8.65,8.65,0,0,0,3,2.58,21.28,21.28,0,0,0,4.83,1.8,57.08,57.08,0,0,0,6.55,1.23,91.29,91.29,0,0,1,9,1.84,32.61,32.61,0,0,1,7.41,2.87,14.08,14.08,0,0,1,5,4.42,11.33,11.33,0,0,1,1.8,6.51,15.79,15.79,0,0,1-3,9.66,19.4,19.4,0,0,1-8.59,6.34A34.84,34.84,0,0,1,435.64-145.78Z" transform="translate(632.73 385.38)"/><path class="cls-2" d="M509.07-145.78A35.64,35.64,0,0,1,496.18-148a32,32,0,0,1-10.24-6.26,27.8,27.8,0,0,1-6.75-9.38,28.29,28.29,0,0,1-2.37-11.58,28.29,28.29,0,0,1,2.37-11.58,27.89,27.89,0,0,1,6.75-9.38,32,32,0,0,1,10.24-6.26,35.64,35.64,0,0,1,12.89-2.25A36.29,36.29,0,0,1,522-202.51a31.06,31.06,0,0,1,10.24,6.26,28.9,28.9,0,0,1,6.79,9.42,27.84,27.84,0,0,1,2.42,11.58A27.84,27.84,0,0,1,539-163.67a28.79,28.79,0,0,1-6.79,9.42A31.06,31.06,0,0,1,522-148,36.07,36.07,0,0,1,509.07-145.78Zm0-8.59a26.35,26.35,0,0,0,9.37-1.6,23.24,23.24,0,0,0,7.37-4.42,19.59,19.59,0,0,0,4.87-6.63,19.7,19.7,0,0,0,1.72-8.23,19.7,19.7,0,0,0-1.72-8.23,19.79,19.79,0,0,0-4.87-6.63,23.42,23.42,0,0,0-7.37-4.42,26.35,26.35,0,0,0-9.37-1.59,26.45,26.45,0,0,0-9.33,1.59,23.75,23.75,0,0,0-7.41,4.38,19,19,0,0,0-4.83,6.59,20.37,20.37,0,0,0-1.68,8.31A20.42,20.42,0,0,0,487.5-167a18.67,18.67,0,0,0,4.83,6.63,23.38,23.38,0,0,0,7.41,4.38A26.45,26.45,0,0,0,509.07-154.37Z" transform="translate(632.73 385.38)"/><path class="cls-2" d="M562-146.6v-57.3h8.84v57.3Zm3.28-23.9V-179h36.51v8.51Zm.73-24.89v-8.51h39.46v8.51Z" transform="translate(632.73 385.38)"/><path class="cls-2" d="M641.36-146.6v-48.79H621.71v-8.51h48.71v8.51H650.2v48.79Z" transform="translate(632.73 385.38)"/></svg>