<svg width="300" height="196" viewBox="0 0 300 196" fill="none" xmlns="http://www.w3.org/2000/svg">
<rect width="300" height="196" rx="98" fill="#E0FE22"/>
<path d="M42.6222 81H40.9602L45.767 67.9091H47.4034L52.2102 81H50.5483L46.6364 69.9801H46.5341L42.6222 81ZM43.2358 75.8864H49.9347V77.2926H43.2358V75.8864ZM64.6218 73.3807L63.2667 73.7642C63.1814 73.5384 63.0557 73.3189 62.8895 73.1058C62.7276 72.8885 62.506 72.7095 62.2248 72.5689C61.9435 72.4283 61.5834 72.358 61.1445 72.358C60.5437 72.358 60.043 72.4964 59.6424 72.7734C59.2461 73.0462 59.0479 73.3935 59.0479 73.8153C59.0479 74.1903 59.1843 74.4865 59.457 74.7038C59.7297 74.9212 60.1559 75.1023 60.7354 75.2472L62.1928 75.6051C63.0707 75.8182 63.7248 76.1442 64.1552 76.5831C64.5856 77.0178 64.8008 77.5781 64.8008 78.2642C64.8008 78.8267 64.6388 79.3295 64.315 79.7727C63.9954 80.2159 63.5479 80.5653 62.9726 80.821C62.3974 81.0767 61.7283 81.2045 60.9655 81.2045C59.9641 81.2045 59.1353 80.9872 58.479 80.5526C57.8228 80.1179 57.4073 79.483 57.2326 78.6477L58.6644 78.2898C58.8008 78.8182 59.0586 79.2145 59.4378 79.4787C59.8214 79.7429 60.3221 79.875 60.94 79.875C61.6431 79.875 62.2013 79.7259 62.6147 79.4276C63.0323 79.125 63.2411 78.7628 63.2411 78.3409C63.2411 78 63.1218 77.7145 62.8832 77.4844C62.6445 77.25 62.278 77.0753 61.7837 76.9602L60.1474 76.5767C59.2482 76.3636 58.5877 76.0334 58.1658 75.5859C57.7482 75.1342 57.5394 74.5696 57.5394 73.892C57.5394 73.3381 57.6949 72.848 58.006 72.4219C58.3214 71.9957 58.7496 71.6612 59.2908 71.4183C59.8363 71.1754 60.4542 71.054 61.1445 71.054C62.1161 71.054 62.8789 71.267 63.4329 71.6932C63.9911 72.1193 64.3874 72.6818 64.6218 73.3807ZM70.6214 71.1818V72.4602H65.5334V71.1818H70.6214ZM67.0163 68.8295H68.5248V78.1875C68.5248 78.6136 68.5866 78.9332 68.7102 79.1463C68.838 79.3551 69 79.4957 69.196 79.5682C69.3963 79.6364 69.6072 79.6705 69.8288 79.6705C69.995 79.6705 70.1314 79.6619 70.2379 79.6449C70.3444 79.6236 70.4297 79.6065 70.4936 79.5938L70.8004 80.9489C70.6981 80.9872 70.5554 81.0256 70.3721 81.0639C70.1889 81.1065 69.9567 81.1278 69.6754 81.1278C69.2493 81.1278 68.8317 81.0362 68.4226 80.853C68.0177 80.6697 67.6811 80.3906 67.4126 80.0156C67.1484 79.6406 67.0163 79.1676 67.0163 78.5966V68.8295ZM72.1706 81V71.1818H73.628V72.6648H73.7303C73.9092 72.179 74.2331 71.7848 74.7019 71.4822C75.1706 71.1797 75.699 71.0284 76.2871 71.0284C76.3979 71.0284 76.5364 71.0305 76.7026 71.0348C76.8688 71.0391 76.9945 71.0455 77.0797 71.054V72.5881C77.0286 72.5753 76.9114 72.5561 76.7281 72.5305C76.5492 72.5007 76.3595 72.4858 76.1592 72.4858C75.682 72.4858 75.2558 72.5859 74.8808 72.7862C74.5101 72.9822 74.2161 73.255 73.9987 73.6044C73.7857 73.9496 73.6791 74.3437 73.6791 74.7869V81H72.1706ZM81.8377 81.2045C80.9513 81.2045 80.1736 80.9936 79.5046 80.5717C78.8398 80.1499 78.3199 79.5597 77.9449 78.8011C77.5742 78.0426 77.3888 77.1562 77.3888 76.142C77.3888 75.1193 77.5742 74.2266 77.9449 73.4638C78.3199 72.701 78.8398 72.1087 79.5046 71.6868C80.1736 71.2649 80.9513 71.054 81.8377 71.054C82.724 71.054 83.4996 71.2649 84.1644 71.6868C84.8334 72.1087 85.3533 72.701 85.724 73.4638C86.099 74.2266 86.2865 75.1193 86.2865 76.142C86.2865 77.1562 86.099 78.0426 85.724 78.8011C85.3533 79.5597 84.8334 80.1499 84.1644 80.5717C83.4996 80.9936 82.724 81.2045 81.8377 81.2045ZM81.8377 79.8494C82.511 79.8494 83.065 79.6768 83.4996 79.3317C83.9343 78.9865 84.256 78.5327 84.4648 77.9702C84.6736 77.4077 84.778 76.7983 84.778 76.142C84.778 75.4858 84.6736 74.8743 84.4648 74.3075C84.256 73.7408 83.9343 73.2827 83.4996 72.9332C83.065 72.5838 82.511 72.4091 81.8377 72.4091C81.1644 72.4091 80.6104 72.5838 80.1757 72.9332C79.7411 73.2827 79.4194 73.7408 79.2105 74.3075C79.0017 74.8743 78.8973 75.4858 78.8973 76.142C78.8973 76.7983 79.0017 77.4077 79.2105 77.9702C79.4194 78.5327 79.7411 78.9865 80.1757 79.3317C80.6104 79.6768 81.1644 79.8494 81.8377 79.8494ZM89.3778 75.0938V81H87.8693V71.1818H89.3267V72.7159H89.4545C89.6846 72.2173 90.034 71.8168 90.5028 71.5142C90.9715 71.2074 91.5767 71.054 92.3181 71.054C92.9829 71.054 93.5646 71.1903 94.0632 71.4631C94.5617 71.7315 94.9495 72.1406 95.2265 72.6903C95.5035 73.2358 95.642 73.9261 95.642 74.7614V81H94.1335V74.8636C94.1335 74.0923 93.9332 73.4915 93.5326 73.0611C93.1321 72.6264 92.5823 72.4091 91.8835 72.4091C91.4019 72.4091 90.9715 72.5135 90.5923 72.7223C90.2173 72.9311 89.9211 73.2358 89.7038 73.6364C89.4865 74.0369 89.3778 74.5227 89.3778 75.0938ZM101.642 84.8864C100.913 84.8864 100.287 84.7926 99.7624 84.6051C99.2382 84.4219 98.8014 84.179 98.452 83.8764C98.1068 83.5781 97.832 83.2585 97.6274 82.9176L98.8291 82.0739C98.9655 82.2528 99.1381 82.4574 99.3469 82.6875C99.5557 82.9219 99.8412 83.1243 100.203 83.2947C100.57 83.4695 101.049 83.5568 101.642 83.5568C102.434 83.5568 103.088 83.3651 103.604 82.9815C104.12 82.598 104.377 81.9972 104.377 81.179V79.1847H104.25C104.139 79.3636 103.981 79.5852 103.777 79.8494C103.576 80.1094 103.287 80.3416 102.907 80.5462C102.532 80.7464 102.025 80.8466 101.386 80.8466C100.593 80.8466 99.8817 80.6591 99.251 80.2841C98.6246 79.9091 98.1281 79.3636 97.7617 78.6477C97.3995 77.9318 97.2183 77.0625 97.2183 76.0398C97.2183 75.0341 97.3952 74.1584 97.7489 73.4126C98.1026 72.6626 98.5948 72.0831 99.2254 71.674C99.8561 71.2607 100.585 71.054 101.412 71.054C102.051 71.054 102.558 71.1605 102.933 71.3736C103.312 71.5824 103.602 71.821 103.802 72.0895C104.007 72.3537 104.164 72.571 104.275 72.7415H104.429V71.1818H105.886V81.2812C105.886 82.125 105.694 82.8111 105.311 83.3395C104.931 83.8722 104.42 84.2621 103.777 84.5092C103.137 84.7607 102.426 84.8864 101.642 84.8864ZM101.591 79.4915C102.196 79.4915 102.707 79.353 103.125 79.076C103.542 78.799 103.86 78.4006 104.077 77.8807C104.294 77.3608 104.403 76.7386 104.403 76.0142C104.403 75.3068 104.296 74.6825 104.083 74.1413C103.87 73.6001 103.555 73.1761 103.137 72.8693C102.72 72.5625 102.204 72.4091 101.591 72.4091C100.951 72.4091 100.419 72.571 99.9925 72.8949C99.5706 73.2187 99.2531 73.6534 99.0401 74.1989C98.8313 74.7443 98.7269 75.3494 98.7269 76.0142C98.7269 76.696 98.8334 77.299 99.0465 77.8232C99.2638 78.343 99.5834 78.7521 100.005 79.0504C100.431 79.3445 100.96 79.4915 101.591 79.4915ZM116.54 71.1818V72.4602H111.452V71.1818H116.54ZM112.935 68.8295H114.443V78.1875C114.443 78.6136 114.505 78.9332 114.628 79.1463C114.756 79.3551 114.918 79.4957 115.114 79.5682C115.315 79.6364 115.526 79.6705 115.747 79.6705C115.913 79.6705 116.05 79.6619 116.156 79.6449C116.263 79.6236 116.348 79.6065 116.412 79.5938L116.719 80.9489C116.616 80.9872 116.474 81.0256 116.29 81.0639C116.107 81.1065 115.875 81.1278 115.594 81.1278C115.168 81.1278 114.75 81.0362 114.341 80.853C113.936 80.6697 113.599 80.3906 113.331 80.0156C113.067 79.6406 112.935 79.1676 112.935 78.5966V68.8295ZM122.1 81.2045C121.154 81.2045 120.338 80.9957 119.652 80.5781C118.97 80.1562 118.444 79.5682 118.073 78.8139C117.706 78.0554 117.523 77.1733 117.523 76.1676C117.523 75.1619 117.706 74.2756 118.073 73.5085C118.444 72.7372 118.959 72.1364 119.62 71.706C120.285 71.2713 121.06 71.054 121.946 71.054C122.458 71.054 122.963 71.1392 123.461 71.3097C123.96 71.4801 124.414 71.7571 124.823 72.1406C125.232 72.5199 125.558 73.0227 125.801 73.6491C126.044 74.2756 126.165 75.0469 126.165 75.9631V76.6023H118.597V75.2983H124.631C124.631 74.7443 124.52 74.25 124.299 73.8153C124.081 73.3807 123.77 73.0376 123.366 72.7862C122.965 72.5348 122.492 72.4091 121.946 72.4091C121.346 72.4091 120.826 72.5582 120.387 72.8565C119.952 73.1506 119.618 73.5341 119.383 74.0071C119.149 74.4801 119.032 74.9872 119.032 75.5284V76.3977C119.032 77.1392 119.16 77.7678 119.415 78.2834C119.675 78.7947 120.035 79.1847 120.495 79.4531C120.956 79.7173 121.491 79.8494 122.1 79.8494C122.496 79.8494 122.854 79.794 123.174 79.6832C123.498 79.5682 123.777 79.3977 124.011 79.1719C124.245 78.9418 124.427 78.6562 124.554 78.3153L126.012 78.7244C125.858 79.2188 125.601 79.6534 125.238 80.0284C124.876 80.3991 124.429 80.6889 123.896 80.8977C123.363 81.1023 122.765 81.2045 122.1 81.2045ZM130.629 81.2301C130.007 81.2301 129.442 81.1129 128.935 80.8786C128.428 80.6399 128.025 80.2969 127.727 79.8494C127.429 79.3977 127.28 78.8523 127.28 78.2131C127.28 77.6506 127.391 77.1946 127.612 76.8452C127.834 76.4915 128.13 76.2145 128.501 76.0142C128.871 75.8139 129.28 75.6648 129.728 75.5668C130.18 75.4645 130.633 75.3835 131.089 75.3239C131.686 75.2472 132.17 75.1896 132.54 75.1513C132.915 75.1087 133.188 75.0384 133.359 74.9403C133.533 74.8423 133.621 74.6719 133.621 74.429V74.3778C133.621 73.7472 133.448 73.2571 133.103 72.9077C132.762 72.5582 132.244 72.3835 131.55 72.3835C130.829 72.3835 130.265 72.5412 129.856 72.8565C129.447 73.1719 129.159 73.5085 128.993 73.8665L127.561 73.3551C127.817 72.7585 128.158 72.294 128.584 71.9616C129.014 71.625 129.483 71.3906 129.99 71.2585C130.501 71.1222 131.004 71.054 131.499 71.054C131.814 71.054 132.176 71.0923 132.585 71.169C132.999 71.2415 133.397 71.3928 133.78 71.6229C134.168 71.853 134.49 72.2003 134.746 72.6648C135.001 73.1293 135.129 73.7514 135.129 74.5312V81H133.621V79.6705H133.544C133.442 79.8835 133.271 80.1115 133.033 80.3544C132.794 80.5973 132.476 80.804 132.08 80.9744C131.684 81.1449 131.2 81.2301 130.629 81.2301ZM130.859 79.875C131.456 79.875 131.959 79.7578 132.368 79.5234C132.781 79.2891 133.092 78.9865 133.301 78.6158C133.514 78.245 133.621 77.8551 133.621 77.446V76.0653C133.557 76.142 133.416 76.2124 133.199 76.2763C132.986 76.3359 132.739 76.3892 132.457 76.4361C132.18 76.4787 131.91 76.517 131.646 76.5511C131.386 76.581 131.175 76.6065 131.013 76.6278C130.621 76.679 130.254 76.7621 129.913 76.8771C129.577 76.9879 129.304 77.1562 129.095 77.3821C128.891 77.6037 128.788 77.9062 128.788 78.2898C128.788 78.8139 128.982 79.2102 129.37 79.4787C129.762 79.7429 130.258 79.875 130.859 79.875ZM137.163 81V71.1818H138.62V72.7159H138.748C138.952 72.1918 139.283 71.7848 139.739 71.495C140.195 71.201 140.742 71.054 141.381 71.054C142.029 71.054 142.568 71.201 142.998 71.495C143.433 71.7848 143.772 72.1918 144.015 72.7159H144.117C144.369 72.2088 144.746 71.8061 145.248 71.5078C145.751 71.2053 146.354 71.054 147.057 71.054C147.935 71.054 148.653 71.3288 149.212 71.8786C149.77 72.424 150.049 73.2741 150.049 74.429V81H148.54V74.429C148.54 73.7045 148.342 73.1868 147.946 72.8757C147.55 72.5646 147.083 72.4091 146.546 72.4091C145.856 72.4091 145.321 72.6179 144.942 73.0355C144.562 73.4489 144.373 73.973 144.373 74.608V81H142.839V74.2756C142.839 73.7173 142.658 73.2678 142.295 72.9268C141.933 72.5817 141.467 72.4091 140.896 72.4091C140.503 72.4091 140.137 72.5135 139.796 72.7223C139.459 72.9311 139.187 73.2209 138.978 73.5916C138.773 73.9581 138.671 74.3821 138.671 74.8636V81H137.163ZM160.418 81.2045C159.532 81.2045 158.754 80.9936 158.085 80.5717C157.42 80.1499 156.9 79.5597 156.525 78.8011C156.155 78.0426 155.969 77.1562 155.969 76.142C155.969 75.1193 156.155 74.2266 156.525 73.4638C156.9 72.701 157.42 72.1087 158.085 71.6868C158.754 71.2649 159.532 71.054 160.418 71.054C161.305 71.054 162.08 71.2649 162.745 71.6868C163.414 72.1087 163.934 72.701 164.305 73.4638C164.68 74.2266 164.867 75.1193 164.867 76.142C164.867 77.1562 164.68 78.0426 164.305 78.8011C163.934 79.5597 163.414 80.1499 162.745 80.5717C162.08 80.9936 161.305 81.2045 160.418 81.2045ZM160.418 79.8494C161.092 79.8494 161.645 79.6768 162.08 79.3317C162.515 78.9865 162.837 78.5327 163.045 77.9702C163.254 77.4077 163.359 76.7983 163.359 76.142C163.359 75.4858 163.254 74.8743 163.045 74.3075C162.837 73.7408 162.515 73.2827 162.08 72.9332C161.645 72.5838 161.092 72.4091 160.418 72.4091C159.745 72.4091 159.191 72.5838 158.756 72.9332C158.322 73.2827 158 73.7408 157.791 74.3075C157.582 74.8743 157.478 75.4858 157.478 76.142C157.478 76.7983 157.582 77.4077 157.791 77.9702C158 78.5327 158.322 78.9865 158.756 79.3317C159.191 79.6768 159.745 79.8494 160.418 79.8494ZM170.822 71.1818V72.4602H165.529V71.1818H170.822ZM167.115 81V69.8267C167.115 69.2642 167.247 68.7955 167.511 68.4205C167.775 68.0455 168.118 67.7642 168.54 67.5767C168.962 67.3892 169.407 67.2955 169.876 67.2955C170.247 67.2955 170.549 67.3253 170.784 67.3849C171.018 67.4446 171.193 67.5 171.308 67.5511L170.873 68.8551C170.796 68.8295 170.69 68.7976 170.554 68.7592C170.421 68.7209 170.247 68.7017 170.029 68.7017C169.531 68.7017 169.171 68.8274 168.949 69.0788C168.732 69.3303 168.623 69.6989 168.623 70.1847V81H167.115ZM180.547 81.2045C179.661 81.2045 178.883 80.9936 178.214 80.5717C177.549 80.1499 177.03 79.5597 176.655 78.8011C176.284 78.0426 176.098 77.1562 176.098 76.142C176.098 75.1193 176.284 74.2266 176.655 73.4638C177.03 72.701 177.549 72.1087 178.214 71.6868C178.883 71.2649 179.661 71.054 180.547 71.054C181.434 71.054 182.209 71.2649 182.874 71.6868C183.543 72.1087 184.063 72.701 184.434 73.4638C184.809 74.2266 184.996 75.1193 184.996 76.142C184.996 77.1562 184.809 78.0426 184.434 78.8011C184.063 79.5597 183.543 80.1499 182.874 80.5717C182.209 80.9936 181.434 81.2045 180.547 81.2045ZM180.547 79.8494C181.221 79.8494 181.775 79.6768 182.209 79.3317C182.644 78.9865 182.966 78.5327 183.174 77.9702C183.383 77.4077 183.488 76.7983 183.488 76.142C183.488 75.4858 183.383 74.8743 183.174 74.3075C182.966 73.7408 182.644 73.2827 182.209 72.9332C181.775 72.5838 181.221 72.4091 180.547 72.4091C179.874 72.4091 179.32 72.5838 178.885 72.9332C178.451 73.2827 178.129 73.7408 177.92 74.3075C177.711 74.8743 177.607 75.4858 177.607 76.142C177.607 76.7983 177.711 77.4077 177.92 77.9702C178.129 78.5327 178.451 78.9865 178.885 79.3317C179.32 79.6768 179.874 79.8494 180.547 79.8494ZM194.256 71.1818L190.625 81H189.091L185.46 71.1818H187.097L189.807 79.0057H189.909L192.619 71.1818H194.256ZM199.292 81.2045C198.346 81.2045 197.53 80.9957 196.844 80.5781C196.162 80.1562 195.636 79.5682 195.265 78.8139C194.898 78.0554 194.715 77.1733 194.715 76.1676C194.715 75.1619 194.898 74.2756 195.265 73.5085C195.636 72.7372 196.151 72.1364 196.812 71.706C197.476 71.2713 198.252 71.054 199.138 71.054C199.65 71.054 200.155 71.1392 200.653 71.3097C201.152 71.4801 201.606 71.7571 202.015 72.1406C202.424 72.5199 202.75 73.0227 202.993 73.6491C203.236 74.2756 203.357 75.0469 203.357 75.9631V76.6023H195.789V75.2983H201.823C201.823 74.7443 201.712 74.25 201.491 73.8153C201.273 73.3807 200.962 73.0376 200.557 72.7862C200.157 72.5348 199.684 72.4091 199.138 72.4091C198.537 72.4091 198.018 72.5582 197.579 72.8565C197.144 73.1506 196.81 73.5341 196.575 74.0071C196.341 74.4801 196.224 74.9872 196.224 75.5284V76.3977C196.224 77.1392 196.351 77.7678 196.607 78.2834C196.867 78.7947 197.227 79.1847 197.687 79.4531C198.148 79.7173 198.682 79.8494 199.292 79.8494C199.688 79.8494 200.046 79.794 200.366 79.6832C200.689 79.5682 200.969 79.3977 201.203 79.1719C201.437 78.9418 201.618 78.6562 201.746 78.3153L203.204 78.7244C203.05 79.2188 202.792 79.6534 202.43 80.0284C202.068 80.3991 201.621 80.6889 201.088 80.8977C200.555 81.1023 199.957 81.2045 199.292 81.2045ZM204.932 81V71.1818H206.389V72.6648H206.492C206.67 72.179 206.994 71.7848 207.463 71.4822C207.932 71.1797 208.46 71.0284 209.048 71.0284C209.159 71.0284 209.298 71.0305 209.464 71.0348C209.63 71.0391 209.756 71.0455 209.841 71.054V72.5881C209.79 72.5753 209.673 72.5561 209.489 72.5305C209.31 72.5007 209.121 72.4858 208.92 72.4858C208.443 72.4858 208.017 72.5859 207.642 72.7862C207.271 72.9822 206.977 73.255 206.76 73.6044C206.547 73.9496 206.44 74.3437 206.44 74.7869V81H204.932ZM219.317 81.179C218.567 81.179 217.892 81.0298 217.291 80.7315C216.69 80.4332 216.208 80.0241 215.846 79.5043C215.484 78.9844 215.286 78.392 215.252 77.7273H216.786C216.845 78.3196 217.114 78.8097 217.591 79.1974C218.073 79.581 218.648 79.7727 219.317 79.7727C219.854 79.7727 220.331 79.647 220.749 79.3956C221.171 79.1442 221.501 78.799 221.74 78.3601C221.982 77.9169 222.104 77.4162 222.104 76.858C222.104 76.2869 221.978 75.7777 221.727 75.3303C221.48 74.8786 221.139 74.5227 220.704 74.2628C220.269 74.0028 219.773 73.8707 219.215 73.8665C218.814 73.8622 218.403 73.924 217.981 74.0518C217.559 74.1754 217.212 74.3352 216.939 74.5312L215.456 74.3523L216.249 67.9091H223.05V69.3153H217.578L217.118 73.1761H217.195C217.463 72.9631 217.8 72.7862 218.205 72.6456C218.61 72.505 219.031 72.4347 219.47 72.4347C220.272 72.4347 220.985 72.6264 221.612 73.0099C222.242 73.3892 222.737 73.9091 223.095 74.5696C223.457 75.2301 223.638 75.9844 223.638 76.8324C223.638 77.6676 223.45 78.4134 223.075 79.0696C222.705 79.7216 222.193 80.2372 221.541 80.6165C220.889 80.9915 220.148 81.179 219.317 81.179ZM229.727 81.179C228.764 81.179 227.944 80.9169 227.266 80.3928C226.589 79.8643 226.071 79.0994 225.713 78.098C225.355 77.0923 225.176 75.8778 225.176 74.4545C225.176 73.0398 225.355 71.8317 225.713 70.8303C226.075 69.8246 226.595 69.0575 227.273 68.5291C227.954 67.9964 228.773 67.7301 229.727 67.7301C230.682 67.7301 231.498 67.9964 232.175 68.5291C232.857 69.0575 233.377 69.8246 233.735 70.8303C234.097 71.8317 234.278 73.0398 234.278 74.4545C234.278 75.8778 234.099 77.0923 233.741 78.098C233.383 79.0994 232.866 79.8643 232.188 80.3928C231.51 80.9169 230.69 81.179 229.727 81.179ZM229.727 79.7727C230.682 79.7727 231.423 79.3125 231.952 78.392C232.48 77.4716 232.744 76.1591 232.744 74.4545C232.744 73.321 232.623 72.3558 232.38 71.5589C232.141 70.7621 231.796 70.1548 231.344 69.7372C230.897 69.3196 230.358 69.1108 229.727 69.1108C228.781 69.1108 228.042 69.5774 227.509 70.5107C226.976 71.4396 226.71 72.7543 226.71 74.4545C226.71 75.5881 226.829 76.5511 227.068 77.3438C227.307 78.1364 227.65 78.7393 228.097 79.1527C228.549 79.5661 229.092 79.7727 229.727 79.7727ZM240.257 81.179C239.294 81.179 238.474 80.9169 237.796 80.3928C237.119 79.8643 236.601 79.0994 236.243 78.098C235.885 77.0923 235.706 75.8778 235.706 74.4545C235.706 73.0398 235.885 71.8317 236.243 70.8303C236.605 69.8246 237.125 69.0575 237.803 68.5291C238.484 67.9964 239.303 67.7301 240.257 67.7301C241.212 67.7301 242.028 67.9964 242.705 68.5291C243.387 69.0575 243.907 69.8246 244.265 70.8303C244.627 71.8317 244.808 73.0398 244.808 74.4545C244.808 75.8778 244.629 77.0923 244.271 78.098C243.913 79.0994 243.396 79.8643 242.718 80.3928C242.04 80.9169 241.22 81.179 240.257 81.179ZM240.257 79.7727C241.212 79.7727 241.953 79.3125 242.482 78.392C243.01 77.4716 243.274 76.1591 243.274 74.4545C243.274 73.321 243.153 72.3558 242.91 71.5589C242.671 70.7621 242.326 70.1548 241.874 69.7372C241.427 69.3196 240.888 69.1108 240.257 69.1108C239.311 69.1108 238.572 69.5774 238.039 70.5107C237.506 71.4396 237.24 72.7543 237.24 74.4545C237.24 75.5881 237.359 76.5511 237.598 77.3438C237.837 78.1364 238.18 78.7393 238.627 79.1527C239.079 79.5661 239.622 79.7727 240.257 79.7727ZM41.8807 105V95.1818H43.3892V105H41.8807ZM42.6477 93.5455C42.3537 93.5455 42.1001 93.4453 41.8871 93.245C41.6783 93.0447 41.5739 92.804 41.5739 92.5227C41.5739 92.2415 41.6783 92.0007 41.8871 91.8004C42.1001 91.6001 42.3537 91.5 42.6477 91.5C42.9418 91.5 43.1932 91.6001 43.402 91.8004C43.6151 92.0007 43.7216 92.2415 43.7216 92.5227C43.7216 92.804 43.6151 93.0447 43.402 93.245C43.1932 93.4453 42.9418 93.5455 42.6477 93.5455ZM46.9407 99.0938V105H45.4322V95.1818H46.8896V96.7159H47.0174C47.2475 96.2173 47.5969 95.8168 48.0657 95.5142C48.5344 95.2074 49.1396 95.054 49.881 95.054C50.5458 95.054 51.1275 95.1903 51.6261 95.4631C52.1246 95.7315 52.5124 96.1406 52.7894 96.6903C53.0664 97.2358 53.2049 97.9261 53.2049 98.7614V105H51.6964V98.8636C51.6964 98.0923 51.4961 97.4915 51.0955 97.0611C50.695 96.6264 50.1452 96.4091 49.4464 96.4091C48.9648 96.4091 48.5344 96.5135 48.1552 96.7223C47.7802 96.9311 47.484 97.2358 47.2667 97.6364C47.0494 98.0369 46.9407 98.5227 46.9407 99.0938ZM58.9488 105.205C58.1307 105.205 57.4084 104.998 56.7819 104.585C56.1555 104.167 55.6655 103.579 55.3118 102.82C54.9581 102.058 54.7812 101.156 54.7812 100.116C54.7812 99.0852 54.9581 98.1903 55.3118 97.4318C55.6655 96.6733 56.1577 96.0874 56.7883 95.674C57.419 95.2607 58.1477 95.054 58.9744 95.054C59.6136 95.054 60.1186 95.1605 60.4893 95.3736C60.8643 95.5824 61.1498 95.821 61.3459 96.0895C61.5462 96.3537 61.7017 96.571 61.8125 96.7415H61.9403V91.9091H63.4488V105H61.9915V103.491H61.8125C61.7017 103.67 61.544 103.896 61.3395 104.169C61.1349 104.437 60.843 104.678 60.4638 104.891C60.0845 105.1 59.5795 105.205 58.9488 105.205ZM59.1534 103.849C59.7585 103.849 60.2699 103.692 60.6875 103.376C61.1051 103.057 61.4226 102.616 61.6399 102.053C61.8572 101.487 61.9659 100.832 61.9659 100.091C61.9659 99.358 61.8594 98.7166 61.6463 98.1669C61.4332 97.6129 61.1179 97.1825 60.7003 96.8757C60.2827 96.5646 59.767 96.4091 59.1534 96.4091C58.5142 96.4091 57.9815 96.5732 57.5554 96.9013C57.1335 97.2251 56.816 97.6662 56.603 98.2244C56.3942 98.7784 56.2898 99.4006 56.2898 100.091C56.2898 100.79 56.3963 101.425 56.6094 101.996C56.8267 102.562 57.1463 103.014 57.5682 103.351C57.9943 103.683 58.5227 103.849 59.1534 103.849ZM65.7012 105V95.1818H67.2097V105H65.7012ZM66.4682 93.5455C66.1742 93.5455 65.9206 93.4453 65.7075 93.245C65.4987 93.0447 65.3943 92.804 65.3943 92.5227C65.3943 92.2415 65.4987 92.0007 65.7075 91.8004C65.9206 91.6001 66.1742 91.5 66.4682 91.5C66.7622 91.5 67.0137 91.6001 67.2225 91.8004C67.4355 92.0007 67.5421 92.2415 67.5421 92.5227C67.5421 92.804 67.4355 93.0447 67.2225 93.245C67.0137 93.4453 66.7622 93.5455 66.4682 93.5455ZM77.281 95.1818L73.6504 105H72.1163L68.4856 95.1818H70.122L72.8322 103.006H72.9345L75.6447 95.1818H77.281ZM78.5522 105V95.1818H80.0607V105H78.5522ZM79.3192 93.5455C79.0252 93.5455 78.7716 93.4453 78.5586 93.245C78.3498 93.0447 78.2453 92.804 78.2453 92.5227C78.2453 92.2415 78.3498 92.0007 78.5586 91.8004C78.7716 91.6001 79.0252 91.5 79.3192 91.5C79.6132 91.5 79.8647 91.6001 80.0735 91.8004C80.2865 92.0007 80.3931 92.2415 80.3931 92.5227C80.3931 92.804 80.2865 93.0447 80.0735 93.245C79.8647 93.4453 79.6132 93.5455 79.3192 93.5455ZM85.811 105.205C84.9929 105.205 84.2706 104.998 83.6441 104.585C83.0177 104.167 82.5277 103.579 82.174 102.82C81.8203 102.058 81.6434 101.156 81.6434 100.116C81.6434 99.0852 81.8203 98.1903 82.174 97.4318C82.5277 96.6733 83.0198 96.0874 83.6505 95.674C84.2812 95.2607 85.0099 95.054 85.8366 95.054C86.4758 95.054 86.9808 95.1605 87.3515 95.3736C87.7265 95.5824 88.012 95.821 88.2081 96.0895C88.4083 96.3537 88.5639 96.571 88.6747 96.7415H88.8025V91.9091H90.311V105H88.8537V103.491H88.6747C88.5639 103.67 88.4062 103.896 88.2017 104.169C87.9971 104.437 87.7052 104.678 87.326 104.891C86.9467 105.1 86.4417 105.205 85.811 105.205ZM86.0156 103.849C86.6207 103.849 87.1321 103.692 87.5497 103.376C87.9673 103.057 88.2848 102.616 88.5021 102.053C88.7194 101.487 88.8281 100.832 88.8281 100.091C88.8281 99.358 88.7215 98.7166 88.5085 98.1669C88.2954 97.6129 87.9801 97.1825 87.5625 96.8757C87.1448 96.5646 86.6292 96.4091 86.0156 96.4091C85.3764 96.4091 84.8437 96.5732 84.4176 96.9013C83.9957 97.2251 83.6782 97.6662 83.4652 98.2244C83.2563 98.7784 83.1519 99.4006 83.1519 100.091C83.1519 100.79 83.2585 101.425 83.4715 101.996C83.6889 102.562 84.0085 103.014 84.4304 103.351C84.8565 103.683 85.3849 103.849 86.0156 103.849ZM98.7508 100.986V95.1818H100.259V105H98.7508V103.338H98.6486C98.4185 103.837 98.0605 104.261 97.5747 104.61C97.0889 104.955 96.4753 105.128 95.7338 105.128C95.1202 105.128 94.5747 104.994 94.0974 104.725C93.6202 104.452 93.2452 104.043 92.9724 103.498C92.6997 102.948 92.5633 102.256 92.5633 101.42V95.1818H94.0719V101.318C94.0719 102.034 94.2721 102.605 94.6727 103.031C95.0775 103.457 95.5932 103.67 96.2196 103.67C96.5946 103.67 96.976 103.575 97.3638 103.383C97.7558 103.191 98.0839 102.897 98.3481 102.501C98.6166 102.104 98.7508 101.599 98.7508 100.986ZM105.192 105.23C104.569 105.23 104.005 105.113 103.498 104.879C102.991 104.64 102.588 104.297 102.29 103.849C101.991 103.398 101.842 102.852 101.842 102.213C101.842 101.651 101.953 101.195 102.174 100.845C102.396 100.491 102.692 100.214 103.063 100.014C103.434 99.8139 103.843 99.6648 104.29 99.5668C104.742 99.4645 105.196 99.3835 105.652 99.3239C106.248 99.2472 106.732 99.1896 107.103 99.1513C107.478 99.1087 107.75 99.0384 107.921 98.9403C108.096 98.8423 108.183 98.6719 108.183 98.429V98.3778C108.183 97.7472 108.01 97.2571 107.665 96.9077C107.324 96.5582 106.807 96.3835 106.112 96.3835C105.392 96.3835 104.827 96.5412 104.418 96.8565C104.009 97.1719 103.721 97.5085 103.555 97.8665L102.123 97.3551C102.379 96.7585 102.72 96.294 103.146 95.9616C103.576 95.625 104.045 95.3906 104.552 95.2585C105.064 95.1222 105.567 95.054 106.061 95.054C106.376 95.054 106.738 95.0923 107.147 95.169C107.561 95.2415 107.959 95.3928 108.343 95.6229C108.731 95.853 109.052 96.2003 109.308 96.6648C109.564 97.1293 109.692 97.7514 109.692 98.5312V105H108.183V103.67H108.106C108.004 103.884 107.834 104.112 107.595 104.354C107.356 104.597 107.039 104.804 106.643 104.974C106.246 105.145 105.763 105.23 105.192 105.23ZM105.422 103.875C106.018 103.875 106.521 103.758 106.93 103.523C107.344 103.289 107.655 102.987 107.863 102.616C108.076 102.245 108.183 101.855 108.183 101.446V100.065C108.119 100.142 107.978 100.212 107.761 100.276C107.548 100.336 107.301 100.389 107.02 100.436C106.743 100.479 106.472 100.517 106.208 100.551C105.948 100.581 105.737 100.607 105.575 100.628C105.183 100.679 104.817 100.762 104.476 100.877C104.139 100.988 103.866 101.156 103.657 101.382C103.453 101.604 103.351 101.906 103.351 102.29C103.351 102.814 103.545 103.21 103.932 103.479C104.324 103.743 104.821 103.875 105.422 103.875ZM113.233 91.9091V105H111.725V91.9091H113.233ZM122.231 97.3807L120.876 97.7642C120.791 97.5384 120.665 97.3189 120.499 97.1058C120.337 96.8885 120.115 96.7095 119.834 96.5689C119.553 96.4283 119.193 96.358 118.754 96.358C118.153 96.358 117.652 96.4964 117.252 96.7734C116.855 97.0462 116.657 97.3935 116.657 97.8153C116.657 98.1903 116.793 98.4865 117.066 98.7038C117.339 98.9212 117.765 99.1023 118.345 99.2472L119.802 99.6051C120.68 99.8182 121.334 100.144 121.764 100.583C122.195 101.018 122.41 101.578 122.41 102.264C122.41 102.827 122.248 103.33 121.924 103.773C121.605 104.216 121.157 104.565 120.582 104.821C120.007 105.077 119.337 105.205 118.575 105.205C117.573 105.205 116.744 104.987 116.088 104.553C115.432 104.118 115.016 103.483 114.842 102.648L116.274 102.29C116.41 102.818 116.668 103.214 117.047 103.479C117.431 103.743 117.931 103.875 118.549 103.875C119.252 103.875 119.81 103.726 120.224 103.428C120.641 103.125 120.85 102.763 120.85 102.341C120.85 102 120.731 101.714 120.492 101.484C120.254 101.25 119.887 101.075 119.393 100.96L117.757 100.577C116.857 100.364 116.197 100.033 115.775 99.5859C115.357 99.1342 115.149 98.5696 115.149 97.892C115.149 97.3381 115.304 96.848 115.615 96.4219C115.931 95.9957 116.359 95.6612 116.9 95.4183C117.445 95.1754 118.063 95.054 118.754 95.054C119.725 95.054 120.488 95.267 121.042 95.6932C121.6 96.1193 121.997 96.6818 122.231 97.3807ZM135.258 97.3807L133.903 97.7642C133.817 97.5384 133.692 97.3189 133.525 97.1058C133.364 96.8885 133.142 96.7095 132.861 96.5689C132.579 96.4283 132.219 96.358 131.78 96.358C131.18 96.358 130.679 96.4964 130.278 96.7734C129.882 97.0462 129.684 97.3935 129.684 97.8153C129.684 98.1903 129.82 98.4865 130.093 98.7038C130.366 98.9212 130.792 99.1023 131.371 99.2472L132.829 99.6051C133.707 99.8182 134.361 100.144 134.791 100.583C135.222 101.018 135.437 101.578 135.437 102.264C135.437 102.827 135.275 103.33 134.951 103.773C134.631 104.216 134.184 104.565 133.609 104.821C133.033 105.077 132.364 105.205 131.601 105.205C130.6 105.205 129.771 104.987 129.115 104.553C128.459 104.118 128.043 103.483 127.869 102.648L129.3 102.29C129.437 102.818 129.695 103.214 130.074 103.479C130.457 103.743 130.958 103.875 131.576 103.875C132.279 103.875 132.837 103.726 133.251 103.428C133.668 103.125 133.877 102.763 133.877 102.341C133.877 102 133.758 101.714 133.519 101.484C133.28 101.25 132.914 101.075 132.42 100.96L130.783 100.577C129.884 100.364 129.224 100.033 128.802 99.5859C128.384 99.1342 128.175 98.5696 128.175 97.892C128.175 97.3381 128.331 96.848 128.642 96.4219C128.957 95.9957 129.386 95.6612 129.927 95.4183C130.472 95.1754 131.09 95.054 131.78 95.054C132.752 95.054 133.515 95.267 134.069 95.6932C134.627 96.1193 135.023 96.6818 135.258 97.3807ZM143.175 100.986V95.1818H144.684V105H143.175V103.338H143.073C142.843 103.837 142.485 104.261 141.999 104.61C141.513 104.955 140.899 105.128 140.158 105.128C139.544 105.128 138.999 104.994 138.522 104.725C138.044 104.452 137.669 104.043 137.397 103.498C137.124 102.948 136.987 102.256 136.987 101.42V95.1818H138.496V101.318C138.496 102.034 138.696 102.605 139.097 103.031C139.502 103.457 140.017 103.67 140.644 103.67C141.019 103.67 141.4 103.575 141.788 103.383C142.18 103.191 142.508 102.897 142.772 102.501C143.041 102.104 143.175 101.599 143.175 100.986ZM146.726 108.682V95.1818H148.184V96.7415H148.363C148.474 96.571 148.627 96.3537 148.823 96.0895C149.023 95.821 149.309 95.5824 149.68 95.3736C150.055 95.1605 150.562 95.054 151.201 95.054C152.028 95.054 152.756 95.2607 153.387 95.674C154.018 96.0874 154.51 96.6733 154.864 97.4318C155.217 98.1903 155.394 99.0852 155.394 100.116C155.394 101.156 155.217 102.058 154.864 102.82C154.51 103.579 154.02 104.167 153.393 104.585C152.767 104.998 152.045 105.205 151.226 105.205C150.596 105.205 150.091 105.1 149.712 104.891C149.332 104.678 149.04 104.437 148.836 104.169C148.631 103.896 148.474 103.67 148.363 103.491H148.235V108.682H146.726ZM148.209 100.091C148.209 100.832 148.318 101.487 148.535 102.053C148.753 102.616 149.07 103.057 149.488 103.376C149.905 103.692 150.417 103.849 151.022 103.849C151.653 103.849 152.179 103.683 152.601 103.351C153.027 103.014 153.346 102.562 153.56 101.996C153.777 101.425 153.886 100.79 153.886 100.091C153.886 99.4006 153.779 98.7784 153.566 98.2244C153.357 97.6662 153.04 97.2251 152.614 96.9013C152.192 96.5732 151.661 96.4091 151.022 96.4091C150.408 96.4091 149.893 96.5646 149.475 96.8757C149.057 97.1825 148.742 97.6129 148.529 98.1669C148.316 98.7166 148.209 99.358 148.209 100.091ZM156.975 108.682V95.1818H158.433V96.7415H158.612C158.722 96.571 158.876 96.3537 159.072 96.0895C159.272 95.821 159.558 95.5824 159.928 95.3736C160.303 95.1605 160.81 95.054 161.45 95.054C162.276 95.054 163.005 95.2607 163.636 95.674C164.266 96.0874 164.759 96.6733 165.112 97.4318C165.466 98.1903 165.643 99.0852 165.643 100.116C165.643 101.156 165.466 102.058 165.112 102.82C164.759 103.579 164.269 104.167 163.642 104.585C163.016 104.998 162.293 105.205 161.475 105.205C160.845 105.205 160.34 105.1 159.96 104.891C159.581 104.678 159.289 104.437 159.085 104.169C158.88 103.896 158.722 103.67 158.612 103.491H158.484V108.682H156.975ZM158.458 100.091C158.458 100.832 158.567 101.487 158.784 102.053C159.001 102.616 159.319 103.057 159.737 103.376C160.154 103.692 160.666 103.849 161.271 103.849C161.901 103.849 162.428 103.683 162.85 103.351C163.276 103.014 163.595 102.562 163.808 101.996C164.026 101.425 164.134 100.79 164.134 100.091C164.134 99.4006 164.028 98.7784 163.815 98.2244C163.606 97.6662 163.288 97.2251 162.862 96.9013C162.44 96.5732 161.91 96.4091 161.271 96.4091C160.657 96.4091 160.141 96.5646 159.724 96.8757C159.306 97.1825 158.991 97.6129 158.778 98.1669C158.565 98.7166 158.458 99.358 158.458 100.091ZM171.213 105.205C170.326 105.205 169.549 104.994 168.879 104.572C168.215 104.15 167.695 103.56 167.32 102.801C166.949 102.043 166.764 101.156 166.764 100.142C166.764 99.1193 166.949 98.2266 167.32 97.4638C167.695 96.701 168.215 96.1087 168.879 95.6868C169.549 95.2649 170.326 95.054 171.213 95.054C172.099 95.054 172.875 95.2649 173.539 95.6868C174.208 96.1087 174.728 96.701 175.099 97.4638C175.474 98.2266 175.661 99.1193 175.661 100.142C175.661 101.156 175.474 102.043 175.099 102.801C174.728 103.56 174.208 104.15 173.539 104.572C172.875 104.994 172.099 105.205 171.213 105.205ZM171.213 103.849C171.886 103.849 172.44 103.677 172.875 103.332C173.309 102.987 173.631 102.533 173.84 101.97C174.049 101.408 174.153 100.798 174.153 100.142C174.153 99.4858 174.049 98.8743 173.84 98.3075C173.631 97.7408 173.309 97.2827 172.875 96.9332C172.44 96.5838 171.886 96.4091 171.213 96.4091C170.539 96.4091 169.985 96.5838 169.551 96.9332C169.116 97.2827 168.794 97.7408 168.585 98.3075C168.377 98.8743 168.272 99.4858 168.272 100.142C168.272 100.798 168.377 101.408 168.585 101.97C168.794 102.533 169.116 102.987 169.551 103.332C169.985 103.677 170.539 103.849 171.213 103.849ZM177.244 105V95.1818H178.702V96.6648H178.804C178.983 96.179 179.307 95.7848 179.775 95.4822C180.244 95.1797 180.773 95.0284 181.361 95.0284C181.471 95.0284 181.61 95.0305 181.776 95.0348C181.942 95.0391 182.068 95.0455 182.153 95.054V96.5881C182.102 96.5753 181.985 96.5561 181.802 96.5305C181.623 96.5007 181.433 96.4858 181.233 96.4858C180.756 96.4858 180.329 96.5859 179.954 96.7862C179.584 96.9822 179.29 97.255 179.072 97.6044C178.859 97.9496 178.753 98.3437 178.753 98.7869V105H177.244ZM188.107 95.1818V96.4602H183.019V95.1818H188.107ZM184.501 92.8295H186.01V102.188C186.01 102.614 186.072 102.933 186.195 103.146C186.323 103.355 186.485 103.496 186.681 103.568C186.881 103.636 187.092 103.67 187.314 103.67C187.48 103.67 187.617 103.662 187.723 103.645C187.83 103.624 187.915 103.607 187.979 103.594L188.286 104.949C188.183 104.987 188.041 105.026 187.857 105.064C187.674 105.107 187.442 105.128 187.161 105.128C186.734 105.128 186.317 105.036 185.908 104.853C185.503 104.67 185.166 104.391 184.898 104.016C184.634 103.641 184.501 103.168 184.501 102.597V92.8295ZM196.435 97.3807L195.079 97.7642C194.994 97.5384 194.868 97.3189 194.702 97.1058C194.54 96.8885 194.319 96.7095 194.037 96.5689C193.756 96.4283 193.396 96.358 192.957 96.358C192.356 96.358 191.856 96.4964 191.455 96.7734C191.059 97.0462 190.861 97.3935 190.861 97.8153C190.861 98.1903 190.997 98.4865 191.27 98.7038C191.542 98.9212 191.969 99.1023 192.548 99.2472L194.006 99.6051C194.883 99.8182 195.537 100.144 195.968 100.583C196.398 101.018 196.613 101.578 196.613 102.264C196.613 102.827 196.452 103.33 196.128 103.773C195.808 104.216 195.361 104.565 194.785 104.821C194.21 105.077 193.541 105.205 192.778 105.205C191.777 105.205 190.948 104.987 190.292 104.553C189.636 104.118 189.22 103.483 189.045 102.648L190.477 102.29C190.613 102.818 190.871 103.214 191.251 103.479C191.634 103.743 192.135 103.875 192.753 103.875C193.456 103.875 194.014 103.726 194.427 103.428C194.845 103.125 195.054 102.763 195.054 102.341C195.054 102 194.935 101.714 194.696 101.484C194.457 101.25 194.091 101.075 193.596 100.96L191.96 100.577C191.061 100.364 190.4 100.033 189.979 99.5859C189.561 99.1342 189.352 98.5696 189.352 97.892C189.352 97.3381 189.508 96.848 189.819 96.4219C190.134 95.9957 190.562 95.6612 191.104 95.4183C191.649 95.1754 192.267 95.054 192.957 95.054C193.929 95.054 194.692 95.267 195.246 95.6932C195.804 96.1193 196.2 96.6818 196.435 97.3807ZM206.495 105.205C205.609 105.205 204.831 104.994 204.162 104.572C203.498 104.15 202.978 103.56 202.603 102.801C202.232 102.043 202.047 101.156 202.047 100.142C202.047 99.1193 202.232 98.2266 202.603 97.4638C202.978 96.701 203.498 96.1087 204.162 95.6868C204.831 95.2649 205.609 95.054 206.495 95.054C207.382 95.054 208.157 95.2649 208.822 95.6868C209.491 96.1087 210.011 96.701 210.382 97.4638C210.757 98.2266 210.944 99.1193 210.944 100.142C210.944 101.156 210.757 102.043 210.382 102.801C210.011 103.56 209.491 104.15 208.822 104.572C208.157 104.994 207.382 105.205 206.495 105.205ZM206.495 103.849C207.169 103.849 207.723 103.677 208.157 103.332C208.592 102.987 208.914 102.533 209.123 101.97C209.331 101.408 209.436 100.798 209.436 100.142C209.436 99.4858 209.331 98.8743 209.123 98.3075C208.914 97.7408 208.592 97.2827 208.157 96.9332C207.723 96.5838 207.169 96.4091 206.495 96.4091C205.822 96.4091 205.268 96.5838 204.833 96.9332C204.399 97.2827 204.077 97.7408 203.868 98.3075C203.659 98.8743 203.555 99.4858 203.555 100.142C203.555 100.798 203.659 101.408 203.868 101.97C204.077 102.533 204.399 102.987 204.833 103.332C205.268 103.677 205.822 103.849 206.495 103.849ZM218.715 100.986V95.1818H220.223V105H218.715V103.338H218.612C218.382 103.837 218.024 104.261 217.538 104.61C217.053 104.955 216.439 105.128 215.697 105.128C215.084 105.128 214.538 104.994 214.061 104.725C213.584 104.452 213.209 104.043 212.936 103.498C212.663 102.948 212.527 102.256 212.527 101.42V95.1818H214.036V101.318C214.036 102.034 214.236 102.605 214.636 103.031C215.041 103.457 215.557 103.67 216.183 103.67C216.558 103.67 216.94 103.575 217.327 103.383C217.719 103.191 218.048 102.897 218.312 102.501C218.58 102.104 218.715 101.599 218.715 100.986ZM222.266 105V95.1818H223.723V96.6648H223.826C224.005 96.179 224.328 95.7848 224.797 95.4822C225.266 95.1797 225.794 95.0284 226.382 95.0284C226.493 95.0284 226.632 95.0305 226.798 95.0348C226.964 95.0391 227.09 95.0455 227.175 95.054V96.5881C227.124 96.5753 227.007 96.5561 226.824 96.5305C226.645 96.5007 226.455 96.4858 226.255 96.4858C225.777 96.4858 225.351 96.5859 224.976 96.7862C224.605 96.9822 224.311 97.255 224.094 97.6044C223.881 97.9496 223.775 98.3437 223.775 98.7869V105H222.266ZM45.8693 129.205C44.9489 129.205 44.1563 128.987 43.4915 128.553C42.8267 128.118 42.3153 127.519 41.9574 126.756C41.5994 125.994 41.4205 125.122 41.4205 124.142C41.4205 123.145 41.6037 122.265 41.9702 121.502C42.3409 120.735 42.8565 120.136 43.517 119.706C44.1818 119.271 44.9574 119.054 45.8438 119.054C46.5341 119.054 47.1562 119.182 47.7102 119.438C48.2642 119.693 48.718 120.051 49.0717 120.511C49.4254 120.972 49.6449 121.509 49.7301 122.122H48.2216C48.1065 121.675 47.8509 121.278 47.4545 120.933C47.0625 120.584 46.5341 120.409 45.8693 120.409C45.2813 120.409 44.7656 120.562 44.3224 120.869C43.8835 121.172 43.5405 121.6 43.2933 122.154C43.0504 122.704 42.929 123.349 42.929 124.091C42.929 124.849 43.0483 125.51 43.2869 126.072C43.5298 126.635 43.8707 127.072 44.3097 127.383C44.7528 127.694 45.2727 127.849 45.8693 127.849C46.2614 127.849 46.6172 127.781 46.9368 127.645C47.2564 127.509 47.527 127.312 47.7486 127.057C47.9702 126.801 48.1278 126.494 48.2216 126.136H49.7301C49.6449 126.716 49.4339 127.238 49.0973 127.702C48.7649 128.163 48.3239 128.529 47.7741 128.802C47.2287 129.07 46.5938 129.205 45.8693 129.205ZM52.7239 115.909V129H51.2154V115.909H52.7239ZM54.7669 129V119.182H56.2754V129H54.7669ZM55.5339 117.545C55.2399 117.545 54.9863 117.445 54.7732 117.245C54.5644 117.045 54.46 116.804 54.46 116.523C54.46 116.241 54.5644 116.001 54.7732 115.8C54.9863 115.6 55.2399 115.5 55.5339 115.5C55.8279 115.5 56.0794 115.6 56.2882 115.8C56.5012 116.001 56.6078 116.241 56.6078 116.523C56.6078 116.804 56.5012 117.045 56.2882 117.245C56.0794 117.445 55.8279 117.545 55.5339 117.545ZM62.4348 129.205C61.4888 129.205 60.6727 128.996 59.9867 128.578C59.3048 128.156 58.7786 127.568 58.4078 126.814C58.0413 126.055 57.8581 125.173 57.8581 124.168C57.8581 123.162 58.0413 122.276 58.4078 121.509C58.7786 120.737 59.2942 120.136 59.9547 119.706C60.6195 119.271 61.395 119.054 62.2814 119.054C62.7928 119.054 63.2977 119.139 63.7963 119.31C64.2949 119.48 64.7487 119.757 65.1578 120.141C65.5669 120.52 65.8929 121.023 66.1358 121.649C66.3787 122.276 66.5002 123.047 66.5002 123.963V124.602H58.932V123.298H64.9661C64.9661 122.744 64.8553 122.25 64.6337 121.815C64.4163 121.381 64.1053 121.038 63.7004 120.786C63.2999 120.535 62.8269 120.409 62.2814 120.409C61.6806 120.409 61.1607 120.558 60.7217 120.857C60.2871 121.151 59.9526 121.534 59.7182 122.007C59.4838 122.48 59.3666 122.987 59.3666 123.528V124.398C59.3666 125.139 59.4945 125.768 59.7502 126.283C60.0101 126.795 60.3702 127.185 60.8304 127.453C61.2906 127.717 61.8254 127.849 62.4348 127.849C62.8311 127.849 63.1891 127.794 63.5087 127.683C63.8325 127.568 64.1117 127.398 64.346 127.172C64.5804 126.942 64.7615 126.656 64.8894 126.315L66.3467 126.724C66.1933 127.219 65.9355 127.653 65.5733 128.028C65.2111 128.399 64.7637 128.689 64.231 128.898C63.6983 129.102 63.0996 129.205 62.4348 129.205ZM69.5834 123.094V129H68.0749V119.182H69.5323V120.716H69.6601C69.8902 120.217 70.2397 119.817 70.7084 119.514C71.1772 119.207 71.7823 119.054 72.5238 119.054C73.1885 119.054 73.7702 119.19 74.2688 119.463C74.7674 119.732 75.1552 120.141 75.4321 120.69C75.7091 121.236 75.8476 121.926 75.8476 122.761V129H74.3391V122.864C74.3391 122.092 74.1388 121.491 73.7383 121.061C73.3377 120.626 72.788 120.409 72.0891 120.409C71.6076 120.409 71.1772 120.513 70.7979 120.722C70.4229 120.931 70.1267 121.236 69.9094 121.636C69.6921 122.037 69.5834 122.523 69.5834 123.094ZM82.1541 119.182V120.46H77.066V119.182H82.1541ZM78.549 116.83H80.0575V126.188C80.0575 126.614 80.1193 126.933 80.2429 127.146C80.3707 127.355 80.5326 127.496 80.7287 127.568C80.9289 127.636 81.1399 127.67 81.3615 127.67C81.5277 127.67 81.664 127.662 81.7706 127.645C81.8771 127.624 81.9623 127.607 82.0262 127.594L82.3331 128.949C82.2308 128.987 82.088 129.026 81.9048 129.064C81.7216 129.107 81.4893 129.128 81.2081 129.128C80.7819 129.128 80.3643 129.036 79.9552 128.853C79.5504 128.67 79.2137 128.391 78.9453 128.016C78.6811 127.641 78.549 127.168 78.549 126.597V116.83ZM90.482 121.381L89.1269 121.764C89.0417 121.538 88.916 121.319 88.7498 121.106C88.5878 120.888 88.3663 120.71 88.085 120.569C87.8038 120.428 87.4437 120.358 87.0048 120.358C86.4039 120.358 85.9032 120.496 85.5026 120.773C85.1063 121.046 84.9082 121.393 84.9082 121.815C84.9082 122.19 85.0445 122.487 85.3173 122.704C85.59 122.921 86.0161 123.102 86.5957 123.247L88.053 123.605C88.9309 123.818 89.585 124.144 90.0154 124.583C90.4458 125.018 90.661 125.578 90.661 126.264C90.661 126.827 90.4991 127.33 90.1752 127.773C89.8556 128.216 89.4082 128.565 88.8329 128.821C88.2576 129.077 87.5886 129.205 86.8258 129.205C85.8244 129.205 84.9955 128.987 84.3393 128.553C83.683 128.118 83.2675 127.483 83.0928 126.648L84.5246 126.29C84.661 126.818 84.9188 127.214 85.2981 127.479C85.6816 127.743 86.1823 127.875 86.8002 127.875C87.5033 127.875 88.0616 127.726 88.4749 127.428C88.8925 127.125 89.1013 126.763 89.1013 126.341C89.1013 126 88.982 125.714 88.7434 125.484C88.5048 125.25 88.1383 125.075 87.644 124.96L86.0076 124.577C85.1084 124.364 84.4479 124.033 84.0261 123.586C83.6084 123.134 83.3996 122.57 83.3996 121.892C83.3996 121.338 83.5552 120.848 83.8663 120.422C84.1816 119.996 84.6099 119.661 85.1511 119.418C85.6965 119.175 86.3144 119.054 87.0048 119.054C87.9763 119.054 88.7391 119.267 89.2931 119.693C89.8513 120.119 90.2476 120.682 90.482 121.381ZM93.3112 129.102C92.9959 129.102 92.7253 128.989 92.4994 128.763C92.2736 128.538 92.1606 128.267 92.1606 127.952C92.1606 127.636 92.2736 127.366 92.4994 127.14C92.7253 126.914 92.9959 126.801 93.3112 126.801C93.6265 126.801 93.8971 126.914 94.123 127.14C94.3488 127.366 94.4618 127.636 94.4618 127.952C94.4618 128.161 94.4085 128.352 94.302 128.527C94.1997 128.702 94.0612 128.842 93.8865 128.949C93.716 129.051 93.5243 129.102 93.3112 129.102Z" fill="#111111"/>
</svg>
