<svg width="1429" height="306" viewBox="0 0 1429 306" fill="none" xmlns="http://www.w3.org/2000/svg">
<path d="M0.343411 19.0455V4.90909H74.6161V19.0455H45.8434V98H29.1161V19.0455H0.343411ZM118.087 68.6364V28.1818H134.542V98H118.587V85.5909H117.86C116.284 89.5 113.693 92.697 110.087 95.1818C106.511 97.6667 102.102 98.9091 96.8598 98.9091C92.284 98.9091 88.2386 97.8939 84.7234 95.8636C81.2386 93.803 78.5113 90.8182 76.5416 86.9091C74.5719 82.9697 73.587 78.2121 73.587 72.6364V28.1818H90.0416V70.0909C90.0416 74.5152 91.2537 78.0303 93.678 80.6364C96.1022 83.2424 99.284 84.5455 103.223 84.5455C105.648 84.5455 107.996 83.9545 110.269 82.7727C112.542 81.5909 114.405 79.8333 115.86 77.5C117.345 75.1364 118.087 72.1818 118.087 68.6364ZM146.342 98V28.1818H162.297V39.8182H163.024C164.297 35.7879 166.478 32.6818 169.569 30.5C172.691 28.2879 176.251 27.1818 180.251 27.1818C181.16 27.1818 182.175 27.2273 183.297 27.3182C184.448 27.3788 185.403 27.4848 186.16 27.6364V42.7727C185.463 42.5303 184.357 42.3182 182.842 42.1364C181.357 41.9242 179.918 41.8182 178.524 41.8182C175.524 41.8182 172.827 42.4697 170.433 43.7727C168.069 45.0455 166.206 46.8182 164.842 49.0909C163.478 51.3636 162.797 53.9848 162.797 56.9545V98H146.342ZM208.427 57.0909V98H191.972V28.1818H207.699V40.0455H208.518C210.124 36.1364 212.684 33.0303 216.199 30.7273C219.745 28.4242 224.124 27.2727 229.336 27.2727C234.154 27.2727 238.351 28.303 241.927 30.3636C245.533 32.4242 248.321 35.4091 250.29 39.3182C252.29 43.2273 253.275 47.9697 253.245 53.5455V98H236.79V56.0909C236.79 51.4242 235.578 47.7727 233.154 45.1364C230.76 42.5 227.442 41.1818 223.199 41.1818C220.321 41.1818 217.76 41.8182 215.518 43.0909C213.305 44.3333 211.563 46.1364 210.29 48.5C209.048 50.8636 208.427 53.7273 208.427 57.0909ZM264.852 98V28.1818H281.307V98H264.852ZM273.125 18.2727C270.519 18.2727 268.276 17.4091 266.397 15.6818C264.519 13.9242 263.579 11.8182 263.579 9.36363C263.579 6.87878 264.519 4.77272 266.397 3.04545C268.276 1.28787 270.519 0.409088 273.125 0.409088C275.761 0.409088 278.004 1.28787 279.852 3.04545C281.731 4.77272 282.67 6.87878 282.67 9.36363C282.67 11.8182 281.731 13.9242 279.852 15.6818C278.004 17.4091 275.761 18.2727 273.125 18.2727ZM309.562 57.0909V98H293.107V28.1818H308.834V40.0455H309.652C311.259 36.1364 313.819 33.0303 317.334 30.7273C320.88 28.4242 325.259 27.2727 330.471 27.2727C335.289 27.2727 339.486 28.303 343.062 30.3636C346.668 32.4242 349.456 35.4091 351.425 39.3182C353.425 43.2273 354.41 47.9697 354.38 53.5455V98H337.925V56.0909C337.925 51.4242 336.713 47.7727 334.289 45.1364C331.895 42.5 328.577 41.1818 324.334 41.1818C321.456 41.1818 318.895 41.8182 316.652 43.0909C314.44 44.3333 312.698 46.1364 311.425 48.5C310.183 50.8636 309.562 53.7273 309.562 57.0909ZM396.351 125.636C390.442 125.636 385.366 124.833 381.123 123.227C376.881 121.652 373.472 119.53 370.896 116.864C368.32 114.197 366.533 111.242 365.533 108L380.351 104.409C381.017 105.773 381.987 107.121 383.26 108.455C384.533 109.818 386.245 110.939 388.396 111.818C390.578 112.727 393.32 113.182 396.623 113.182C401.29 113.182 405.154 112.045 408.214 109.773C411.275 107.53 412.805 103.833 412.805 98.6818V85.4545H411.987C411.139 87.1515 409.896 88.8939 408.26 90.6818C406.654 92.4697 404.517 93.9697 401.851 95.1818C399.214 96.3939 395.896 97 391.896 97C386.533 97 381.669 95.7424 377.305 93.2273C372.972 90.6818 369.517 86.8939 366.942 81.8636C364.396 76.803 363.123 70.4697 363.123 62.8636C363.123 55.197 364.396 48.7273 366.942 43.4545C369.517 38.1515 372.987 34.1364 377.351 31.4091C381.714 28.6515 386.578 27.2727 391.942 27.2727C396.033 27.2727 399.396 27.9697 402.033 29.3636C404.699 30.7273 406.82 32.3788 408.396 34.3182C409.972 36.2273 411.169 38.0303 411.987 39.7273H412.896V28.1818H429.123V99.1364C429.123 105.106 427.699 110.045 424.851 113.955C422.002 117.864 418.108 120.788 413.169 122.727C408.229 124.667 402.623 125.636 396.351 125.636ZM396.487 84.0909C399.972 84.0909 402.942 83.2424 405.396 81.5455C407.851 79.8485 409.714 77.4091 410.987 74.2273C412.26 71.0455 412.896 67.2273 412.896 62.7727C412.896 58.3788 412.26 54.5303 410.987 51.2273C409.745 47.9242 407.896 45.3636 405.442 43.5455C403.017 41.697 400.033 40.7727 396.487 40.7727C392.82 40.7727 389.76 41.7273 387.305 43.6364C384.851 45.5455 383.002 48.1667 381.76 51.5C380.517 54.803 379.896 58.5606 379.896 62.7727C379.896 67.0455 380.517 70.7879 381.76 74C383.033 77.1818 384.896 79.6667 387.351 81.4545C389.836 83.2121 392.881 84.0909 396.487 84.0909ZM518.815 30.5C518.391 26.5303 516.603 23.4394 513.452 21.2273C510.33 19.0151 506.27 17.9091 501.27 17.9091C497.755 17.9091 494.739 18.4394 492.224 19.5C489.709 20.5606 487.785 22 486.452 23.8182C485.118 25.6364 484.436 27.7121 484.406 30.0455C484.406 31.9848 484.846 33.6667 485.724 35.0909C486.633 36.5152 487.861 37.7273 489.406 38.7273C490.952 39.697 492.664 40.5151 494.543 41.1818C496.421 41.8485 498.315 42.4091 500.224 42.8636L508.952 45.0455C512.467 45.8636 515.846 46.9697 519.088 48.3636C522.361 49.7576 525.285 51.5152 527.861 53.6364C530.467 55.7576 532.527 58.3182 534.043 61.3182C535.558 64.3182 536.315 67.8333 536.315 71.8636C536.315 77.3182 534.921 82.1212 532.133 86.2727C529.346 90.3939 525.315 93.6212 520.043 95.9545C514.8 98.2576 508.452 99.4091 500.997 99.4091C493.755 99.4091 487.467 98.2879 482.133 96.0455C476.83 93.803 472.679 90.5303 469.679 86.2273C466.709 81.9242 465.103 76.6818 464.861 70.5H481.452C481.694 73.7424 482.694 76.4394 484.452 78.5909C486.209 80.7424 488.497 82.3485 491.315 83.4091C494.164 84.4697 497.346 85 500.861 85C504.527 85 507.739 84.4545 510.497 83.3636C513.285 82.2424 515.467 80.697 517.043 78.7273C518.618 76.7273 519.421 74.3939 519.452 71.7273C519.421 69.303 518.709 67.303 517.315 65.7273C515.921 64.1212 513.967 62.7879 511.452 61.7273C508.967 60.6364 506.058 59.6667 502.724 58.8182L492.133 56.0909C484.467 54.1212 478.406 51.1364 473.952 47.1364C469.527 43.1061 467.315 37.7576 467.315 31.0909C467.315 25.6061 468.8 20.803 471.77 16.6818C474.77 12.5606 478.846 9.36363 483.997 7.0909C489.149 4.78787 494.982 3.63636 501.497 3.63636C508.103 3.63636 513.891 4.78787 518.861 7.0909C523.861 9.36363 527.785 12.5303 530.633 16.5909C533.482 20.6212 534.952 25.2576 535.043 30.5H518.815ZM545.502 98V28.1818H561.957V98H545.502ZM553.775 18.2727C551.169 18.2727 548.926 17.4091 547.047 15.6818C545.169 13.9242 544.229 11.8182 544.229 9.36363C544.229 6.87878 545.169 4.77272 547.047 3.04545C548.926 1.28787 551.169 0.409088 553.775 0.409088C556.411 0.409088 558.654 1.28787 560.502 3.04545C562.381 4.77272 563.32 6.87878 563.32 9.36363C563.32 11.8182 562.381 13.9242 560.502 15.6818C558.654 17.4091 556.411 18.2727 553.775 18.2727ZM573.757 98V28.1818H589.484V40.0455H590.302C591.757 36.0455 594.166 32.9242 597.53 30.6818C600.893 28.4091 604.909 27.2727 609.575 27.2727C614.302 27.2727 618.287 28.4242 621.53 30.7273C624.802 33 627.106 36.1061 628.439 40.0455H629.166C630.712 36.1667 633.318 33.0758 636.984 30.7727C640.681 28.4394 645.06 27.2727 650.121 27.2727C656.545 27.2727 661.787 29.303 665.848 33.3636C669.909 37.4242 671.939 43.3485 671.939 51.1364V98H655.439V53.6818C655.439 49.3485 654.287 46.1818 651.984 44.1818C649.681 42.1515 646.863 41.1364 643.53 41.1364C639.56 41.1364 636.454 42.3788 634.212 44.8636C631.999 47.3182 630.893 50.5151 630.893 54.4545V98H614.757V53C614.757 49.3939 613.666 46.5152 611.484 44.3636C609.333 42.2121 606.515 41.1364 603.03 41.1364C600.666 41.1364 598.515 41.7424 596.575 42.9545C594.636 44.1364 593.09 45.8182 591.939 48C590.787 50.1515 590.212 52.6667 590.212 55.5455V98H573.757ZM683.512 124.182V28.1818H699.694V39.7273H700.648C701.497 38.0303 702.694 36.2273 704.239 34.3182C705.785 32.3788 707.876 30.7273 710.512 29.3636C713.148 27.9697 716.512 27.2727 720.603 27.2727C725.997 27.2727 730.861 28.6515 735.194 31.4091C739.557 34.1364 743.012 38.1818 745.557 43.5455C748.133 48.8788 749.421 55.4242 749.421 63.1818C749.421 70.8485 748.164 77.3636 745.648 82.7273C743.133 88.0909 739.709 92.1818 735.376 95C731.042 97.8182 726.133 99.2273 720.648 99.2273C716.648 99.2273 713.33 98.5606 710.694 97.2273C708.057 95.8939 705.936 94.2879 704.33 92.4091C702.754 90.5 701.527 88.697 700.648 87H699.967V124.182H683.512ZM699.648 63.0909C699.648 67.6061 700.285 71.5606 701.557 74.9545C702.861 78.3485 704.724 81 707.148 82.9091C709.603 84.7879 712.573 85.7273 716.057 85.7273C719.694 85.7273 722.739 84.7576 725.194 82.8182C727.648 80.8485 729.497 78.1667 730.739 74.7727C732.012 71.3485 732.648 67.4545 732.648 63.0909C732.648 58.7576 732.027 54.9091 730.785 51.5455C729.542 48.1818 727.694 45.5455 725.239 43.6364C722.785 41.7273 719.724 40.7727 716.057 40.7727C712.542 40.7727 709.557 41.697 707.103 43.5455C704.648 45.3939 702.785 47.9848 701.512 51.3182C700.27 54.6515 699.648 58.5758 699.648 63.0909ZM774.847 4.90909V98H758.392V4.90909H774.847ZM817.556 99.3636C810.556 99.3636 804.511 97.9091 799.42 95C794.359 92.0606 790.465 87.9091 787.738 82.5455C785.011 77.1515 783.647 70.803 783.647 63.5C783.647 56.3182 785.011 50.0152 787.738 44.5909C790.496 39.1364 794.344 34.8939 799.283 31.8636C804.223 28.803 810.026 27.2727 816.693 27.2727C820.996 27.2727 825.056 27.9697 828.874 29.3636C832.723 30.7273 836.117 32.8485 839.056 35.7273C842.026 38.6061 844.359 42.2727 846.056 46.7273C847.753 51.1515 848.602 56.4242 848.602 62.5455V67.5909H791.374V56.5H832.829C832.799 53.3485 832.117 50.5455 830.783 48.0909C829.45 45.6061 827.586 43.6515 825.193 42.2273C822.829 40.803 820.071 40.0909 816.92 40.0909C813.556 40.0909 810.602 40.9091 808.056 42.5455C805.511 44.1515 803.526 46.2727 802.102 48.9091C800.708 51.5151 799.996 54.3788 799.965 57.5V67.1818C799.965 71.2424 800.708 74.7273 802.193 77.6364C803.677 80.5152 805.753 82.7273 808.42 84.2727C811.086 85.7879 814.208 86.5455 817.783 86.5455C820.177 86.5455 822.344 86.2121 824.283 85.5455C826.223 84.8485 827.905 83.8333 829.329 82.5C830.753 81.1667 831.829 79.5152 832.556 77.5455L847.92 79.2727C846.95 83.3333 845.102 86.8788 842.374 89.9091C839.677 92.9091 836.223 95.2424 832.011 96.9091C827.799 98.5455 822.98 99.3636 817.556 99.3636ZM901.623 4.90909V98H884.759V4.90909H901.623ZM939.946 99.2273C934.461 99.2273 929.552 97.8182 925.219 95C920.886 92.1818 917.461 88.0909 914.946 82.7273C912.431 77.3636 911.173 70.8485 911.173 63.1818C911.173 55.4242 912.446 48.8788 914.992 43.5455C917.567 38.1818 921.037 34.1364 925.401 31.4091C929.764 28.6515 934.628 27.2727 939.992 27.2727C944.083 27.2727 947.446 27.9697 950.083 29.3636C952.719 30.7273 954.81 32.3788 956.355 34.3182C957.901 36.2273 959.098 38.0303 959.946 39.7273H960.628V4.90909H977.128V98H960.946V87H959.946C959.098 88.697 957.87 90.5 956.264 92.4091C954.658 94.2879 952.537 95.8939 949.901 97.2273C947.264 98.5606 943.946 99.2273 939.946 99.2273ZM944.537 85.7273C948.022 85.7273 950.992 84.7879 953.446 82.9091C955.901 81 957.764 78.3485 959.037 74.9545C960.31 71.5606 960.946 67.6061 960.946 63.0909C960.946 58.5758 960.31 54.6515 959.037 51.3182C957.795 47.9848 955.946 45.3939 953.492 43.5455C951.067 41.697 948.083 40.7727 944.537 40.7727C940.87 40.7727 937.81 41.7273 935.355 43.6364C932.901 45.5455 931.052 48.1818 929.81 51.5455C928.567 54.9091 927.946 58.7576 927.946 63.0909C927.946 67.4545 928.567 71.3485 929.81 74.7727C931.083 78.1667 932.946 80.8485 935.401 82.8182C937.886 84.7576 940.931 85.7273 944.537 85.7273ZM1020.45 99.3636C1013.45 99.3636 1007.41 97.9091 1002.31 95C997.254 92.0606 993.36 87.9091 990.633 82.5455C987.906 77.1515 986.542 70.803 986.542 63.5C986.542 56.3182 987.906 50.0152 990.633 44.5909C993.391 39.1364 997.239 34.8939 1002.18 31.8636C1007.12 28.803 1012.92 27.2727 1019.59 27.2727C1023.89 27.2727 1027.95 27.9697 1031.77 29.3636C1035.62 30.7273 1039.01 32.8485 1041.95 35.7273C1044.92 38.6061 1047.25 42.2727 1048.95 46.7273C1050.65 51.1515 1051.5 56.4242 1051.5 62.5455V67.5909H994.269V56.5H1035.72C1035.69 53.3485 1035.01 50.5455 1033.68 48.0909C1032.35 45.6061 1030.48 43.6515 1028.09 42.2273C1025.72 40.803 1022.97 40.0909 1019.81 40.0909C1016.45 40.0909 1013.5 40.9091 1010.95 42.5455C1008.41 44.1515 1006.42 46.2727 1005 48.9091C1003.6 51.5151 1002.89 54.3788 1002.86 57.5V67.1818C1002.86 71.2424 1003.6 74.7273 1005.09 77.6364C1006.57 80.5152 1008.65 82.7273 1011.31 84.2727C1013.98 85.7879 1017.1 86.5455 1020.68 86.5455C1023.07 86.5455 1025.24 86.2121 1027.18 85.5455C1029.12 84.8485 1030.8 83.8333 1032.22 82.5C1033.65 81.1667 1034.72 79.5152 1035.45 77.5455L1050.81 79.2727C1049.85 83.3333 1048 86.8788 1045.27 89.9091C1042.57 92.9091 1039.12 95.2424 1034.91 96.9091C1030.69 98.5455 1025.88 99.3636 1020.45 99.3636ZM1080.39 99.4091C1075.96 99.4091 1071.98 98.6212 1068.43 97.0455C1064.92 95.4394 1062.13 93.0758 1060.07 89.9545C1058.04 86.8333 1057.02 82.9848 1057.02 78.4091C1057.02 74.4697 1057.75 71.2121 1059.21 68.6364C1060.66 66.0606 1062.65 64 1065.16 62.4545C1067.68 60.9091 1070.51 59.7424 1073.66 58.9545C1076.84 58.1364 1080.13 57.5455 1083.52 57.1818C1087.62 56.7576 1090.93 56.3788 1093.48 56.0455C1096.02 55.6818 1097.87 55.1364 1099.02 54.4091C1100.21 53.6515 1100.8 52.4848 1100.8 50.9091V50.6364C1100.8 47.2121 1099.78 44.5606 1097.75 42.6818C1095.72 40.803 1092.8 39.8636 1088.98 39.8636C1084.95 39.8636 1081.75 40.7424 1079.39 42.5C1077.05 44.2576 1075.48 46.3333 1074.66 48.7273L1059.3 46.5455C1060.51 42.303 1062.51 38.7576 1065.3 35.9091C1068.08 33.0303 1071.49 30.8788 1075.52 29.4545C1079.55 28 1084.01 27.2727 1088.89 27.2727C1092.25 27.2727 1095.6 27.6667 1098.93 28.4545C1102.27 29.2424 1105.31 30.5455 1108.07 32.3636C1110.83 34.1515 1113.04 36.5909 1114.71 39.6818C1116.4 42.7727 1117.25 46.6364 1117.25 51.2727V98H1101.43V88.4091H1100.89C1099.89 90.3485 1098.48 92.1667 1096.66 93.8636C1094.87 95.5303 1092.62 96.8788 1089.89 97.9091C1087.19 98.9091 1084.02 99.4091 1080.39 99.4091ZM1084.66 87.3182C1087.96 87.3182 1090.83 86.6667 1093.25 85.3636C1095.68 84.0303 1097.54 82.2727 1098.84 80.0909C1100.18 77.9091 1100.84 75.5303 1100.84 72.9545V64.7273C1100.33 65.1515 1099.45 65.5455 1098.21 65.9091C1096.99 66.2727 1095.63 66.5909 1094.12 66.8636C1092.6 67.1364 1091.1 67.3788 1089.62 67.5909C1088.13 67.803 1086.84 67.9848 1085.75 68.1364C1083.3 68.4697 1081.1 69.0152 1079.16 69.7727C1077.22 70.5303 1075.69 71.5909 1074.57 72.9545C1073.45 74.2879 1072.89 76.0152 1072.89 78.1364C1072.89 81.1667 1073.99 83.4545 1076.21 85C1078.42 86.5455 1081.24 87.3182 1084.66 87.3182ZM1183.86 46.6364L1168.86 48.2727C1168.43 46.7576 1167.69 45.3333 1166.63 44C1165.6 42.6667 1164.21 41.5909 1162.45 40.7727C1160.69 39.9545 1158.54 39.5455 1156 39.5455C1152.57 39.5455 1149.69 40.2879 1147.36 41.7727C1145.06 43.2576 1143.92 45.1818 1143.95 47.5455C1143.92 49.5758 1144.66 51.2273 1146.18 52.5C1147.72 53.7727 1150.27 54.8182 1153.81 55.6364L1165.72 58.1818C1172.33 59.6061 1177.24 61.8636 1180.45 64.9545C1183.69 68.0455 1185.33 72.0909 1185.36 77.0909C1185.33 81.4848 1184.04 85.3636 1181.5 88.7273C1178.98 92.0606 1175.48 94.6667 1171 96.5455C1166.51 98.4242 1161.36 99.3636 1155.54 99.3636C1147 99.3636 1140.12 97.5758 1134.9 94C1129.69 90.3939 1126.59 85.3788 1125.59 78.9545L1141.63 77.4091C1142.36 80.5606 1143.9 82.9394 1146.27 84.5455C1148.63 86.1515 1151.71 86.9545 1155.5 86.9545C1159.4 86.9545 1162.54 86.1515 1164.9 84.5455C1167.3 82.9394 1168.5 80.9545 1168.5 78.5909C1168.5 76.5909 1167.72 74.9394 1166.18 73.6364C1164.66 72.3333 1162.3 71.3333 1159.09 70.6364L1147.18 68.1364C1140.48 66.7424 1135.53 64.3939 1132.31 61.0909C1129.1 57.7576 1127.51 53.5455 1127.54 48.4545C1127.51 44.1515 1128.68 40.4242 1131.04 37.2727C1133.43 34.0909 1136.75 31.6364 1141 29.9091C1145.27 28.1515 1150.19 27.2727 1155.77 27.2727C1163.95 27.2727 1170.39 29.0152 1175.09 32.5C1179.81 35.9848 1182.74 40.697 1183.86 46.6364ZM1220.44 98V28.1818H1236.89V98H1220.44ZM1228.71 18.2727C1226.1 18.2727 1223.86 17.4091 1221.98 15.6818C1220.1 13.9242 1219.16 11.8182 1219.16 9.36363C1219.16 6.87878 1220.1 4.77272 1221.98 3.04545C1223.86 1.28787 1226.1 0.409088 1228.71 0.409088C1231.35 0.409088 1233.59 1.28787 1235.44 3.04545C1237.32 4.77272 1238.26 6.87878 1238.26 9.36363C1238.26 11.8182 1237.32 13.9242 1235.44 15.6818C1233.59 17.4091 1231.35 18.2727 1228.71 18.2727ZM1265.15 57.0909V98H1248.69V28.1818H1264.42V40.0455H1265.24C1266.84 36.1364 1269.4 33.0303 1272.92 30.7273C1276.46 28.4242 1280.84 27.2727 1286.06 27.2727C1290.87 27.2727 1295.07 28.303 1298.65 30.3636C1302.25 32.4242 1305.04 35.4091 1307.01 39.3182C1309.01 43.2273 1310 47.9697 1309.96 53.5455V98H1293.51V56.0909C1293.51 51.4242 1292.3 47.7727 1289.87 45.1364C1287.48 42.5 1284.16 41.1818 1279.92 41.1818C1277.04 41.1818 1274.48 41.8182 1272.24 43.0909C1270.03 44.3333 1268.28 46.1364 1267.01 48.5C1265.77 50.8636 1265.15 53.7273 1265.15 57.0909ZM1356.44 28.1818V40.9091H1316.3V28.1818H1356.44ZM1326.21 11.4545H1342.66V77C1342.66 79.2121 1343 80.9091 1343.66 82.0909C1344.36 83.2424 1345.27 84.0303 1346.39 84.4545C1347.51 84.8788 1348.75 85.0909 1350.12 85.0909C1351.15 85.0909 1352.09 85.0152 1352.94 84.8636C1353.81 84.7121 1354.48 84.5758 1354.94 84.4545L1357.71 97.3182C1356.83 97.6212 1355.57 97.9545 1353.94 98.3182C1352.33 98.6818 1350.36 98.8939 1348.03 98.9545C1343.91 99.0758 1340.19 98.4545 1336.89 97.0909C1333.59 95.697 1330.97 93.5455 1329.03 90.6364C1327.12 87.7273 1326.18 84.0909 1326.21 79.7273V11.4545ZM1394.78 99.3636C1387.96 99.3636 1382.05 97.8636 1377.05 94.8636C1372.05 91.8636 1368.18 87.6667 1365.42 82.2727C1362.69 76.8788 1361.33 70.5758 1361.33 63.3636C1361.33 56.1515 1362.69 49.8333 1365.42 44.4091C1368.18 38.9848 1372.05 34.7727 1377.05 31.7727C1382.05 28.7727 1387.96 27.2727 1394.78 27.2727C1401.6 27.2727 1407.51 28.7727 1412.51 31.7727C1417.51 34.7727 1421.37 38.9848 1424.1 44.4091C1426.86 49.8333 1428.24 56.1515 1428.24 63.3636C1428.24 70.5758 1426.86 76.8788 1424.1 82.2727C1421.37 87.6667 1417.51 91.8636 1412.51 94.8636C1407.51 97.8636 1401.6 99.3636 1394.78 99.3636ZM1394.87 86.1818C1398.57 86.1818 1401.66 85.1667 1404.15 83.1364C1406.63 81.0758 1408.48 78.3182 1409.69 74.8636C1410.93 71.4091 1411.55 67.5606 1411.55 63.3182C1411.55 59.0455 1410.93 55.1818 1409.69 51.7273C1408.48 48.2424 1406.63 45.4697 1404.15 43.4091C1401.66 41.3485 1398.57 40.3182 1394.87 40.3182C1391.08 40.3182 1387.93 41.3485 1385.42 43.4091C1382.93 45.4697 1381.07 48.2424 1379.83 51.7273C1378.61 55.1818 1378.01 59.0455 1378.01 63.3182C1378.01 67.5606 1378.61 71.4091 1379.83 74.8636C1381.07 78.3182 1382.93 81.0758 1385.42 83.1364C1387.93 85.1667 1391.08 86.1818 1394.87 86.1818ZM19.0568 278V184.909H53.9659C61.1174 184.909 67.1174 186.242 71.9659 188.909C76.8447 191.576 80.5265 195.242 83.0114 199.909C85.5265 204.545 86.7841 209.818 86.7841 215.727C86.7841 221.697 85.5265 227 83.0114 231.636C80.4962 236.273 76.7841 239.924 71.875 242.591C66.9659 245.227 60.9205 246.545 53.7386 246.545H30.6023V232.682H51.4659C55.6477 232.682 59.072 231.955 61.7386 230.5C64.4053 229.045 66.375 227.045 67.6477 224.5C68.9508 221.955 69.6023 219.03 69.6023 215.727C69.6023 212.424 68.9508 209.515 67.6477 207C66.375 204.485 64.3902 202.53 61.6932 201.136C59.0265 199.712 55.5871 199 51.375 199H35.9205V278H19.0568ZM125.039 279.364C118.221 279.364 112.312 277.864 107.312 274.864C102.312 271.864 98.433 267.667 95.6755 262.273C92.9482 256.879 91.5845 250.576 91.5845 243.364C91.5845 236.152 92.9482 229.833 95.6755 224.409C98.433 218.985 102.312 214.773 107.312 211.773C112.312 208.773 118.221 207.273 125.039 207.273C131.857 207.273 137.766 208.773 142.766 211.773C147.766 214.773 151.63 218.985 154.357 224.409C157.115 229.833 158.494 236.152 158.494 243.364C158.494 250.576 157.115 256.879 154.357 262.273C151.63 267.667 147.766 271.864 142.766 274.864C137.766 277.864 131.857 279.364 125.039 279.364ZM125.13 266.182C128.827 266.182 131.918 265.167 134.403 263.136C136.888 261.076 138.736 258.318 139.948 254.864C141.191 251.409 141.812 247.561 141.812 243.318C141.812 239.045 141.191 235.182 139.948 231.727C138.736 228.242 136.888 225.47 134.403 223.409C131.918 221.348 128.827 220.318 125.13 220.318C121.342 220.318 118.191 221.348 115.675 223.409C113.191 225.47 111.327 228.242 110.085 231.727C108.872 235.182 108.266 239.045 108.266 243.318C108.266 247.561 108.872 251.409 110.085 254.864C111.327 258.318 113.191 261.076 115.675 263.136C118.191 265.167 121.342 266.182 125.13 266.182ZM179.749 278L160.021 208.182H176.794L189.067 257.273H189.703L202.249 208.182H218.84L231.385 257H232.067L244.158 208.182H260.976L241.203 278H224.067L210.976 230.818H210.021L196.93 278H179.749ZM296.254 279.364C289.254 279.364 283.208 277.909 278.117 275C273.057 272.061 269.163 267.909 266.435 262.545C263.708 257.152 262.345 250.803 262.345 243.5C262.345 236.318 263.708 230.015 266.435 224.591C269.193 219.136 273.042 214.894 277.981 211.864C282.92 208.803 288.723 207.273 295.39 207.273C299.693 207.273 303.754 207.97 307.572 209.364C311.42 210.727 314.814 212.848 317.754 215.727C320.723 218.606 323.057 222.273 324.754 226.727C326.451 231.152 327.299 236.424 327.299 242.545V247.591H270.072V236.5H311.526C311.496 233.348 310.814 230.545 309.481 228.091C308.148 225.606 306.284 223.652 303.89 222.227C301.526 220.803 298.769 220.091 295.617 220.091C292.254 220.091 289.299 220.909 286.754 222.545C284.208 224.152 282.223 226.273 280.799 228.909C279.405 231.515 278.693 234.379 278.663 237.5V247.182C278.663 251.242 279.405 254.727 280.89 257.636C282.375 260.515 284.451 262.727 287.117 264.273C289.784 265.788 292.905 266.545 296.481 266.545C298.875 266.545 301.042 266.212 302.981 265.545C304.92 264.848 306.602 263.833 308.026 262.5C309.451 261.167 310.526 259.515 311.254 257.545L326.617 259.273C325.648 263.333 323.799 266.879 321.072 269.909C318.375 272.909 314.92 275.242 310.708 276.909C306.496 278.545 301.678 279.364 296.254 279.364ZM336.1 278V208.182H352.054V219.818H352.781C354.054 215.788 356.236 212.682 359.327 210.5C362.448 208.288 366.009 207.182 370.009 207.182C370.918 207.182 371.933 207.227 373.054 207.318C374.206 207.379 375.16 207.485 375.918 207.636V222.773C375.221 222.53 374.115 222.318 372.6 222.136C371.115 221.924 369.675 221.818 368.281 221.818C365.281 221.818 362.584 222.47 360.19 223.773C357.827 225.045 355.963 226.818 354.6 229.091C353.236 231.364 352.554 233.985 352.554 236.955V278H336.1ZM420.843 208.182V220.909H379.57V208.182H420.843ZM389.889 278V201.591C389.889 196.894 390.858 192.985 392.798 189.864C394.767 186.742 397.404 184.409 400.707 182.864C404.01 181.318 407.677 180.545 411.707 180.545C414.555 180.545 417.086 180.773 419.298 181.227C421.51 181.682 423.146 182.091 424.207 182.455L420.934 195.182C420.237 194.97 419.358 194.758 418.298 194.545C417.237 194.303 416.055 194.182 414.752 194.182C411.692 194.182 409.525 194.924 408.252 196.409C407.01 197.864 406.389 199.955 406.389 202.682V278H389.889ZM473.11 248.636V208.182H489.564V278H473.61V265.591H472.882C471.307 269.5 468.716 272.697 465.11 275.182C461.534 277.667 457.125 278.909 451.882 278.909C447.307 278.909 443.261 277.894 439.746 275.864C436.261 273.803 433.534 270.818 431.564 266.909C429.594 262.97 428.61 258.212 428.61 252.636V208.182H445.064V250.091C445.064 254.515 446.276 258.03 448.7 260.636C451.125 263.242 454.307 264.545 458.246 264.545C460.67 264.545 463.019 263.955 465.291 262.773C467.564 261.591 469.428 259.833 470.882 257.5C472.367 255.136 473.11 252.182 473.11 248.636ZM517.819 184.909V278H501.365V184.909H517.819ZM588.522 278H556.977V184.909H589.159C598.401 184.909 606.34 186.773 612.977 190.5C619.643 194.197 624.765 199.515 628.34 206.455C631.916 213.394 633.704 221.697 633.704 231.364C633.704 241.061 631.901 249.394 628.295 256.364C624.719 263.333 619.553 268.682 612.795 272.409C606.068 276.136 597.977 278 588.522 278ZM573.84 263.409H587.704C594.189 263.409 599.598 262.227 603.931 259.864C608.265 257.47 611.522 253.909 613.704 249.182C615.886 244.424 616.977 238.485 616.977 231.364C616.977 224.242 615.886 218.333 613.704 213.636C611.522 208.909 608.295 205.379 604.022 203.045C599.78 200.682 594.507 199.5 588.204 199.5H573.84V263.409ZM643.88 278V208.182H660.334V278H643.88ZM652.152 198.273C649.546 198.273 647.304 197.409 645.425 195.682C643.546 193.924 642.607 191.818 642.607 189.364C642.607 186.879 643.546 184.773 645.425 183.045C647.304 181.288 649.546 180.409 652.152 180.409C654.789 180.409 657.031 181.288 658.88 183.045C660.758 184.773 661.698 186.879 661.698 189.364C661.698 191.818 660.758 193.924 658.88 195.682C657.031 197.409 654.789 198.273 652.152 198.273ZM702.498 305.636C696.589 305.636 691.513 304.833 687.271 303.227C683.028 301.652 679.619 299.53 677.044 296.864C674.468 294.197 672.68 291.242 671.68 288L686.498 284.409C687.165 285.773 688.135 287.121 689.407 288.455C690.68 289.818 692.392 290.939 694.544 291.818C696.725 292.727 699.468 293.182 702.771 293.182C707.438 293.182 711.301 292.045 714.362 289.773C717.422 287.53 718.953 283.833 718.953 278.682V265.455H718.135C717.286 267.152 716.044 268.894 714.407 270.682C712.801 272.47 710.665 273.97 707.998 275.182C705.362 276.394 702.044 277 698.044 277C692.68 277 687.816 275.742 683.453 273.227C679.119 270.682 675.665 266.894 673.089 261.864C670.544 256.803 669.271 250.47 669.271 242.864C669.271 235.197 670.544 228.727 673.089 223.455C675.665 218.152 679.135 214.136 683.498 211.409C687.862 208.652 692.725 207.273 698.089 207.273C702.18 207.273 705.544 207.97 708.18 209.364C710.847 210.727 712.968 212.379 714.544 214.318C716.119 216.227 717.316 218.03 718.135 219.727H719.044V208.182H735.271V279.136C735.271 285.106 733.847 290.045 730.998 293.955C728.15 297.864 724.256 300.788 719.316 302.727C714.377 304.667 708.771 305.636 702.498 305.636ZM702.635 264.091C706.119 264.091 709.089 263.242 711.544 261.545C713.998 259.848 715.862 257.409 717.135 254.227C718.407 251.045 719.044 247.227 719.044 242.773C719.044 238.379 718.407 234.53 717.135 231.227C715.892 227.924 714.044 225.364 711.589 223.545C709.165 221.697 706.18 220.773 702.635 220.773C698.968 220.773 695.907 221.727 693.453 223.636C690.998 225.545 689.15 228.167 687.907 231.5C686.665 234.803 686.044 238.561 686.044 242.773C686.044 247.045 686.665 250.788 687.907 254C689.18 257.182 691.044 259.667 693.498 261.455C695.983 263.212 699.028 264.091 702.635 264.091ZM747.015 278V208.182H763.469V278H747.015ZM755.287 198.273C752.681 198.273 750.439 197.409 748.56 195.682C746.681 193.924 745.742 191.818 745.742 189.364C745.742 186.879 746.681 184.773 748.56 183.045C750.439 181.288 752.681 180.409 755.287 180.409C757.924 180.409 760.166 181.288 762.015 183.045C763.893 184.773 764.833 186.879 764.833 189.364C764.833 191.818 763.893 193.924 762.015 195.682C760.166 197.409 757.924 198.273 755.287 198.273ZM810.133 208.182V220.909H769.997V208.182H810.133ZM779.906 191.455H796.36V257C796.36 259.212 796.694 260.909 797.36 262.091C798.057 263.242 798.967 264.03 800.088 264.455C801.209 264.879 802.451 265.091 803.815 265.091C804.845 265.091 805.785 265.015 806.633 264.864C807.512 264.712 808.179 264.576 808.633 264.455L811.406 277.318C810.527 277.621 809.27 277.955 807.633 278.318C806.027 278.682 804.057 278.894 801.724 278.955C797.603 279.076 793.891 278.455 790.588 277.091C787.285 275.697 784.663 273.545 782.724 270.636C780.815 267.727 779.876 264.091 779.906 259.727V191.455ZM838.865 279.409C834.441 279.409 830.456 278.621 826.911 277.045C823.396 275.439 820.608 273.076 818.547 269.955C816.517 266.833 815.502 262.985 815.502 258.409C815.502 254.47 816.229 251.212 817.684 248.636C819.138 246.061 821.123 244 823.638 242.455C826.153 240.909 828.987 239.742 832.138 238.955C835.32 238.136 838.608 237.545 842.002 237.182C846.093 236.758 849.411 236.379 851.956 236.045C854.502 235.682 856.35 235.136 857.502 234.409C858.684 233.652 859.275 232.485 859.275 230.909V230.636C859.275 227.212 858.259 224.561 856.229 222.682C854.199 220.803 851.275 219.864 847.456 219.864C843.426 219.864 840.229 220.742 837.865 222.5C835.532 224.258 833.956 226.333 833.138 228.727L817.775 226.545C818.987 222.303 820.987 218.758 823.775 215.909C826.562 213.03 829.972 210.879 834.002 209.455C838.032 208 842.487 207.273 847.365 207.273C850.729 207.273 854.078 207.667 857.411 208.455C860.744 209.242 863.79 210.545 866.547 212.364C869.305 214.152 871.517 216.591 873.184 219.682C874.881 222.773 875.729 226.636 875.729 231.273V278H859.911V268.409H859.365C858.365 270.348 856.956 272.167 855.138 273.864C853.35 275.53 851.093 276.879 848.365 277.909C845.668 278.909 842.502 279.409 838.865 279.409ZM843.138 267.318C846.441 267.318 849.305 266.667 851.729 265.364C854.153 264.03 856.017 262.273 857.32 260.091C858.653 257.909 859.32 255.53 859.32 252.955V244.727C858.805 245.152 857.926 245.545 856.684 245.909C855.472 246.273 854.108 246.591 852.593 246.864C851.078 247.136 849.578 247.379 848.093 247.591C846.608 247.803 845.32 247.985 844.229 248.136C841.775 248.47 839.578 249.015 837.638 249.773C835.699 250.53 834.168 251.591 833.047 252.955C831.926 254.288 831.365 256.015 831.365 258.136C831.365 261.167 832.472 263.455 834.684 265C836.896 266.545 839.714 267.318 843.138 267.318ZM903.609 184.909V278H887.155V184.909H903.609ZM942.767 278V184.909H977.676C984.827 184.909 990.827 186.152 995.676 188.636C1000.55 191.121 1004.24 194.606 1006.72 199.091C1009.24 203.545 1010.49 208.742 1010.49 214.682C1010.49 220.652 1009.22 225.833 1006.68 230.227C1004.16 234.591 1000.45 237.97 995.54 240.364C990.63 242.727 984.6 243.909 977.449 243.909H952.585V229.909H975.176C979.358 229.909 982.782 229.333 985.449 228.182C988.115 227 990.085 225.288 991.358 223.045C992.661 220.773 993.312 217.985 993.312 214.682C993.312 211.379 992.661 208.561 991.358 206.227C990.055 203.864 988.07 202.076 985.403 200.864C982.737 199.621 979.297 199 975.085 199H959.63V278H942.767ZM990.858 235.818L1013.9 278H995.085L972.449 235.818H990.858ZM1050.08 279.364C1043.08 279.364 1037.03 277.909 1031.94 275C1026.88 272.061 1022.99 267.909 1020.26 262.545C1017.53 257.152 1016.17 250.803 1016.17 243.5C1016.17 236.318 1017.53 230.015 1020.26 224.591C1023.02 219.136 1026.87 214.894 1031.81 211.864C1036.75 208.803 1042.55 207.273 1049.22 207.273C1053.52 207.273 1057.58 207.97 1061.4 209.364C1065.25 210.727 1068.64 212.848 1071.58 215.727C1074.55 218.606 1076.88 222.273 1078.58 226.727C1080.28 231.152 1081.12 236.424 1081.12 242.545V247.591H1023.9V236.5H1065.35C1065.32 233.348 1064.64 230.545 1063.31 228.091C1061.97 225.606 1060.11 223.652 1057.72 222.227C1055.35 220.803 1052.59 220.091 1049.44 220.091C1046.08 220.091 1043.12 220.909 1040.58 222.545C1038.03 224.152 1036.05 226.273 1034.62 228.909C1033.23 231.515 1032.52 234.379 1032.49 237.5V247.182C1032.49 251.242 1033.23 254.727 1034.72 257.636C1036.2 260.515 1038.28 262.727 1040.94 264.273C1043.61 265.788 1046.73 266.545 1050.31 266.545C1052.7 266.545 1054.87 266.212 1056.81 265.545C1058.75 264.848 1060.43 263.833 1061.85 262.5C1063.28 261.167 1064.35 259.515 1065.08 257.545L1080.44 259.273C1079.47 263.333 1077.62 266.879 1074.9 269.909C1072.2 272.909 1068.75 275.242 1064.53 276.909C1060.32 278.545 1055.5 279.364 1050.08 279.364ZM1110.02 279.409C1105.59 279.409 1101.61 278.621 1098.06 277.045C1094.55 275.439 1091.76 273.076 1089.7 269.955C1087.67 266.833 1086.65 262.985 1086.65 258.409C1086.65 254.47 1087.38 251.212 1088.83 248.636C1090.29 246.061 1092.27 244 1094.79 242.455C1097.3 240.909 1100.14 239.742 1103.29 238.955C1106.47 238.136 1109.76 237.545 1113.15 237.182C1117.24 236.758 1120.56 236.379 1123.11 236.045C1125.65 235.682 1127.5 235.136 1128.65 234.409C1129.83 233.652 1130.42 232.485 1130.42 230.909V230.636C1130.42 227.212 1129.41 224.561 1127.38 222.682C1125.35 220.803 1122.42 219.864 1118.61 219.864C1114.58 219.864 1111.38 220.742 1109.02 222.5C1106.68 224.258 1105.11 226.333 1104.29 228.727L1088.92 226.545C1090.14 222.303 1092.14 218.758 1094.92 215.909C1097.71 213.03 1101.12 210.879 1105.15 209.455C1109.18 208 1113.64 207.273 1118.52 207.273C1121.88 207.273 1125.23 207.667 1128.56 208.455C1131.89 209.242 1134.94 210.545 1137.7 212.364C1140.45 214.152 1142.67 216.591 1144.33 219.682C1146.03 222.773 1146.88 226.636 1146.88 231.273V278H1131.06V268.409H1130.52C1129.52 270.348 1128.11 272.167 1126.29 273.864C1124.5 275.53 1122.24 276.879 1119.52 277.909C1116.82 278.909 1113.65 279.409 1110.02 279.409ZM1114.29 267.318C1117.59 267.318 1120.45 266.667 1122.88 265.364C1125.3 264.03 1127.17 262.273 1128.47 260.091C1129.8 257.909 1130.47 255.53 1130.47 252.955V244.727C1129.95 245.152 1129.08 245.545 1127.83 245.909C1126.62 246.273 1125.26 246.591 1123.74 246.864C1122.23 247.136 1120.73 247.379 1119.24 247.591C1117.76 247.803 1116.47 247.985 1115.38 248.136C1112.92 248.47 1110.73 249.015 1108.79 249.773C1106.85 250.53 1105.32 251.591 1104.2 252.955C1103.08 254.288 1102.52 256.015 1102.52 258.136C1102.52 261.167 1103.62 263.455 1105.83 265C1108.05 266.545 1110.86 267.318 1114.29 267.318ZM1174.76 184.909V278H1158.3V184.909H1174.76ZM1186.56 278V208.182H1203.01V278H1186.56ZM1194.83 198.273C1192.23 198.273 1189.98 197.409 1188.1 195.682C1186.23 193.924 1185.29 191.818 1185.29 189.364C1185.29 186.879 1186.23 184.773 1188.1 183.045C1189.98 181.288 1192.23 180.409 1194.83 180.409C1197.47 180.409 1199.71 181.288 1201.56 183.045C1203.44 184.773 1204.38 186.879 1204.38 189.364C1204.38 191.818 1203.44 193.924 1201.56 195.682C1199.71 197.409 1197.47 198.273 1194.83 198.273ZM1249.68 208.182V220.909H1209.54V208.182H1249.68ZM1219.45 191.455H1235.91V257C1235.91 259.212 1236.24 260.909 1236.91 262.091C1237.6 263.242 1238.51 264.03 1239.63 264.455C1240.75 264.879 1242 265.091 1243.36 265.091C1244.39 265.091 1245.33 265.015 1246.18 264.864C1247.06 264.712 1247.72 264.576 1248.18 264.455L1250.95 277.318C1250.07 277.621 1248.81 277.955 1247.18 278.318C1245.57 278.682 1243.6 278.894 1241.27 278.955C1237.15 279.076 1233.44 278.455 1230.13 277.091C1226.83 275.697 1224.21 273.545 1222.27 270.636C1220.36 267.727 1219.42 264.091 1219.45 259.727V191.455ZM1258.32 278V208.182H1274.77V278H1258.32ZM1266.59 198.273C1263.99 198.273 1261.74 197.409 1259.86 195.682C1257.99 193.924 1257.05 191.818 1257.05 189.364C1257.05 186.879 1257.99 184.773 1259.86 183.045C1261.74 181.288 1263.99 180.409 1266.59 180.409C1269.23 180.409 1271.47 181.288 1273.32 183.045C1275.2 184.773 1276.14 186.879 1276.14 189.364C1276.14 191.818 1275.2 193.924 1273.32 195.682C1271.47 197.409 1269.23 198.273 1266.59 198.273ZM1317.48 279.364C1310.48 279.364 1304.44 277.909 1299.35 275C1294.29 272.061 1290.39 267.909 1287.67 262.545C1284.94 257.152 1283.57 250.803 1283.57 243.5C1283.57 236.318 1284.94 230.015 1287.67 224.591C1290.42 219.136 1294.27 214.894 1299.21 211.864C1304.15 208.803 1309.95 207.273 1316.62 207.273C1320.92 207.273 1324.98 207.97 1328.8 209.364C1332.65 210.727 1336.04 212.848 1338.98 215.727C1341.95 218.606 1344.29 222.273 1345.98 226.727C1347.68 231.152 1348.53 236.424 1348.53 242.545V247.591H1291.3V236.5H1332.76C1332.73 233.348 1332.04 230.545 1330.71 228.091C1329.38 225.606 1327.51 223.652 1325.12 222.227C1322.76 220.803 1320 220.091 1316.85 220.091C1313.48 220.091 1310.53 220.909 1307.98 222.545C1305.44 224.152 1303.45 226.273 1302.03 228.909C1300.64 231.515 1299.92 234.379 1299.89 237.5V247.182C1299.89 251.242 1300.64 254.727 1302.12 257.636C1303.6 260.515 1305.68 262.727 1308.35 264.273C1311.01 265.788 1314.14 266.545 1317.71 266.545C1320.1 266.545 1322.27 266.212 1324.21 265.545C1326.15 264.848 1327.83 263.833 1329.26 262.5C1330.68 261.167 1331.76 259.515 1332.48 257.545L1347.85 259.273C1346.88 263.333 1345.03 266.879 1342.3 269.909C1339.6 272.909 1336.15 275.242 1331.94 276.909C1327.73 278.545 1322.91 279.364 1317.48 279.364ZM1412.51 226.636L1397.51 228.273C1397.09 226.758 1396.34 225.333 1395.28 224C1394.25 222.667 1392.86 221.591 1391.1 220.773C1389.34 219.955 1387.19 219.545 1384.65 219.545C1381.22 219.545 1378.34 220.288 1376.01 221.773C1373.71 223.258 1372.57 225.182 1372.6 227.545C1372.57 229.576 1373.31 231.227 1374.83 232.5C1376.38 233.773 1378.92 234.818 1382.47 235.636L1394.38 238.182C1400.98 239.606 1405.89 241.864 1409.1 244.955C1412.34 248.045 1413.98 252.091 1414.01 257.091C1413.98 261.485 1412.69 265.364 1410.15 268.727C1407.63 272.061 1404.13 274.667 1399.65 276.545C1395.16 278.424 1390.01 279.364 1384.19 279.364C1375.65 279.364 1368.77 277.576 1363.56 274C1358.34 270.394 1355.24 265.379 1354.24 258.955L1370.28 257.409C1371.01 260.561 1372.56 262.939 1374.92 264.545C1377.28 266.152 1380.36 266.955 1384.15 266.955C1388.06 266.955 1391.19 266.152 1393.56 264.545C1395.95 262.939 1397.15 260.955 1397.15 258.591C1397.15 256.591 1396.38 254.939 1394.83 253.636C1393.31 252.333 1390.95 251.333 1387.74 250.636L1375.83 248.136C1369.13 246.742 1364.18 244.394 1360.97 241.091C1357.75 237.758 1356.16 233.545 1356.19 228.455C1356.16 224.152 1357.33 220.424 1359.69 217.273C1362.09 214.091 1365.41 211.636 1369.65 209.909C1373.92 208.152 1378.84 207.273 1384.42 207.273C1392.6 207.273 1399.04 209.015 1403.74 212.5C1408.47 215.985 1411.39 220.697 1412.51 226.636Z" fill="#111111"/>
</svg>
