<svg width="708" height="306" viewBox="0 0 708 306" fill="none" xmlns="http://www.w3.org/2000/svg">
<path d="M-359.657 19.0455V4.90909H-285.384V19.0455H-314.157V98H-330.884V19.0455H-359.657ZM-241.913 68.6364V28.1818H-225.458V98H-241.413V85.5909H-242.14C-243.716 89.5 -246.307 92.697 -249.913 95.1818C-253.489 97.6667 -257.898 98.9091 -263.14 98.9091C-267.716 98.9091 -271.761 97.8939 -275.277 95.8636C-278.761 93.803 -281.489 90.8182 -283.458 86.9091C-285.428 82.9697 -286.413 78.2121 -286.413 72.6364V28.1818H-269.958V70.0909C-269.958 74.5152 -268.746 78.0303 -266.322 80.6364C-263.898 83.2424 -260.716 84.5455 -256.777 84.5455C-254.352 84.5455 -252.004 83.9545 -249.731 82.7727C-247.458 81.5909 -245.595 79.8333 -244.14 77.5C-242.655 75.1364 -241.913 72.1818 -241.913 68.6364ZM-213.658 98V28.1818H-197.703V39.8182H-196.976C-195.703 35.7879 -193.522 32.6818 -190.431 30.5C-187.309 28.2879 -183.749 27.1818 -179.749 27.1818C-178.84 27.1818 -177.825 27.2273 -176.703 27.3182C-175.552 27.3788 -174.597 27.4848 -173.84 27.6364V42.7727C-174.537 42.5303 -175.643 42.3182 -177.158 42.1364C-178.643 41.9242 -180.082 41.8182 -181.476 41.8182C-184.476 41.8182 -187.173 42.4697 -189.567 43.7727C-191.931 45.0455 -193.794 46.8182 -195.158 49.0909C-196.522 51.3636 -197.203 53.9848 -197.203 56.9545V98H-213.658ZM-151.573 57.0909V98H-168.028V28.1818H-152.301V40.0455H-151.482C-149.876 36.1364 -147.316 33.0303 -143.801 30.7273C-140.255 28.4242 -135.876 27.2727 -130.664 27.2727C-125.846 27.2727 -121.649 28.303 -118.073 30.3636C-114.467 32.4242 -111.679 35.4091 -109.71 39.3182C-107.71 43.2273 -106.725 47.9697 -106.755 53.5455V98H-123.21V56.0909C-123.21 51.4242 -124.422 47.7727 -126.846 45.1364C-129.24 42.5 -132.558 41.1818 -136.801 41.1818C-139.679 41.1818 -142.24 41.8182 -144.482 43.0909C-146.695 44.3333 -148.437 46.1364 -149.71 48.5C-150.952 50.8636 -151.573 53.7273 -151.573 57.0909ZM-95.148 98V28.1818H-78.6934V98H-95.148ZM-86.8752 18.2727C-89.4813 18.2727 -91.7237 17.4091 -93.6025 15.6818C-95.4813 13.9242 -96.4207 11.8182 -96.4207 9.36363C-96.4207 6.87878 -95.4813 4.77272 -93.6025 3.04545C-91.7237 1.28787 -89.4813 0.409088 -86.8752 0.409088C-84.2389 0.409088 -81.9964 1.28787 -80.148 3.04545C-78.2692 4.77272 -77.3298 6.87878 -77.3298 9.36363C-77.3298 11.8182 -78.2692 13.9242 -80.148 15.6818C-81.9964 17.4091 -84.2389 18.2727 -86.8752 18.2727ZM-50.4384 57.0909V98H-66.893V28.1818H-51.1657V40.0455H-50.3475C-48.7414 36.1364 -46.1808 33.0303 -42.6657 30.7273C-39.1202 28.4242 -34.7414 27.2727 -29.5293 27.2727C-24.7111 27.2727 -20.5142 28.303 -16.9384 30.3636C-13.3324 32.4242 -10.5445 35.4091 -8.57478 39.3182C-6.57478 43.2273 -5.58993 47.9697 -5.62023 53.5455V98H-22.0748V56.0909C-22.0748 51.4242 -23.2869 47.7727 -25.7111 45.1364C-28.1051 42.5 -31.4233 41.1818 -35.6657 41.1818C-38.5445 41.1818 -41.1051 41.8182 -43.3475 43.0909C-45.5596 44.3333 -47.302 46.1364 -48.5748 48.5C-49.8172 50.8636 -50.4384 53.7273 -50.4384 57.0909ZM36.3507 125.636C30.4416 125.636 25.3658 124.833 21.1234 123.227C16.881 121.652 13.4719 119.53 10.8961 116.864C8.32038 114.197 6.5325 111.242 5.5325 108L20.3507 104.409C21.0173 105.773 21.987 107.121 23.2598 108.455C24.5325 109.818 26.2446 110.939 28.3961 111.818C30.578 112.727 33.3204 113.182 36.6234 113.182C41.2901 113.182 45.1537 112.045 48.2143 109.773C51.2749 107.53 52.8052 103.833 52.8052 98.6818V85.4545H51.987C51.1386 87.1515 49.8961 88.8939 48.2598 90.6818C46.6537 92.4697 44.5174 93.9697 41.8507 95.1818C39.2143 96.3939 35.8961 97 31.8961 97C26.5325 97 21.6689 95.7424 17.3052 93.2273C12.9719 90.6818 9.51735 86.8939 6.94159 81.8636C4.39614 76.803 3.12341 70.4697 3.12341 62.8636C3.12341 55.197 4.39614 48.7273 6.94159 43.4545C9.51735 38.1515 12.987 34.1364 17.3507 31.4091C21.7143 28.6515 26.578 27.2727 31.9416 27.2727C36.0325 27.2727 39.3961 27.9697 42.0325 29.3636C44.6992 30.7273 46.8204 32.3788 48.3961 34.3182C49.9719 36.2273 51.1689 38.0303 51.987 39.7273H52.8961V28.1818H69.1234V99.1364C69.1234 105.106 67.6992 110.045 64.8507 113.955C62.0022 117.864 58.1083 120.788 53.1689 122.727C48.2295 124.667 42.6234 125.636 36.3507 125.636ZM36.487 84.0909C39.9719 84.0909 42.9416 83.2424 45.3961 81.5455C47.8507 79.8485 49.7143 77.4091 50.987 74.2273C52.2598 71.0455 52.8961 67.2273 52.8961 62.7727C52.8961 58.3788 52.2598 54.5303 50.987 51.2273C49.7446 47.9242 47.8961 45.3636 45.4416 43.5455C43.0174 41.697 40.0325 40.7727 36.487 40.7727C32.8204 40.7727 29.7598 41.7273 27.3052 43.6364C24.8507 45.5455 23.0022 48.1667 21.7598 51.5C20.5174 54.803 19.8961 58.5606 19.8961 62.7727C19.8961 67.0455 20.5174 70.7879 21.7598 74C23.0325 77.1818 24.8961 79.6667 27.3507 81.4545C29.8355 83.2121 32.881 84.0909 36.487 84.0909ZM158.815 30.5C158.391 26.5303 156.603 23.4394 153.452 21.2273C150.33 19.0151 146.27 17.9091 141.27 17.9091C137.755 17.9091 134.739 18.4394 132.224 19.5C129.709 20.5606 127.785 22 126.452 23.8182C125.118 25.6364 124.436 27.7121 124.406 30.0455C124.406 31.9848 124.846 33.6667 125.724 35.0909C126.633 36.5152 127.861 37.7273 129.406 38.7273C130.952 39.697 132.664 40.5151 134.543 41.1818C136.421 41.8485 138.315 42.4091 140.224 42.8636L148.952 45.0455C152.467 45.8636 155.846 46.9697 159.088 48.3636C162.361 49.7576 165.285 51.5152 167.861 53.6364C170.467 55.7576 172.527 58.3182 174.043 61.3182C175.558 64.3182 176.315 67.8333 176.315 71.8636C176.315 77.3182 174.921 82.1212 172.133 86.2727C169.346 90.3939 165.315 93.6212 160.043 95.9545C154.8 98.2576 148.452 99.4091 140.997 99.4091C133.755 99.4091 127.467 98.2879 122.133 96.0455C116.83 93.803 112.679 90.5303 109.679 86.2273C106.709 81.9242 105.103 76.6818 104.861 70.5H121.452C121.694 73.7424 122.694 76.4394 124.452 78.5909C126.209 80.7424 128.497 82.3485 131.315 83.4091C134.164 84.4697 137.346 85 140.861 85C144.527 85 147.739 84.4545 150.497 83.3636C153.285 82.2424 155.467 80.697 157.043 78.7273C158.618 76.7273 159.421 74.3939 159.452 71.7273C159.421 69.303 158.709 67.303 157.315 65.7273C155.921 64.1212 153.967 62.7879 151.452 61.7273C148.967 60.6364 146.058 59.6667 142.724 58.8182L132.133 56.0909C124.467 54.1212 118.406 51.1364 113.952 47.1364C109.527 43.1061 107.315 37.7576 107.315 31.0909C107.315 25.6061 108.8 20.803 111.77 16.6818C114.77 12.5606 118.846 9.36363 123.997 7.0909C129.149 4.78787 134.982 3.63636 141.497 3.63636C148.103 3.63636 153.891 4.78787 158.861 7.0909C163.861 9.36363 167.785 12.5303 170.633 16.5909C173.482 20.6212 174.952 25.2576 175.043 30.5H158.815ZM185.502 98V28.1818H201.957V98H185.502ZM193.775 18.2727C191.169 18.2727 188.926 17.4091 187.047 15.6818C185.169 13.9242 184.229 11.8182 184.229 9.36363C184.229 6.87878 185.169 4.77272 187.047 3.04545C188.926 1.28787 191.169 0.409088 193.775 0.409088C196.411 0.409088 198.654 1.28787 200.502 3.04545C202.381 4.77272 203.32 6.87878 203.32 9.36363C203.32 11.8182 202.381 13.9242 200.502 15.6818C198.654 17.4091 196.411 18.2727 193.775 18.2727ZM213.757 98V28.1818H229.484V40.0455H230.302C231.757 36.0455 234.166 32.9242 237.53 30.6818C240.893 28.4091 244.909 27.2727 249.575 27.2727C254.302 27.2727 258.287 28.4242 261.53 30.7273C264.802 33 267.106 36.1061 268.439 40.0455H269.166C270.712 36.1667 273.318 33.0758 276.984 30.7727C280.681 28.4394 285.06 27.2727 290.121 27.2727C296.545 27.2727 301.787 29.303 305.848 33.3636C309.909 37.4242 311.939 43.3485 311.939 51.1364V98H295.439V53.6818C295.439 49.3485 294.287 46.1818 291.984 44.1818C289.681 42.1515 286.863 41.1364 283.53 41.1364C279.56 41.1364 276.454 42.3788 274.212 44.8636C271.999 47.3182 270.893 50.5151 270.893 54.4545V98H254.757V53C254.757 49.3939 253.666 46.5152 251.484 44.3636C249.333 42.2121 246.515 41.1364 243.03 41.1364C240.666 41.1364 238.515 41.7424 236.575 42.9545C234.636 44.1364 233.09 45.8182 231.939 48C230.787 50.1515 230.212 52.6667 230.212 55.5455V98H213.757ZM323.512 124.182V28.1818H339.694V39.7273H340.648C341.497 38.0303 342.694 36.2273 344.239 34.3182C345.785 32.3788 347.876 30.7273 350.512 29.3636C353.148 27.9697 356.512 27.2727 360.603 27.2727C365.997 27.2727 370.861 28.6515 375.194 31.4091C379.557 34.1364 383.012 38.1818 385.557 43.5455C388.133 48.8788 389.421 55.4242 389.421 63.1818C389.421 70.8485 388.164 77.3636 385.648 82.7273C383.133 88.0909 379.709 92.1818 375.376 95C371.042 97.8182 366.133 99.2273 360.648 99.2273C356.648 99.2273 353.33 98.5606 350.694 97.2273C348.057 95.8939 345.936 94.2879 344.33 92.4091C342.754 90.5 341.527 88.697 340.648 87H339.967V124.182H323.512ZM339.648 63.0909C339.648 67.6061 340.285 71.5606 341.557 74.9545C342.861 78.3485 344.724 81 347.148 82.9091C349.603 84.7879 352.573 85.7273 356.057 85.7273C359.694 85.7273 362.739 84.7576 365.194 82.8182C367.648 80.8485 369.497 78.1667 370.739 74.7727C372.012 71.3485 372.648 67.4545 372.648 63.0909C372.648 58.7576 372.027 54.9091 370.785 51.5455C369.542 48.1818 367.694 45.5455 365.239 43.6364C362.785 41.7273 359.724 40.7727 356.057 40.7727C352.542 40.7727 349.557 41.697 347.103 43.5455C344.648 45.3939 342.785 47.9848 341.512 51.3182C340.27 54.6515 339.648 58.5758 339.648 63.0909ZM414.847 4.90909V98H398.392V4.90909H414.847ZM457.556 99.3636C450.556 99.3636 444.511 97.9091 439.42 95C434.359 92.0606 430.465 87.9091 427.738 82.5455C425.011 77.1515 423.647 70.803 423.647 63.5C423.647 56.3182 425.011 50.0152 427.738 44.5909C430.496 39.1364 434.344 34.8939 439.283 31.8636C444.223 28.803 450.026 27.2727 456.693 27.2727C460.996 27.2727 465.056 27.9697 468.874 29.3636C472.723 30.7273 476.117 32.8485 479.056 35.7273C482.026 38.6061 484.359 42.2727 486.056 46.7273C487.753 51.1515 488.602 56.4242 488.602 62.5455V67.5909H431.374V56.5H472.829C472.799 53.3485 472.117 50.5455 470.783 48.0909C469.45 45.6061 467.586 43.6515 465.193 42.2273C462.829 40.803 460.071 40.0909 456.92 40.0909C453.556 40.0909 450.602 40.9091 448.056 42.5455C445.511 44.1515 443.526 46.2727 442.102 48.9091C440.708 51.5151 439.996 54.3788 439.965 57.5V67.1818C439.965 71.2424 440.708 74.7273 442.193 77.6364C443.677 80.5152 445.753 82.7273 448.42 84.2727C451.086 85.7879 454.208 86.5455 457.783 86.5455C460.177 86.5455 462.344 86.2121 464.283 85.5455C466.223 84.8485 467.905 83.8333 469.329 82.5C470.753 81.1667 471.829 79.5152 472.556 77.5455L487.92 79.2727C486.95 83.3333 485.102 86.8788 482.374 89.9091C479.677 92.9091 476.223 95.2424 472.011 96.9091C467.799 98.5455 462.98 99.3636 457.556 99.3636ZM541.623 4.90909V98H524.759V4.90909H541.623ZM579.946 99.2273C574.461 99.2273 569.552 97.8182 565.219 95C560.886 92.1818 557.461 88.0909 554.946 82.7273C552.431 77.3636 551.173 70.8485 551.173 63.1818C551.173 55.4242 552.446 48.8788 554.992 43.5455C557.567 38.1818 561.037 34.1364 565.401 31.4091C569.764 28.6515 574.628 27.2727 579.992 27.2727C584.083 27.2727 587.446 27.9697 590.083 29.3636C592.719 30.7273 594.81 32.3788 596.355 34.3182C597.901 36.2273 599.098 38.0303 599.946 39.7273H600.628V4.90909H617.128V98H600.946V87H599.946C599.098 88.697 597.87 90.5 596.264 92.4091C594.658 94.2879 592.537 95.8939 589.901 97.2273C587.264 98.5606 583.946 99.2273 579.946 99.2273ZM584.537 85.7273C588.022 85.7273 590.992 84.7879 593.446 82.9091C595.901 81 597.764 78.3485 599.037 74.9545C600.31 71.5606 600.946 67.6061 600.946 63.0909C600.946 58.5758 600.31 54.6515 599.037 51.3182C597.795 47.9848 595.946 45.3939 593.492 43.5455C591.067 41.697 588.083 40.7727 584.537 40.7727C580.87 40.7727 577.81 41.7273 575.355 43.6364C572.901 45.5455 571.052 48.1818 569.81 51.5455C568.567 54.9091 567.946 58.7576 567.946 63.0909C567.946 67.4545 568.567 71.3485 569.81 74.7727C571.083 78.1667 572.946 80.8485 575.401 82.8182C577.886 84.7576 580.931 85.7273 584.537 85.7273ZM660.451 99.3636C653.451 99.3636 647.406 97.9091 642.315 95C637.254 92.0606 633.36 87.9091 630.633 82.5455C627.906 77.1515 626.542 70.803 626.542 63.5C626.542 56.3182 627.906 50.0152 630.633 44.5909C633.391 39.1364 637.239 34.8939 642.178 31.8636C647.118 28.803 652.921 27.2727 659.588 27.2727C663.891 27.2727 667.951 27.9697 671.769 29.3636C675.618 30.7273 679.012 32.8485 681.951 35.7273C684.921 38.6061 687.254 42.2727 688.951 46.7273C690.648 51.1515 691.497 56.4242 691.497 62.5455V67.5909H634.269V56.5H675.724C675.694 53.3485 675.012 50.5455 673.678 48.0909C672.345 45.6061 670.481 43.6515 668.088 42.2273C665.724 40.803 662.966 40.0909 659.815 40.0909C656.451 40.0909 653.497 40.9091 650.951 42.5455C648.406 44.1515 646.421 46.2727 644.997 48.9091C643.603 51.5151 642.891 54.3788 642.86 57.5V67.1818C642.86 71.2424 643.603 74.7273 645.088 77.6364C646.572 80.5152 648.648 82.7273 651.315 84.2727C653.981 85.7879 657.103 86.5455 660.678 86.5455C663.072 86.5455 665.239 86.2121 667.178 85.5455C669.118 84.8485 670.8 83.8333 672.224 82.5C673.648 81.1667 674.724 79.5152 675.451 77.5455L690.815 79.2727C689.845 83.3333 687.997 86.8788 685.269 89.9091C682.572 92.9091 679.118 95.2424 674.906 96.9091C670.694 98.5455 665.875 99.3636 660.451 99.3636ZM720.388 99.4091C715.964 99.4091 711.979 98.6212 708.433 97.0455C704.918 95.4394 702.13 93.0758 700.07 89.9545C698.039 86.8333 697.024 82.9848 697.024 78.4091C697.024 74.4697 697.752 71.2121 699.206 68.6364C700.661 66.0606 702.646 64 705.161 62.4545C707.676 60.9091 710.509 59.7424 713.661 58.9545C716.843 58.1364 720.13 57.5455 723.524 57.1818C727.615 56.7576 730.933 56.3788 733.479 56.0455C736.024 55.6818 737.873 55.1364 739.024 54.4091C740.206 53.6515 740.797 52.4848 740.797 50.9091V50.6364C740.797 47.2121 739.782 44.5606 737.752 42.6818C735.721 40.803 732.797 39.8636 728.979 39.8636C724.949 39.8636 721.752 40.7424 719.388 42.5C717.055 44.2576 715.479 46.3333 714.661 48.7273L699.297 46.5455C700.509 42.303 702.509 38.7576 705.297 35.9091C708.085 33.0303 711.494 30.8788 715.524 29.4545C719.555 28 724.009 27.2727 728.888 27.2727C732.252 27.2727 735.6 27.6667 738.933 28.4545C742.267 29.2424 745.312 30.5455 748.07 32.3636C750.827 34.1515 753.04 36.5909 754.706 39.6818C756.403 42.7727 757.252 46.6364 757.252 51.2727V98H741.433V88.4091H740.888C739.888 90.3485 738.479 92.1667 736.661 93.8636C734.873 95.5303 732.615 96.8788 729.888 97.9091C727.191 98.9091 724.024 99.4091 720.388 99.4091ZM724.661 87.3182C727.964 87.3182 730.827 86.6667 733.252 85.3636C735.676 84.0303 737.539 82.2727 738.843 80.0909C740.176 77.9091 740.843 75.5303 740.843 72.9545V64.7273C740.327 65.1515 739.449 65.5455 738.206 65.9091C736.994 66.2727 735.63 66.5909 734.115 66.8636C732.6 67.1364 731.1 67.3788 729.615 67.5909C728.13 67.803 726.843 67.9848 725.752 68.1364C723.297 68.4697 721.1 69.0152 719.161 69.7727C717.221 70.5303 715.691 71.5909 714.57 72.9545C713.449 74.2879 712.888 76.0152 712.888 78.1364C712.888 81.1667 713.994 83.4545 716.206 85C718.418 86.5455 721.236 87.3182 724.661 87.3182ZM823.859 46.6364L808.859 48.2727C808.435 46.7576 807.692 45.3333 806.632 44C805.601 42.6667 804.207 41.5909 802.45 40.7727C800.692 39.9545 798.541 39.5455 795.995 39.5455C792.571 39.5455 789.692 40.2879 787.359 41.7727C785.056 43.2576 783.919 45.1818 783.95 47.5455C783.919 49.5758 784.662 51.2273 786.177 52.5C787.722 53.7727 790.268 54.8182 793.813 55.6364L805.722 58.1818C812.328 59.6061 817.238 61.8636 820.45 64.9545C823.692 68.0455 825.328 72.0909 825.359 77.0909C825.328 81.4848 824.041 85.3636 821.495 88.7273C818.98 92.0606 815.48 94.6667 810.995 96.5455C806.51 98.4242 801.359 99.3636 795.541 99.3636C786.995 99.3636 780.116 97.5758 774.904 94C769.692 90.3939 766.586 85.3788 765.586 78.9545L781.632 77.4091C782.359 80.5606 783.904 82.9394 786.268 84.5455C788.632 86.1515 791.707 86.9545 795.495 86.9545C799.404 86.9545 802.541 86.1515 804.904 84.5455C807.298 82.9394 808.495 80.9545 808.495 78.5909C808.495 76.5909 807.722 74.9394 806.177 73.6364C804.662 72.3333 802.298 71.3333 799.086 70.6364L787.177 68.1364C780.48 66.7424 775.525 64.3939 772.313 61.0909C769.101 57.7576 767.51 53.5455 767.541 48.4545C767.51 44.1515 768.677 40.4242 771.041 37.2727C773.435 34.0909 776.753 31.6364 780.995 29.9091C785.268 28.1515 790.192 27.2727 795.768 27.2727C803.95 27.2727 810.389 29.0152 815.086 32.5C819.813 35.9848 822.738 40.697 823.859 46.6364ZM860.437 98V28.1818H876.892V98H860.437ZM868.71 18.2727C866.104 18.2727 863.861 17.4091 861.982 15.6818C860.104 13.9242 859.164 11.8182 859.164 9.36363C859.164 6.87878 860.104 4.77272 861.982 3.04545C863.861 1.28787 866.104 0.409088 868.71 0.409088C871.346 0.409088 873.588 1.28787 875.437 3.04545C877.316 4.77272 878.255 6.87878 878.255 9.36363C878.255 11.8182 877.316 13.9242 875.437 15.6818C873.588 17.4091 871.346 18.2727 868.71 18.2727ZM905.147 57.0909V98H888.692V28.1818H904.419V40.0455H905.238C906.844 36.1364 909.404 33.0303 912.919 30.7273C916.465 28.4242 920.844 27.2727 926.056 27.2727C930.874 27.2727 935.071 28.303 938.647 30.3636C942.253 32.4242 945.041 35.4091 947.01 39.3182C949.01 43.2273 949.995 47.9697 949.965 53.5455V98H933.51V56.0909C933.51 51.4242 932.298 47.7727 929.874 45.1364C927.48 42.5 924.162 41.1818 919.919 41.1818C917.041 41.1818 914.48 41.8182 912.238 43.0909C910.025 44.3333 908.283 46.1364 907.01 48.5C905.768 50.8636 905.147 53.7273 905.147 57.0909ZM996.436 28.1818V40.9091H956.299V28.1818H996.436ZM966.208 11.4545H982.663V77C982.663 79.2121 982.996 80.9091 983.663 82.0909C984.36 83.2424 985.269 84.0303 986.39 84.4545C987.511 84.8788 988.754 85.0909 990.117 85.0909C991.148 85.0909 992.087 85.0152 992.936 84.8636C993.814 84.7121 994.481 84.5758 994.936 84.4545L997.708 97.3182C996.83 97.6212 995.572 97.9545 993.936 98.3182C992.33 98.6818 990.36 98.8939 988.027 98.9545C983.905 99.0758 980.193 98.4545 976.89 97.0909C973.587 95.697 970.966 93.5455 969.027 90.6364C967.117 87.7273 966.178 84.0909 966.208 79.7273V11.4545ZM1034.78 99.3636C1027.96 99.3636 1022.05 97.8636 1017.05 94.8636C1012.05 91.8636 1008.18 87.6667 1005.42 82.2727C1002.69 76.8788 1001.33 70.5758 1001.33 63.3636C1001.33 56.1515 1002.69 49.8333 1005.42 44.4091C1008.18 38.9848 1012.05 34.7727 1017.05 31.7727C1022.05 28.7727 1027.96 27.2727 1034.78 27.2727C1041.6 27.2727 1047.51 28.7727 1052.51 31.7727C1057.51 34.7727 1061.37 38.9848 1064.1 44.4091C1066.86 49.8333 1068.24 56.1515 1068.24 63.3636C1068.24 70.5758 1066.86 76.8788 1064.1 82.2727C1061.37 87.6667 1057.51 91.8636 1052.51 94.8636C1047.51 97.8636 1041.6 99.3636 1034.78 99.3636ZM1034.87 86.1818C1038.57 86.1818 1041.66 85.1667 1044.15 83.1364C1046.63 81.0758 1048.48 78.3182 1049.69 74.8636C1050.93 71.4091 1051.55 67.5606 1051.55 63.3182C1051.55 59.0455 1050.93 55.1818 1049.69 51.7273C1048.48 48.2424 1046.63 45.4697 1044.15 43.4091C1041.66 41.3485 1038.57 40.3182 1034.87 40.3182C1031.08 40.3182 1027.93 41.3485 1025.42 43.4091C1022.93 45.4697 1021.07 48.2424 1019.83 51.7273C1018.61 55.1818 1018.01 59.0455 1018.01 63.3182C1018.01 67.5606 1018.61 71.4091 1019.83 74.8636C1021.07 78.3182 1022.93 81.0758 1025.42 83.1364C1027.93 85.1667 1031.08 86.1818 1034.87 86.1818ZM-340.943 278V184.909H-306.034C-298.883 184.909 -292.883 186.242 -288.034 188.909C-283.155 191.576 -279.473 195.242 -276.989 199.909C-274.473 204.545 -273.216 209.818 -273.216 215.727C-273.216 221.697 -274.473 227 -276.989 231.636C-279.504 236.273 -283.216 239.924 -288.125 242.591C-293.034 245.227 -299.08 246.545 -306.261 246.545H-329.398V232.682H-308.534C-304.352 232.682 -300.928 231.955 -298.261 230.5C-295.595 229.045 -293.625 227.045 -292.352 224.5C-291.049 221.955 -290.398 219.03 -290.398 215.727C-290.398 212.424 -291.049 209.515 -292.352 207C-293.625 204.485 -295.61 202.53 -298.307 201.136C-300.973 199.712 -304.413 199 -308.625 199H-324.08V278H-340.943ZM-234.961 279.364C-241.779 279.364 -247.688 277.864 -252.688 274.864C-257.688 271.864 -261.567 267.667 -264.325 262.273C-267.052 256.879 -268.415 250.576 -268.415 243.364C-268.415 236.152 -267.052 229.833 -264.325 224.409C-261.567 218.985 -257.688 214.773 -252.688 211.773C-247.688 208.773 -241.779 207.273 -234.961 207.273C-228.143 207.273 -222.234 208.773 -217.234 211.773C-212.234 214.773 -208.37 218.985 -205.643 224.409C-202.885 229.833 -201.506 236.152 -201.506 243.364C-201.506 250.576 -202.885 256.879 -205.643 262.273C-208.37 267.667 -212.234 271.864 -217.234 274.864C-222.234 277.864 -228.143 279.364 -234.961 279.364ZM-234.87 266.182C-231.173 266.182 -228.082 265.167 -225.597 263.136C-223.112 261.076 -221.264 258.318 -220.052 254.864C-218.809 251.409 -218.188 247.561 -218.188 243.318C-218.188 239.045 -218.809 235.182 -220.052 231.727C-221.264 228.242 -223.112 225.47 -225.597 223.409C-228.082 221.348 -231.173 220.318 -234.87 220.318C-238.658 220.318 -241.809 221.348 -244.325 223.409C-246.809 225.47 -248.673 228.242 -249.915 231.727C-251.128 235.182 -251.734 239.045 -251.734 243.318C-251.734 247.561 -251.128 251.409 -249.915 254.864C-248.673 258.318 -246.809 261.076 -244.325 263.136C-241.809 265.167 -238.658 266.182 -234.87 266.182ZM-180.251 278L-199.979 208.182H-183.206L-170.933 257.273H-170.297L-157.751 208.182H-141.16L-128.615 257H-127.933L-115.842 208.182H-99.0241L-118.797 278H-135.933L-149.024 230.818H-149.979L-163.07 278H-180.251ZM-63.7463 279.364C-70.7463 279.364 -76.7918 277.909 -81.8827 275C-86.9433 272.061 -90.8373 267.909 -93.5645 262.545C-96.2918 257.152 -97.6554 250.803 -97.6554 243.5C-97.6554 236.318 -96.2918 230.015 -93.5645 224.591C-90.807 219.136 -86.9585 214.894 -82.0191 211.864C-77.0797 208.803 -71.2767 207.273 -64.61 207.273C-60.307 207.273 -56.2463 207.97 -52.4282 209.364C-48.5797 210.727 -45.1857 212.848 -42.2463 215.727C-39.2766 218.606 -36.9433 222.273 -35.2463 226.727C-33.5494 231.152 -32.7009 236.424 -32.7009 242.545V247.591H-89.9282V236.5H-48.4736C-48.5039 233.348 -49.1857 230.545 -50.5191 228.091C-51.8524 225.606 -53.716 223.652 -56.11 222.227C-58.4736 220.803 -61.2312 220.091 -64.3827 220.091C-67.7463 220.091 -70.7009 220.909 -73.2463 222.545C-75.7918 224.152 -77.7767 226.273 -79.2009 228.909C-80.5948 231.515 -81.307 234.379 -81.3373 237.5V247.182C-81.3373 251.242 -80.5948 254.727 -79.11 257.636C-77.6251 260.515 -75.5494 262.727 -72.8827 264.273C-70.216 265.788 -67.0948 266.545 -63.5191 266.545C-61.1251 266.545 -58.9585 266.212 -57.0191 265.545C-55.0797 264.848 -53.3979 263.833 -51.9736 262.5C-50.5494 261.167 -49.4736 259.515 -48.7463 257.545L-33.3827 259.273C-34.3524 263.333 -36.2009 266.879 -38.9282 269.909C-41.6251 272.909 -45.0797 275.242 -49.2918 276.909C-53.5039 278.545 -58.3221 279.364 -63.7463 279.364ZM-23.9005 278V208.182H-7.94592V219.818H-7.21865C-5.94592 215.788 -3.7641 212.682 -0.673191 210.5C2.44802 208.288 6.00863 207.182 10.0086 207.182C10.9177 207.182 11.9329 207.227 13.0541 207.318C14.2056 207.379 15.1601 207.485 15.9177 207.636V222.773C15.2207 222.53 14.1147 222.318 12.5995 222.136C11.1147 221.924 9.67529 221.818 8.28135 221.818C5.28135 221.818 2.58438 222.47 0.190445 223.773C-2.17319 225.045 -4.03683 226.818 -5.40047 229.091C-6.7641 231.364 -7.44592 233.985 -7.44592 236.955V278H-23.9005ZM60.8432 208.182V220.909H19.5704V208.182H60.8432ZM29.8886 278V201.591C29.8886 196.894 30.8583 192.985 32.7977 189.864C34.7674 186.742 37.4038 184.409 40.7068 182.864C44.0098 181.318 47.6765 180.545 51.7068 180.545C54.5553 180.545 57.0856 180.773 59.2977 181.227C61.5098 181.682 63.1462 182.091 64.2068 182.455L60.9341 195.182C60.2371 194.97 59.3583 194.758 58.2977 194.545C57.2371 194.303 56.0553 194.182 54.7523 194.182C51.6917 194.182 49.525 194.924 48.2523 196.409C47.0098 197.864 46.3886 199.955 46.3886 202.682V278H29.8886ZM113.11 248.636V208.182H129.564V278H113.61V265.591H112.882C111.307 269.5 108.716 272.697 105.11 275.182C101.534 277.667 97.1247 278.909 91.8823 278.909C87.3065 278.909 83.2611 277.894 79.7459 275.864C76.2611 273.803 73.5338 270.818 71.5641 266.909C69.5944 262.97 68.6095 258.212 68.6095 252.636V208.182H85.0641V250.091C85.0641 254.515 86.2762 258.03 88.7005 260.636C91.1247 263.242 94.3065 264.545 98.2459 264.545C100.67 264.545 103.019 263.955 105.291 262.773C107.564 261.591 109.428 259.833 110.882 257.5C112.367 255.136 113.11 252.182 113.11 248.636ZM157.819 184.909V278H141.365V184.909H157.819ZM228.522 278H196.977V184.909H229.159C238.401 184.909 246.34 186.773 252.977 190.5C259.643 194.197 264.765 199.515 268.34 206.455C271.916 213.394 273.704 221.697 273.704 231.364C273.704 241.061 271.901 249.394 268.295 256.364C264.719 263.333 259.553 268.682 252.795 272.409C246.068 276.136 237.977 278 228.522 278ZM213.84 263.409H227.704C234.189 263.409 239.598 262.227 243.931 259.864C248.265 257.47 251.522 253.909 253.704 249.182C255.886 244.424 256.977 238.485 256.977 231.364C256.977 224.242 255.886 218.333 253.704 213.636C251.522 208.909 248.295 205.379 244.022 203.045C239.78 200.682 234.507 199.5 228.204 199.5H213.84V263.409ZM283.88 278V208.182H300.334V278H283.88ZM292.152 198.273C289.546 198.273 287.304 197.409 285.425 195.682C283.546 193.924 282.607 191.818 282.607 189.364C282.607 186.879 283.546 184.773 285.425 183.045C287.304 181.288 289.546 180.409 292.152 180.409C294.789 180.409 297.031 181.288 298.88 183.045C300.758 184.773 301.698 186.879 301.698 189.364C301.698 191.818 300.758 193.924 298.88 195.682C297.031 197.409 294.789 198.273 292.152 198.273ZM342.498 305.636C336.589 305.636 331.513 304.833 327.271 303.227C323.028 301.652 319.619 299.53 317.044 296.864C314.468 294.197 312.68 291.242 311.68 288L326.498 284.409C327.165 285.773 328.135 287.121 329.407 288.455C330.68 289.818 332.392 290.939 334.544 291.818C336.725 292.727 339.468 293.182 342.771 293.182C347.438 293.182 351.301 292.045 354.362 289.773C357.422 287.53 358.953 283.833 358.953 278.682V265.455H358.135C357.286 267.152 356.044 268.894 354.407 270.682C352.801 272.47 350.665 273.97 347.998 275.182C345.362 276.394 342.044 277 338.044 277C332.68 277 327.816 275.742 323.453 273.227C319.119 270.682 315.665 266.894 313.089 261.864C310.544 256.803 309.271 250.47 309.271 242.864C309.271 235.197 310.544 228.727 313.089 223.455C315.665 218.152 319.135 214.136 323.498 211.409C327.862 208.652 332.725 207.273 338.089 207.273C342.18 207.273 345.544 207.97 348.18 209.364C350.847 210.727 352.968 212.379 354.544 214.318C356.119 216.227 357.316 218.03 358.135 219.727H359.044V208.182H375.271V279.136C375.271 285.106 373.847 290.045 370.998 293.955C368.15 297.864 364.256 300.788 359.316 302.727C354.377 304.667 348.771 305.636 342.498 305.636ZM342.635 264.091C346.119 264.091 349.089 263.242 351.544 261.545C353.998 259.848 355.862 257.409 357.135 254.227C358.407 251.045 359.044 247.227 359.044 242.773C359.044 238.379 358.407 234.53 357.135 231.227C355.892 227.924 354.044 225.364 351.589 223.545C349.165 221.697 346.18 220.773 342.635 220.773C338.968 220.773 335.907 221.727 333.453 223.636C330.998 225.545 329.15 228.167 327.907 231.5C326.665 234.803 326.044 238.561 326.044 242.773C326.044 247.045 326.665 250.788 327.907 254C329.18 257.182 331.044 259.667 333.498 261.455C335.983 263.212 339.028 264.091 342.635 264.091ZM387.015 278V208.182H403.469V278H387.015ZM395.287 198.273C392.681 198.273 390.439 197.409 388.56 195.682C386.681 193.924 385.742 191.818 385.742 189.364C385.742 186.879 386.681 184.773 388.56 183.045C390.439 181.288 392.681 180.409 395.287 180.409C397.924 180.409 400.166 181.288 402.015 183.045C403.893 184.773 404.833 186.879 404.833 189.364C404.833 191.818 403.893 193.924 402.015 195.682C400.166 197.409 397.924 198.273 395.287 198.273ZM450.133 208.182V220.909H409.997V208.182H450.133ZM419.906 191.455H436.36V257C436.36 259.212 436.694 260.909 437.36 262.091C438.057 263.242 438.967 264.03 440.088 264.455C441.209 264.879 442.451 265.091 443.815 265.091C444.845 265.091 445.785 265.015 446.633 264.864C447.512 264.712 448.179 264.576 448.633 264.455L451.406 277.318C450.527 277.621 449.27 277.955 447.633 278.318C446.027 278.682 444.057 278.894 441.724 278.955C437.603 279.076 433.891 278.455 430.588 277.091C427.285 275.697 424.663 273.545 422.724 270.636C420.815 267.727 419.876 264.091 419.906 259.727V191.455ZM478.865 279.409C474.441 279.409 470.456 278.621 466.911 277.045C463.396 275.439 460.608 273.076 458.547 269.955C456.517 266.833 455.502 262.985 455.502 258.409C455.502 254.47 456.229 251.212 457.684 248.636C459.138 246.061 461.123 244 463.638 242.455C466.153 240.909 468.987 239.742 472.138 238.955C475.32 238.136 478.608 237.545 482.002 237.182C486.093 236.758 489.411 236.379 491.956 236.045C494.502 235.682 496.35 235.136 497.502 234.409C498.684 233.652 499.275 232.485 499.275 230.909V230.636C499.275 227.212 498.259 224.561 496.229 222.682C494.199 220.803 491.275 219.864 487.456 219.864C483.426 219.864 480.229 220.742 477.865 222.5C475.532 224.258 473.956 226.333 473.138 228.727L457.775 226.545C458.987 222.303 460.987 218.758 463.775 215.909C466.562 213.03 469.972 210.879 474.002 209.455C478.032 208 482.487 207.273 487.365 207.273C490.729 207.273 494.078 207.667 497.411 208.455C500.744 209.242 503.79 210.545 506.547 212.364C509.305 214.152 511.517 216.591 513.184 219.682C514.881 222.773 515.729 226.636 515.729 231.273V278H499.911V268.409H499.365C498.365 270.348 496.956 272.167 495.138 273.864C493.35 275.53 491.093 276.879 488.365 277.909C485.668 278.909 482.502 279.409 478.865 279.409ZM483.138 267.318C486.441 267.318 489.305 266.667 491.729 265.364C494.153 264.03 496.017 262.273 497.32 260.091C498.653 257.909 499.32 255.53 499.32 252.955V244.727C498.805 245.152 497.926 245.545 496.684 245.909C495.472 246.273 494.108 246.591 492.593 246.864C491.078 247.136 489.578 247.379 488.093 247.591C486.608 247.803 485.32 247.985 484.229 248.136C481.775 248.47 479.578 249.015 477.638 249.773C475.699 250.53 474.168 251.591 473.047 252.955C471.926 254.288 471.365 256.015 471.365 258.136C471.365 261.167 472.472 263.455 474.684 265C476.896 266.545 479.714 267.318 483.138 267.318ZM543.609 184.909V278H527.155V184.909H543.609ZM582.767 278V184.909H617.676C624.827 184.909 630.827 186.152 635.676 188.636C640.555 191.121 644.237 194.606 646.721 199.091C649.237 203.545 650.494 208.742 650.494 214.682C650.494 220.652 649.221 225.833 646.676 230.227C644.161 234.591 640.449 237.97 635.54 240.364C630.63 242.727 624.6 243.909 617.449 243.909H592.585V229.909H615.176C619.358 229.909 622.782 229.333 625.449 228.182C628.115 227 630.085 225.288 631.358 223.045C632.661 220.773 633.312 217.985 633.312 214.682C633.312 211.379 632.661 208.561 631.358 206.227C630.055 203.864 628.07 202.076 625.403 200.864C622.737 199.621 619.297 199 615.085 199H599.63V278H582.767ZM630.858 235.818L653.903 278H635.085L612.449 235.818H630.858ZM690.079 279.364C683.079 279.364 677.033 277.909 671.942 275C666.882 272.061 662.988 267.909 660.26 262.545C657.533 257.152 656.17 250.803 656.17 243.5C656.17 236.318 657.533 230.015 660.26 224.591C663.018 219.136 666.867 214.894 671.806 211.864C676.745 208.803 682.548 207.273 689.215 207.273C693.518 207.273 697.579 207.97 701.397 209.364C705.245 210.727 708.639 212.848 711.579 215.727C714.548 218.606 716.882 222.273 718.579 226.727C720.276 231.152 721.124 236.424 721.124 242.545V247.591H663.897V236.5H705.351C705.321 233.348 704.639 230.545 703.306 228.091C701.973 225.606 700.109 223.652 697.715 222.227C695.351 220.803 692.594 220.091 689.442 220.091C686.079 220.091 683.124 220.909 680.579 222.545C678.033 224.152 676.048 226.273 674.624 228.909C673.23 231.515 672.518 234.379 672.488 237.5V247.182C672.488 251.242 673.23 254.727 674.715 257.636C676.2 260.515 678.276 262.727 680.942 264.273C683.609 265.788 686.73 266.545 690.306 266.545C692.7 266.545 694.867 266.212 696.806 265.545C698.745 264.848 700.427 263.833 701.851 262.5C703.276 261.167 704.351 259.515 705.079 257.545L720.442 259.273C719.473 263.333 717.624 266.879 714.897 269.909C712.2 272.909 708.745 275.242 704.533 276.909C700.321 278.545 695.503 279.364 690.079 279.364ZM750.015 279.409C745.591 279.409 741.606 278.621 738.061 277.045C734.546 275.439 731.758 273.076 729.697 269.955C727.667 266.833 726.652 262.985 726.652 258.409C726.652 254.47 727.379 251.212 728.834 248.636C730.288 246.061 732.273 244 734.788 242.455C737.303 240.909 740.137 239.742 743.288 238.955C746.47 238.136 749.758 237.545 753.152 237.182C757.243 236.758 760.561 236.379 763.106 236.045C765.652 235.682 767.5 235.136 768.652 234.409C769.834 233.652 770.425 232.485 770.425 230.909V230.636C770.425 227.212 769.409 224.561 767.379 222.682C765.349 220.803 762.425 219.864 758.606 219.864C754.576 219.864 751.379 220.742 749.015 222.5C746.682 224.258 745.106 226.333 744.288 228.727L728.925 226.545C730.137 222.303 732.137 218.758 734.925 215.909C737.712 213.03 741.121 210.879 745.152 209.455C749.182 208 753.637 207.273 758.515 207.273C761.879 207.273 765.228 207.667 768.561 208.455C771.894 209.242 774.94 210.545 777.697 212.364C780.455 214.152 782.667 216.591 784.334 219.682C786.031 222.773 786.879 226.636 786.879 231.273V278H771.061V268.409H770.515C769.515 270.348 768.106 272.167 766.288 273.864C764.5 275.53 762.243 276.879 759.515 277.909C756.818 278.909 753.652 279.409 750.015 279.409ZM754.288 267.318C757.591 267.318 760.455 266.667 762.879 265.364C765.303 264.03 767.167 262.273 768.47 260.091C769.803 257.909 770.47 255.53 770.47 252.955V244.727C769.955 245.152 769.076 245.545 767.834 245.909C766.621 246.273 765.258 246.591 763.743 246.864C762.228 247.136 760.728 247.379 759.243 247.591C757.758 247.803 756.47 247.985 755.379 248.136C752.925 248.47 750.728 249.015 748.788 249.773C746.849 250.53 745.318 251.591 744.197 252.955C743.076 254.288 742.515 256.015 742.515 258.136C742.515 261.167 743.621 263.455 745.834 265C748.046 266.545 750.864 267.318 754.288 267.318ZM814.759 184.909V278H798.305V184.909H814.759ZM826.56 278V208.182H843.014V278H826.56ZM834.832 198.273C832.226 198.273 829.984 197.409 828.105 195.682C826.226 193.924 825.287 191.818 825.287 189.364C825.287 186.879 826.226 184.773 828.105 183.045C829.984 181.288 832.226 180.409 834.832 180.409C837.469 180.409 839.711 181.288 841.56 183.045C843.438 184.773 844.378 186.879 844.378 189.364C844.378 191.818 843.438 193.924 841.56 195.682C839.711 197.409 837.469 198.273 834.832 198.273ZM889.678 208.182V220.909H849.542V208.182H889.678ZM859.451 191.455H875.905V257C875.905 259.212 876.239 260.909 876.905 262.091C877.602 263.242 878.512 264.03 879.633 264.455C880.754 264.879 881.996 265.091 883.36 265.091C884.39 265.091 885.33 265.015 886.178 264.864C887.057 264.712 887.724 264.576 888.178 264.455L890.951 277.318C890.072 277.621 888.815 277.955 887.178 278.318C885.572 278.682 883.602 278.894 881.269 278.955C877.148 279.076 873.436 278.455 870.133 277.091C866.83 275.697 864.208 273.545 862.269 270.636C860.36 267.727 859.421 264.091 859.451 259.727V191.455ZM898.32 278V208.182H914.774V278H898.32ZM906.592 198.273C903.986 198.273 901.744 197.409 899.865 195.682C897.986 193.924 897.047 191.818 897.047 189.364C897.047 186.879 897.986 184.773 899.865 183.045C901.744 181.288 903.986 180.409 906.592 180.409C909.229 180.409 911.471 181.288 913.32 183.045C915.198 184.773 916.138 186.879 916.138 189.364C916.138 191.818 915.198 193.924 913.32 195.682C911.471 197.409 909.229 198.273 906.592 198.273ZM957.484 279.364C950.484 279.364 944.438 277.909 939.347 275C934.287 272.061 930.393 267.909 927.665 262.545C924.938 257.152 923.575 250.803 923.575 243.5C923.575 236.318 924.938 230.015 927.665 224.591C930.423 219.136 934.272 214.894 939.211 211.864C944.15 208.803 949.953 207.273 956.62 207.273C960.923 207.273 964.984 207.97 968.802 209.364C972.65 210.727 976.044 212.848 978.984 215.727C981.953 218.606 984.287 222.273 985.984 226.727C987.681 231.152 988.529 236.424 988.529 242.545V247.591H931.302V236.5H972.756C972.726 233.348 972.044 230.545 970.711 228.091C969.378 225.606 967.514 223.652 965.12 222.227C962.756 220.803 959.999 220.091 956.847 220.091C953.484 220.091 950.529 220.909 947.984 222.545C945.438 224.152 943.453 226.273 942.029 228.909C940.635 231.515 939.923 234.379 939.893 237.5V247.182C939.893 251.242 940.635 254.727 942.12 257.636C943.605 260.515 945.681 262.727 948.347 264.273C951.014 265.788 954.135 266.545 957.711 266.545C960.105 266.545 962.272 266.212 964.211 265.545C966.15 264.848 967.832 263.833 969.256 262.5C970.681 261.167 971.756 259.515 972.484 257.545L987.847 259.273C986.878 263.333 985.029 266.879 982.302 269.909C979.605 272.909 976.15 275.242 971.938 276.909C967.726 278.545 962.908 279.364 957.484 279.364ZM1052.51 226.636L1037.51 228.273C1037.09 226.758 1036.34 225.333 1035.28 224C1034.25 222.667 1032.86 221.591 1031.1 220.773C1029.34 219.955 1027.19 219.545 1024.65 219.545C1021.22 219.545 1018.34 220.288 1016.01 221.773C1013.71 223.258 1012.57 225.182 1012.6 227.545C1012.57 229.576 1013.31 231.227 1014.83 232.5C1016.38 233.773 1018.92 234.818 1022.47 235.636L1034.38 238.182C1040.98 239.606 1045.89 241.864 1049.1 244.955C1052.34 248.045 1053.98 252.091 1054.01 257.091C1053.98 261.485 1052.69 265.364 1050.15 268.727C1047.63 272.061 1044.13 274.667 1039.65 276.545C1035.16 278.424 1030.01 279.364 1024.19 279.364C1015.65 279.364 1008.77 277.576 1003.56 274C998.345 270.394 995.239 265.379 994.239 258.955L1010.28 257.409C1011.01 260.561 1012.56 262.939 1014.92 264.545C1017.28 266.152 1020.36 266.955 1024.15 266.955C1028.06 266.955 1031.19 266.152 1033.56 264.545C1035.95 262.939 1037.15 260.955 1037.15 258.591C1037.15 256.591 1036.38 254.939 1034.83 253.636C1033.31 252.333 1030.95 251.333 1027.74 250.636L1015.83 248.136C1009.13 246.742 1004.18 244.394 1000.97 241.091C997.754 237.758 996.163 233.545 996.193 228.455C996.163 224.152 997.33 220.424 999.693 217.273C1002.09 214.091 1005.41 211.636 1009.65 209.909C1013.92 208.152 1018.84 207.273 1024.42 207.273C1032.6 207.273 1039.04 209.015 1043.74 212.5C1048.47 215.985 1051.39 220.697 1052.51 226.636Z" fill="white"/>
</svg>
