<svg width="904" height="628" viewBox="0 0 904 628" fill="none" xmlns="http://www.w3.org/2000/svg">
<g clip-path="url(#clip0_1282_5236)">
<path d="M-198.12 301V146.818H-99.3469V170.232H-170.189V212.089H-106.122V235.503H-170.189V301H-198.12ZM-85.2417 301V185.364H-58.817V204.636H-57.6124C-55.5045 197.961 -51.8908 192.817 -46.7715 189.203C-41.602 185.539 -35.7047 183.707 -29.0797 183.707C-27.5741 183.707 -25.8927 183.783 -24.0357 183.933C-22.1285 184.034 -20.5476 184.209 -19.2928 184.46V209.53C-20.4472 209.128 -22.2791 208.777 -24.7886 208.476C-27.2478 208.125 -29.6318 207.949 -31.9405 207.949C-36.9093 207.949 -41.3761 209.028 -45.3411 211.186C-49.2559 213.294 -52.3425 216.23 -54.6011 219.994C-56.8596 223.759 -57.9888 228.1 -57.9888 233.018V301H-85.2417ZM36.0116 303.259C24.719 303.259 14.9321 300.774 6.65084 295.805C-1.63041 290.837 -8.05465 283.885 -12.6219 274.952C-17.1389 266.018 -19.3975 255.579 -19.3975 243.634C-19.3975 231.688 -17.1389 221.224 -12.6219 212.24C-8.05465 203.256 -1.63041 196.28 6.65084 191.311C14.9321 186.342 24.719 183.858 36.0116 183.858C47.3042 183.858 57.0912 186.342 65.3724 191.311C73.6537 196.28 80.0528 203.256 84.5699 212.24C89.1371 221.224 91.4207 231.688 91.4207 243.634C91.4207 255.579 89.1371 266.018 84.5699 274.952C80.0528 283.885 73.6537 290.837 65.3724 295.805C57.0912 300.774 47.3042 303.259 36.0116 303.259ZM36.1622 281.426C42.2853 281.426 47.4046 279.745 51.5202 276.382C55.6357 272.969 58.6972 268.402 60.7048 262.68C62.7626 256.959 63.7915 250.585 63.7915 243.558C63.7915 236.482 62.7626 230.082 60.7048 224.361C58.6972 218.589 55.6357 213.997 51.5202 210.584C47.4046 207.171 42.2853 205.464 36.1622 205.464C29.8885 205.464 24.6688 207.171 20.5031 210.584C16.3876 213.997 13.3009 218.589 11.2432 224.361C9.23559 230.082 8.2318 236.482 8.2318 243.558C8.2318 250.585 9.23559 256.959 11.2432 262.68C13.3009 268.402 16.3876 272.969 20.5031 276.382C24.6688 279.745 29.8885 281.426 36.1622 281.426ZM106.072 301V185.364H132.12V205.013H133.475C135.884 198.388 139.874 193.218 145.445 189.504C151.016 185.74 157.666 183.858 165.396 183.858C173.225 183.858 179.825 185.765 185.195 189.58C190.616 193.344 194.43 198.488 196.639 205.013H197.843C200.403 198.589 204.719 193.469 210.792 189.655C216.915 185.79 224.167 183.858 232.549 183.858C243.189 183.858 251.872 187.221 258.597 193.946C265.323 200.671 268.685 210.483 268.685 223.382V301H241.357V227.598C241.357 220.421 239.45 215.176 235.636 211.864C231.821 208.501 227.154 206.82 221.633 206.82C215.058 206.82 209.914 208.877 206.2 212.993C202.536 217.058 200.704 222.353 200.704 228.878V301H173.978V226.469C173.978 220.496 172.171 215.728 168.558 212.165C164.994 208.601 160.326 206.82 154.555 206.82C150.64 206.82 147.076 207.823 143.864 209.831C140.652 211.788 138.093 214.574 136.185 218.188C134.278 221.751 133.325 225.917 133.325 230.685V301H106.072ZM382.4 303.259C371.107 303.259 361.32 300.774 353.039 295.805C344.758 290.837 338.333 283.885 333.766 274.952C329.249 266.018 326.991 255.579 326.991 243.634C326.991 231.688 329.249 221.224 333.766 212.24C338.333 203.256 344.758 196.28 353.039 191.311C361.32 186.342 371.107 183.858 382.4 183.858C393.692 183.858 403.479 186.342 411.761 191.311C420.042 196.28 426.441 203.256 430.958 212.24C435.525 221.224 437.809 231.688 437.809 243.634C437.809 255.579 435.525 266.018 430.958 274.952C426.441 283.885 420.042 290.837 411.761 295.805C403.479 300.774 393.692 303.259 382.4 303.259ZM382.55 281.426C388.673 281.426 393.793 279.745 397.908 276.382C402.024 272.969 405.085 268.402 407.093 262.68C409.151 256.959 410.18 250.585 410.18 243.558C410.18 236.482 409.151 230.082 407.093 224.361C405.085 218.589 402.024 213.997 397.908 210.584C393.793 207.171 388.673 205.464 382.55 205.464C376.277 205.464 371.057 207.171 366.891 210.584C362.776 213.997 359.689 218.589 357.631 224.361C355.624 230.082 354.62 236.482 354.62 243.558C354.62 250.585 355.624 256.959 357.631 262.68C359.689 268.402 362.776 272.969 366.891 276.382C371.057 279.745 376.277 281.426 382.55 281.426ZM452.46 301V185.364H478.885V204.636H480.089C482.197 197.961 485.811 192.817 490.93 189.203C496.1 185.539 501.997 183.707 508.622 183.707C510.127 183.707 511.809 183.783 513.666 183.933C515.573 184.034 517.154 184.209 518.409 184.46V209.53C517.254 209.128 515.422 208.777 512.913 208.476C510.454 208.125 508.07 207.949 505.761 207.949C500.792 207.949 496.325 209.028 492.36 211.186C488.446 213.294 485.359 216.23 483.1 219.994C480.842 223.759 479.713 228.1 479.713 233.018V301H452.46ZM566.185 303.033C557.101 303.033 548.97 300.699 541.793 296.031C534.616 291.364 528.944 284.588 524.779 275.705C520.613 266.821 518.53 256.03 518.53 243.332C518.53 230.484 520.638 219.643 524.854 210.81C529.12 201.926 534.867 195.226 542.094 190.709C549.321 186.142 557.377 183.858 566.26 183.858C573.036 183.858 578.607 185.012 582.973 187.321C587.34 189.58 590.803 192.315 593.362 195.527C595.922 198.689 597.904 201.675 599.31 204.486H600.439V146.818H627.767V301H600.966V282.781H599.31C597.904 285.592 595.872 288.578 593.212 291.74C590.552 294.852 587.038 297.512 582.672 299.72C578.306 301.929 572.81 303.033 566.185 303.033ZM573.788 280.673C579.56 280.673 584.479 279.117 588.544 276.006C592.61 272.844 595.696 268.452 597.804 262.831C599.912 257.21 600.966 250.66 600.966 243.182C600.966 235.704 599.912 229.204 597.804 223.683C595.746 218.162 592.685 213.871 588.619 210.81C584.604 207.748 579.661 206.217 573.788 206.217C567.716 206.217 562.646 207.798 558.581 210.96C554.516 214.122 551.454 218.489 549.396 224.06C547.339 229.631 546.31 236.005 546.31 243.182C546.31 250.409 547.339 256.858 549.396 262.53C551.504 268.151 554.591 272.593 558.656 275.855C562.772 279.067 567.816 280.673 573.788 280.673ZM648.328 301V185.364H675.581V301H648.328ZM662.03 168.952C657.713 168.952 653.999 167.521 650.888 164.661C647.776 161.75 646.22 158.261 646.22 154.196C646.22 150.08 647.776 146.592 650.888 143.732C653.999 140.821 657.713 139.365 662.03 139.365C666.396 139.365 670.11 140.821 673.172 143.732C676.284 146.592 677.839 150.08 677.839 154.196C677.839 158.261 676.284 161.75 673.172 164.661C670.11 167.521 666.396 168.952 662.03 168.952ZM722.378 233.244V301H695.125V185.364H721.174V205.013H722.529C725.189 198.538 729.43 193.394 735.252 189.58C741.124 185.765 748.376 183.858 757.009 183.858C764.989 183.858 771.94 185.564 777.863 188.977C783.835 192.39 788.453 197.334 791.715 203.808C795.027 210.283 796.658 218.137 796.608 227.372V301H769.355V231.588C769.355 223.859 767.348 217.811 763.333 213.445C759.368 209.078 753.872 206.895 746.846 206.895C742.078 206.895 737.837 207.949 734.122 210.057C730.459 212.115 727.573 215.101 725.465 219.016C723.407 222.93 722.378 227.673 722.378 233.244ZM849.108 303.334C841.781 303.334 835.181 302.029 829.309 299.419C823.487 296.759 818.869 292.844 815.456 287.675C812.094 282.505 810.412 276.131 810.412 268.553C810.412 262.028 811.617 256.633 814.026 252.366C816.435 248.1 819.723 244.688 823.888 242.128C828.054 239.568 832.747 237.636 837.966 236.331C843.236 234.976 848.682 233.997 854.303 233.395C861.079 232.692 866.574 232.065 870.79 231.513C875.006 230.911 878.068 230.007 879.975 228.803C881.932 227.548 882.911 225.616 882.911 223.006V222.554C882.911 216.883 881.23 212.491 877.867 209.379C874.504 206.268 869.661 204.712 863.337 204.712C856.662 204.712 851.367 206.167 847.452 209.078C843.588 211.989 840.978 215.427 839.623 219.392L814.177 215.778C816.184 208.752 819.497 202.88 824.114 198.162C828.732 193.394 834.378 189.83 841.053 187.472C847.728 185.062 855.106 183.858 863.187 183.858C868.758 183.858 874.304 184.51 879.824 185.815C885.345 187.12 890.389 189.278 894.957 192.29C899.524 195.251 903.188 199.291 905.948 204.411C908.759 209.53 910.164 215.929 910.164 223.608V301H883.965V285.115H883.062C881.405 288.327 879.072 291.339 876.06 294.149C873.099 296.91 869.36 299.143 864.843 300.849C860.376 302.506 855.131 303.334 849.108 303.334ZM856.185 283.308C861.656 283.308 866.399 282.229 870.414 280.071C874.429 277.863 877.516 274.952 879.674 271.338C881.882 267.724 882.986 263.785 882.986 259.518V245.892C882.133 246.595 880.678 247.247 878.62 247.849C876.612 248.452 874.354 248.979 871.844 249.43C869.335 249.882 866.85 250.284 864.391 250.635C861.932 250.986 859.799 251.287 857.992 251.538C853.927 252.09 850.288 252.994 847.076 254.249C843.864 255.503 841.329 257.26 839.472 259.518C837.615 261.727 836.687 264.588 836.687 268.101C836.687 273.12 838.519 276.909 842.182 279.469C845.846 282.028 850.514 283.308 856.185 283.308ZM929.087 301V185.364H955.512V204.636H956.716C958.824 197.961 962.438 192.817 967.557 189.203C972.727 185.539 978.624 183.707 985.249 183.707C986.755 183.707 988.436 183.783 990.293 183.933C992.2 184.034 993.781 184.209 995.036 184.46V209.53C993.882 209.128 992.05 208.777 989.54 208.476C987.081 208.125 984.697 207.949 982.388 207.949C977.42 207.949 972.953 209.028 968.988 211.186C965.073 213.294 961.986 216.23 959.728 219.994C957.469 223.759 956.34 228.1 956.34 233.018V301H929.087ZM1025.12 344.364C1021.41 344.364 1017.97 344.063 1014.81 343.46C1011.69 342.908 1009.21 342.256 1007.35 341.503L1013.68 320.273C1017.64 321.427 1021.18 321.979 1024.29 321.929C1027.4 321.879 1030.14 320.9 1032.5 318.993C1034.91 317.136 1036.94 314.024 1038.6 309.658L1040.93 303.409L998.997 185.364H1027.91L1054.56 272.693H1055.76L1082.49 185.364H1111.47L1065.17 315.003C1063.01 321.126 1060.15 326.371 1056.59 330.737C1053.03 335.154 1048.66 338.517 1043.49 340.825C1038.37 343.184 1032.25 344.364 1025.12 344.364ZM-257.846 365.364V386.443H-324.322V365.364H-257.846ZM-307.91 337.659H-280.657V446.219C-280.657 449.883 -280.105 452.693 -279.001 454.651C-277.846 456.558 -276.341 457.863 -274.484 458.565C-272.627 459.268 -270.569 459.619 -268.31 459.619C-266.604 459.619 -265.048 459.494 -263.643 459.243C-262.187 458.992 -261.083 458.766 -260.33 458.565L-255.738 479.871C-257.193 480.373 -259.276 480.925 -261.987 481.527C-264.647 482.129 -267.909 482.481 -271.773 482.581C-278.599 482.782 -284.747 481.753 -290.218 479.494C-295.689 477.186 -300.03 473.622 -303.242 468.804C-306.404 463.986 -307.96 457.963 -307.91 450.736V337.659ZM-194.336 483.259C-205.628 483.259 -215.415 480.774 -223.696 475.805C-231.978 470.837 -238.402 463.885 -242.969 454.952C-247.486 446.018 -249.745 435.579 -249.745 423.634C-249.745 411.688 -247.486 401.224 -242.969 392.24C-238.402 383.256 -231.978 376.28 -223.696 371.311C-215.415 366.342 -205.628 363.858 -194.336 363.858C-183.043 363.858 -173.256 366.342 -164.975 371.311C-156.693 376.28 -150.294 383.256 -145.777 392.24C-141.21 401.224 -138.926 411.688 -138.926 423.634C-138.926 435.579 -141.21 446.018 -145.777 454.952C-150.294 463.885 -156.693 470.837 -164.975 475.805C-173.256 480.774 -183.043 483.259 -194.336 483.259ZM-194.185 461.426C-188.062 461.426 -182.943 459.745 -178.827 456.382C-174.711 452.969 -171.65 448.402 -169.642 442.68C-167.585 436.959 -166.556 430.585 -166.556 423.558C-166.556 416.482 -167.585 410.082 -169.642 404.361C-171.65 398.589 -174.711 393.997 -178.827 390.584C-182.943 387.171 -188.062 385.464 -194.185 385.464C-200.459 385.464 -205.678 387.171 -209.844 390.584C-213.96 393.997 -217.046 398.589 -219.104 404.361C-221.112 410.082 -222.115 416.482 -222.115 423.558C-222.115 430.585 -221.112 436.959 -219.104 442.68C-217.046 448.402 -213.96 452.969 -209.844 456.382C-205.678 459.745 -200.459 461.426 -194.185 461.426ZM-28.9763 483.259C-40.57 483.259 -50.5828 480.849 -59.0146 476.031C-67.3963 471.163 -73.8456 464.287 -78.3626 455.403C-82.8797 446.47 -85.1382 435.955 -85.1382 423.859C-85.1382 411.964 -82.8797 401.525 -78.3626 392.541C-73.7954 383.507 -67.4214 376.481 -59.2405 371.462C-51.0596 366.393 -41.4483 363.858 -30.4067 363.858C-23.2798 363.858 -16.5544 365.012 -10.2305 367.321C-3.85648 369.58 1.76473 373.093 6.6331 377.861C11.5517 382.629 15.4162 388.702 18.2269 396.08C21.0375 403.407 22.4428 412.14 22.4428 422.278V430.635H-72.3399V412.266H-3.68082C-3.73101 407.046 -4.86027 402.403 -7.0686 398.338C-9.27694 394.223 -12.3636 390.985 -16.3286 388.626C-20.2433 386.268 -24.8106 385.088 -30.0303 385.088C-35.6013 385.088 -40.4947 386.443 -44.7107 389.153C-48.9266 391.813 -52.214 395.327 -54.5729 399.693C-56.8816 404.009 -58.061 408.752 -58.1112 413.922V429.957C-58.1112 436.683 -56.8816 442.455 -54.4223 447.273C-51.963 452.041 -48.525 455.705 -44.1084 458.264C-39.6917 460.774 -34.5222 462.028 -28.5999 462.028C-24.6349 462.028 -21.0464 461.476 -17.8342 460.372C-14.6221 459.218 -11.8366 457.536 -9.4777 455.328C-7.1188 453.12 -5.33707 450.384 -4.13252 447.122L21.3135 449.983C19.7074 456.708 16.6459 462.58 12.1288 467.599C7.66198 472.568 1.94039 476.433 -5.03594 479.193C-12.0123 481.903 -19.9924 483.259 -28.9763 483.259ZM56.8182 365.364L80.1563 408.05L103.871 365.364H132.705L97.8481 423.182L133.307 481H104.624L80.1563 439.368L55.9148 481H27.0057L62.2387 423.182L27.9092 365.364H56.8182ZM203.047 365.364V386.443H136.571V365.364H203.047ZM152.983 337.659H180.236V446.219C180.236 449.883 180.788 452.693 181.892 454.651C183.047 456.558 184.552 457.863 186.409 458.565C188.266 459.268 190.324 459.619 192.583 459.619C194.289 459.619 195.845 459.494 197.25 459.243C198.706 458.992 199.81 458.766 200.563 458.565L205.155 479.871C203.7 480.373 201.617 480.925 198.906 481.527C196.246 482.129 192.984 482.481 189.119 482.581C182.294 482.782 176.146 481.753 170.675 479.494C165.204 477.186 160.863 473.622 157.651 468.804C154.489 463.986 152.933 457.963 152.983 450.736V337.659ZM217.359 481V365.364H243.784V384.636H244.989C247.097 377.961 250.71 372.817 255.829 369.203C260.999 365.539 266.896 363.707 273.521 363.707C275.027 363.707 276.708 363.783 278.565 363.933C280.472 364.034 282.053 364.209 283.308 364.46V389.53C282.154 389.128 280.322 388.777 277.812 388.476C275.353 388.125 272.969 387.949 270.66 387.949C265.692 387.949 261.225 389.028 257.26 391.186C253.345 393.294 250.258 396.23 248 399.994C245.741 403.759 244.612 408.1 244.612 413.018V481H217.359ZM324.139 483.334C316.812 483.334 310.212 482.029 304.34 479.419C298.518 476.759 293.9 472.844 290.487 467.675C287.125 462.505 285.443 456.131 285.443 448.553C285.443 442.028 286.648 436.633 289.057 432.366C291.466 428.1 294.753 424.688 298.919 422.128C303.085 419.568 307.778 417.636 312.997 416.331C318.267 414.976 323.713 413.997 329.334 413.395C336.109 412.692 341.605 412.065 345.821 411.513C350.037 410.911 353.099 410.007 355.006 408.803C356.963 407.548 357.942 405.616 357.942 403.006V402.554C357.942 396.883 356.26 392.491 352.898 389.379C349.535 386.268 344.692 384.712 338.368 384.712C331.693 384.712 326.398 386.167 322.483 389.078C318.618 391.989 316.009 395.427 314.653 399.392L289.207 395.778C291.215 388.752 294.528 382.88 299.145 378.162C303.762 373.394 309.409 369.83 316.084 367.472C322.759 365.062 330.137 363.858 338.217 363.858C343.788 363.858 349.334 364.51 354.855 365.815C360.376 367.12 365.42 369.278 369.987 372.29C374.555 375.251 378.218 379.291 380.979 384.411C383.789 389.53 385.195 395.929 385.195 403.608V481H358.996V465.115H358.092C356.436 468.327 354.102 471.339 351.091 474.149C348.13 476.91 344.391 479.143 339.874 480.849C335.407 482.506 330.162 483.334 324.139 483.334ZM331.216 463.308C336.687 463.308 341.429 462.229 345.445 460.071C349.46 457.863 352.546 454.952 354.705 451.338C356.913 447.724 358.017 443.785 358.017 439.518V425.892C357.164 426.595 355.708 427.247 353.651 427.849C351.643 428.452 349.385 428.979 346.875 429.43C344.366 429.882 341.881 430.284 339.422 430.635C336.963 430.986 334.83 431.287 333.023 431.538C328.957 432.09 325.319 432.994 322.107 434.249C318.894 435.503 316.36 437.26 314.503 439.518C312.646 441.727 311.717 444.588 311.717 448.101C311.717 453.12 313.549 456.909 317.213 459.469C320.877 462.028 325.545 463.308 331.216 463.308ZM498.664 483.259C487.372 483.259 477.585 480.774 469.304 475.805C461.022 470.837 454.598 463.885 450.031 454.952C445.514 446.018 443.255 435.579 443.255 423.634C443.255 411.688 445.514 401.224 450.031 392.24C454.598 383.256 461.022 376.28 469.304 371.311C477.585 366.342 487.372 363.858 498.664 363.858C509.957 363.858 519.744 366.342 528.025 371.311C536.306 376.28 542.706 383.256 547.223 392.24C551.79 401.224 554.073 411.688 554.073 423.634C554.073 435.579 551.79 446.018 547.223 454.952C542.706 463.885 536.306 470.837 528.025 475.805C519.744 480.774 509.957 483.259 498.664 483.259ZM498.815 461.426C504.938 461.426 510.057 459.745 514.173 456.382C518.288 452.969 521.35 448.402 523.357 442.68C525.415 436.959 526.444 430.585 526.444 423.558C526.444 416.482 525.415 410.082 523.357 404.361C521.35 398.589 518.288 393.997 514.173 390.584C510.057 387.171 504.938 385.464 498.815 385.464C492.541 385.464 487.322 387.171 483.156 390.584C479.04 393.997 475.954 398.589 473.896 404.361C471.888 410.082 470.884 416.482 470.884 423.558C470.884 430.585 471.888 436.959 473.896 442.68C475.954 448.402 479.04 452.969 483.156 456.382C487.322 459.745 492.541 461.426 498.815 461.426ZM568.724 481V365.364H595.149V384.636H596.354C598.462 377.961 602.075 372.817 607.195 369.203C612.364 365.539 618.261 363.707 624.886 363.707C626.392 363.707 628.073 363.783 629.93 363.933C631.838 364.034 633.419 364.209 634.673 364.46V389.53C633.519 389.128 631.687 388.777 629.178 388.476C626.718 388.125 624.334 387.949 622.026 387.949C617.057 387.949 612.59 389.028 608.625 391.186C604.71 393.294 601.624 396.23 599.365 399.994C597.107 403.759 595.977 408.1 595.977 413.018V481H568.724ZM682.449 483.033C673.365 483.033 665.234 480.699 658.057 476.031C650.88 471.364 645.209 464.588 641.043 455.705C636.877 446.821 634.795 436.03 634.795 423.332C634.795 410.484 636.903 399.643 641.118 390.81C645.385 381.926 651.131 375.226 658.358 370.709C665.586 366.142 673.641 363.858 682.525 363.858C689.3 363.858 694.871 365.012 699.238 367.321C703.604 369.58 707.067 372.315 709.627 375.527C712.187 378.689 714.169 381.675 715.574 384.486H716.704V326.818H744.032V481H717.231V462.781H715.574C714.169 465.592 712.136 468.578 709.476 471.74C706.816 474.852 703.303 477.512 698.937 479.72C694.57 481.929 689.074 483.033 682.449 483.033ZM690.053 460.673C695.825 460.673 700.743 459.117 704.809 456.006C708.874 452.844 711.961 448.452 714.069 442.831C716.177 437.21 717.231 430.66 717.231 423.182C717.231 415.704 716.177 409.204 714.069 403.683C712.011 398.162 708.949 393.871 704.884 390.81C700.869 387.748 695.925 386.217 690.053 386.217C683.98 386.217 678.911 387.798 674.846 390.96C670.78 394.122 667.719 398.489 665.661 404.06C663.603 409.631 662.574 416.005 662.574 423.182C662.574 430.409 663.603 436.858 665.661 442.53C667.769 448.151 670.856 452.593 674.921 455.855C679.037 459.067 684.081 460.673 690.053 460.673ZM764.593 481V365.364H791.845V481H764.593ZM778.294 348.952C773.978 348.952 770.264 347.521 767.152 344.661C764.04 341.75 762.485 338.261 762.485 334.196C762.485 330.08 764.04 326.592 767.152 323.732C770.264 320.821 773.978 319.365 778.294 319.365C782.661 319.365 786.375 320.821 789.436 323.732C792.548 326.592 794.104 330.08 794.104 334.196C794.104 338.261 792.548 341.75 789.436 344.661C786.375 347.521 782.661 348.952 778.294 348.952ZM838.643 413.244V481H811.39V365.364H837.438V385.013H838.793C841.453 378.538 845.694 373.394 851.516 369.58C857.389 365.765 864.641 363.858 873.273 363.858C881.254 363.858 888.205 365.564 894.127 368.977C900.1 372.39 904.717 377.334 907.979 383.808C911.292 390.283 912.923 398.137 912.873 407.372V481H885.62V411.588C885.62 403.859 883.612 397.811 879.597 393.445C875.632 389.078 870.137 386.895 863.11 386.895C858.342 386.895 854.101 387.949 850.387 390.057C846.723 392.115 843.837 395.101 841.729 399.016C839.672 402.93 838.643 407.673 838.643 413.244ZM965.373 483.334C958.045 483.334 951.445 482.029 945.573 479.419C939.751 476.759 935.134 472.844 931.721 467.675C928.358 462.505 926.677 456.131 926.677 448.553C926.677 442.028 927.882 436.633 930.291 432.366C932.7 428.1 935.987 424.688 940.153 422.128C944.319 419.568 949.011 417.636 954.231 416.331C959.501 414.976 964.946 413.997 970.568 413.395C977.343 412.692 982.839 412.065 987.055 411.513C991.271 410.911 994.332 410.007 996.239 408.803C998.197 407.548 999.176 405.616 999.176 403.006V402.554C999.176 396.883 997.494 392.491 994.132 389.379C990.769 386.268 985.926 384.712 979.602 384.712C972.927 384.712 967.632 386.167 963.717 389.078C959.852 391.989 957.242 395.427 955.887 399.392L930.441 395.778C932.449 388.752 935.761 382.88 940.379 378.162C944.996 373.394 950.642 369.83 957.318 367.472C963.993 365.062 971.371 363.858 979.451 363.858C985.022 363.858 990.568 364.51 996.089 365.815C1001.61 367.12 1006.65 369.278 1011.22 372.29C1015.79 375.251 1019.45 379.291 1022.21 384.411C1025.02 389.53 1026.43 395.929 1026.43 403.608V481H1000.23V465.115H999.326C997.67 468.327 995.336 471.339 992.325 474.149C989.364 476.91 985.624 479.143 981.107 480.849C976.641 482.506 971.396 483.334 965.373 483.334ZM972.45 463.308C977.92 463.308 982.663 462.229 986.678 460.071C990.694 457.863 993.78 454.952 995.938 451.338C998.147 447.724 999.251 443.785 999.251 439.518V425.892C998.398 426.595 996.942 427.247 994.884 427.849C992.877 428.452 990.618 428.979 988.109 429.43C985.599 429.882 983.115 430.284 980.656 430.635C978.196 430.986 976.063 431.287 974.257 431.538C970.191 432.09 966.552 432.994 963.34 434.249C960.128 435.503 957.594 437.26 955.737 439.518C953.88 441.727 952.951 444.588 952.951 448.101C952.951 453.12 954.783 456.909 958.447 459.469C962.111 462.028 966.778 463.308 972.45 463.308ZM1045.35 481V365.364H1071.78V384.636H1072.98C1075.09 377.961 1078.7 372.817 1083.82 369.203C1088.99 365.539 1094.89 363.707 1101.51 363.707C1103.02 363.707 1104.7 363.783 1106.56 363.933C1108.47 364.034 1110.05 364.209 1111.3 364.46V389.53C1110.15 389.128 1108.31 388.777 1105.8 388.476C1103.35 388.125 1100.96 387.949 1098.65 387.949C1093.68 387.949 1089.22 389.028 1085.25 391.186C1081.34 393.294 1078.25 396.23 1075.99 399.994C1073.73 403.759 1072.6 408.1 1072.6 413.018V481H1045.35ZM1141.38 524.364C1137.67 524.364 1134.23 524.063 1131.07 523.46C1127.96 522.908 1125.47 522.256 1123.62 521.503L1129.94 500.273C1133.91 501.427 1137.45 501.979 1140.56 501.929C1143.67 501.879 1146.4 500.9 1148.76 498.993C1151.17 497.136 1153.2 494.024 1154.86 489.658L1157.19 483.409L1115.26 365.364H1144.17L1170.82 452.693H1172.03L1198.75 365.364H1227.74L1181.44 495.003C1179.28 501.126 1176.42 506.371 1172.85 510.737C1169.29 515.154 1164.92 518.517 1159.75 520.825C1154.63 523.184 1148.51 524.364 1141.38 524.364Z" fill="white" fill-opacity="0.9"/>
</g>
<defs>
<clipPath id="clip0_1282_5236">
<rect width="904" height="628" fill="white"/>
</clipPath>
</defs>
</svg>
