<svg width="1553" height="386" viewBox="0 0 1553 386" fill="none" xmlns="http://www.w3.org/2000/svg">
<path d="M126.88 162V7.81818H225.653V31.2315H154.811V73.0895H218.878V96.5028H154.811V162H126.88ZM239.758 162V46.3636H266.183V65.6364H267.388C269.496 58.9612 273.109 53.8168 278.228 50.2031C283.398 46.5393 289.295 44.7074 295.92 44.7074C297.426 44.7074 299.107 44.7827 300.964 44.9332C302.871 45.0336 304.452 45.2093 305.707 45.4602V70.5298C304.553 70.1283 302.721 69.777 300.211 69.4758C297.752 69.1245 295.368 68.9489 293.059 68.9489C288.091 68.9489 283.624 70.0279 279.659 72.1861C275.744 74.294 272.657 77.2301 270.399 80.9943C268.14 84.7585 267.011 89.0999 267.011 94.0185V162H239.758ZM361.012 164.259C349.719 164.259 339.932 161.774 331.651 156.805C323.37 151.837 316.945 144.885 312.378 135.952C307.861 127.018 305.603 116.579 305.603 104.634C305.603 92.6884 307.861 82.224 312.378 73.2401C316.945 64.2562 323.37 57.2798 331.651 52.3111C339.932 47.3423 349.719 44.858 361.012 44.858C372.304 44.858 382.091 47.3423 390.372 52.3111C398.654 57.2798 405.053 64.2562 409.57 73.2401C414.137 82.224 416.421 92.6884 416.421 104.634C416.421 116.579 414.137 127.018 409.57 135.952C405.053 144.885 398.654 151.837 390.372 156.805C382.091 161.774 372.304 164.259 361.012 164.259ZM361.162 142.426C367.285 142.426 372.405 140.745 376.52 137.382C380.636 133.969 383.697 129.402 385.705 123.68C387.763 117.959 388.791 111.585 388.791 104.558C388.791 97.4815 387.763 91.0824 385.705 85.3608C383.697 79.589 380.636 74.9967 376.52 71.5838C372.405 68.1709 367.285 66.4645 361.162 66.4645C354.889 66.4645 349.669 68.1709 345.503 71.5838C341.388 74.9967 338.301 79.589 336.243 85.3608C334.236 91.0824 333.232 97.4815 333.232 104.558C333.232 111.585 334.236 117.959 336.243 123.68C338.301 129.402 341.388 133.969 345.503 137.382C349.669 140.745 354.889 142.426 361.162 142.426ZM431.072 162V46.3636H457.12V66.0128H458.475C460.884 59.3878 464.874 54.2183 470.445 50.5043C476.016 46.7401 482.666 44.858 490.396 44.858C498.225 44.858 504.825 46.7652 510.195 50.5795C515.616 54.3437 519.43 59.4882 521.639 66.0128H522.843C525.403 59.5885 529.719 54.4692 535.792 50.6548C541.915 46.7902 549.167 44.858 557.549 44.858C568.189 44.858 576.872 48.2206 583.597 54.946C590.323 61.6714 593.685 71.4834 593.685 84.3821V162H566.357V88.598C566.357 81.4209 564.45 76.1761 560.636 72.8636C556.821 69.5009 552.154 67.8196 546.633 67.8196C540.058 67.8196 534.914 69.8774 531.2 73.9929C527.536 78.0582 525.704 83.3532 525.704 89.8778V162H498.978V87.4688C498.978 81.4962 497.171 76.7282 493.558 73.1648C489.994 69.6013 485.326 67.8196 479.555 67.8196C475.64 67.8196 472.076 68.8234 468.864 70.831C465.652 72.7884 463.093 75.5739 461.185 79.1875C459.278 82.7509 458.325 86.9167 458.325 91.6847V162H431.072ZM707.4 164.259C696.107 164.259 686.32 161.774 678.039 156.805C669.758 151.837 663.333 144.885 658.766 135.952C654.249 127.018 651.991 116.579 651.991 104.634C651.991 92.6884 654.249 82.224 658.766 73.2401C663.333 64.2562 669.758 57.2798 678.039 52.3111C686.32 47.3423 696.107 44.858 707.4 44.858C718.692 44.858 728.479 47.3423 736.761 52.3111C745.042 57.2798 751.441 64.2562 755.958 73.2401C760.525 82.224 762.809 92.6884 762.809 104.634C762.809 116.579 760.525 127.018 755.958 135.952C751.441 144.885 745.042 151.837 736.761 156.805C728.479 161.774 718.692 164.259 707.4 164.259ZM707.55 142.426C713.673 142.426 718.793 140.745 722.908 137.382C727.024 133.969 730.085 129.402 732.093 123.68C734.151 117.959 735.18 111.585 735.18 104.558C735.18 97.4815 734.151 91.0824 732.093 85.3608C730.085 79.589 727.024 74.9967 722.908 71.5838C718.793 68.1709 713.673 66.4645 707.55 66.4645C701.277 66.4645 696.057 68.1709 691.891 71.5838C687.776 74.9967 684.689 79.589 682.631 85.3608C680.624 91.0824 679.62 97.4815 679.62 104.558C679.62 111.585 680.624 117.959 682.631 123.68C684.689 129.402 687.776 133.969 691.891 137.382C696.057 140.745 701.277 142.426 707.55 142.426ZM777.46 162V46.3636H803.885V65.6364H805.089C807.197 58.9612 810.811 53.8168 815.93 50.2031C821.1 46.5393 826.997 44.7074 833.622 44.7074C835.127 44.7074 836.809 44.7827 838.666 44.9332C840.573 45.0336 842.154 45.2093 843.409 45.4602V70.5298C842.254 70.1283 840.422 69.777 837.913 69.4758C835.454 69.1245 833.07 68.9489 830.761 68.9489C825.792 68.9489 821.325 70.0279 817.36 72.1861C813.446 74.294 810.359 77.2301 808.1 80.9943C805.842 84.7585 804.713 89.0999 804.713 94.0185V162H777.46ZM891.185 164.033C882.101 164.033 873.97 161.699 866.793 157.031C859.616 152.364 853.944 145.588 849.779 136.705C845.613 127.821 843.53 117.03 843.53 104.332C843.53 91.4839 845.638 80.643 849.854 71.8097C854.12 62.9261 859.867 56.2259 867.094 51.7088C874.321 47.1416 882.377 44.858 891.26 44.858C898.036 44.858 903.607 46.0123 907.973 48.321C912.34 50.5795 915.803 53.3149 918.362 56.527C920.922 59.6889 922.904 62.6752 924.31 65.4858H925.439V7.81818H952.767V162H925.966V143.781H924.31C922.904 146.592 920.872 149.578 918.212 152.74C915.552 155.852 912.038 158.512 907.672 160.72C903.306 162.929 897.81 164.033 891.185 164.033ZM898.788 141.673C904.56 141.673 909.479 140.117 913.544 137.006C917.61 133.844 920.696 129.452 922.804 123.831C924.912 118.21 925.966 111.66 925.966 104.182C925.966 96.7036 924.912 90.2041 922.804 84.6832C920.746 79.1624 917.685 74.8712 913.619 71.8097C909.604 68.7481 904.661 67.2173 898.788 67.2173C892.716 67.2173 887.646 68.7983 883.581 71.9602C879.516 75.1222 876.454 79.4886 874.396 85.0597C872.339 90.6307 871.31 97.0047 871.31 104.182C871.31 111.409 872.339 117.858 874.396 123.53C876.504 129.151 879.591 133.593 883.656 136.855C887.772 140.067 892.816 141.673 898.788 141.673ZM973.328 162V46.3636H1000.58V162H973.328ZM987.03 29.9517C982.713 29.9517 978.999 28.5213 975.888 25.6605C972.776 22.7495 971.22 19.2614 971.22 15.196C971.22 11.0805 972.776 7.59232 975.888 4.73152C978.999 1.82054 982.713 0.365052 987.03 0.365052C991.396 0.365052 995.11 1.82054 998.172 4.73152C1001.28 7.59232 1002.84 11.0805 1002.84 15.196C1002.84 19.2614 1001.28 22.7495 998.172 25.6605C995.11 28.5213 991.396 29.9517 987.03 29.9517ZM1047.38 94.2443V162H1020.13V46.3636H1046.17V66.0128H1047.53C1050.19 59.5383 1054.43 54.3939 1060.25 50.5795C1066.12 46.7652 1073.38 44.858 1082.01 44.858C1089.99 44.858 1096.94 46.5644 1102.86 49.9773C1108.84 53.3901 1113.45 58.3338 1116.71 64.8082C1120.03 71.2827 1121.66 79.1373 1121.61 88.3722V162H1094.36V92.5881C1094.36 84.8589 1092.35 78.8111 1088.33 74.4446C1084.37 70.0781 1078.87 67.8949 1071.85 67.8949C1067.08 67.8949 1062.84 68.9489 1059.12 71.0568C1055.46 73.1146 1052.57 76.1009 1050.46 80.0156C1048.41 83.9304 1047.38 88.6733 1047.38 94.2443ZM1174.11 164.334C1166.78 164.334 1160.18 163.029 1154.31 160.419C1148.49 157.759 1143.87 153.844 1140.46 148.675C1137.09 143.505 1135.41 137.131 1135.41 129.553C1135.41 123.028 1136.62 117.633 1139.03 113.366C1141.44 109.1 1144.72 105.688 1148.89 103.128C1153.05 100.568 1157.75 98.6359 1162.97 97.331C1168.24 95.9759 1173.68 94.9972 1179.3 94.3949C1186.08 93.6922 1191.57 93.0649 1195.79 92.5128C1200.01 91.9105 1203.07 91.0071 1204.97 89.8026C1206.93 88.5478 1207.91 86.6155 1207.91 84.0057V83.554C1207.91 77.8826 1206.23 73.491 1202.87 70.3793C1199.5 67.2675 1194.66 65.7116 1188.34 65.7116C1181.66 65.7116 1176.37 67.1671 1172.45 70.0781C1168.59 72.9891 1165.98 76.4271 1164.62 80.392L1139.18 76.7784C1141.18 69.7519 1144.5 63.8797 1149.11 59.1619C1153.73 54.3939 1159.38 50.8305 1166.05 48.4716C1172.73 46.0625 1180.11 44.858 1188.19 44.858C1193.76 44.858 1199.3 45.5104 1204.82 46.8153C1210.35 48.1203 1215.39 50.2784 1219.96 53.2898C1224.52 56.2509 1228.19 60.2912 1230.95 65.4105C1233.76 70.5298 1235.16 76.929 1235.16 84.6079V162H1208.97V146.115H1208.06C1206.41 149.327 1204.07 152.339 1201.06 155.149C1198.1 157.91 1194.36 160.143 1189.84 161.849C1185.38 163.506 1180.13 164.334 1174.11 164.334ZM1181.19 144.308C1186.66 144.308 1191.4 143.229 1195.41 141.071C1199.43 138.863 1202.52 135.952 1204.67 132.338C1206.88 128.724 1207.99 124.785 1207.99 120.518V106.892C1207.13 107.595 1205.68 108.247 1203.62 108.849C1201.61 109.452 1199.35 109.979 1196.84 110.43C1194.33 110.882 1191.85 111.284 1189.39 111.635C1186.93 111.986 1184.8 112.287 1182.99 112.538C1178.93 113.09 1175.29 113.994 1172.08 115.249C1168.86 116.503 1166.33 118.26 1164.47 120.518C1162.62 122.727 1161.69 125.588 1161.69 129.101C1161.69 134.12 1163.52 137.909 1167.18 140.469C1170.85 143.028 1175.51 144.308 1181.19 144.308ZM1254.09 162V46.3636H1280.51V65.6364H1281.72C1283.82 58.9612 1287.44 53.8168 1292.56 50.2031C1297.73 46.5393 1303.62 44.7074 1310.25 44.7074C1311.75 44.7074 1313.44 44.7827 1315.29 44.9332C1317.2 45.0336 1318.78 45.2093 1320.04 45.4602V70.5298C1318.88 70.1283 1317.05 69.777 1314.54 69.4758C1312.08 69.1245 1309.7 68.9489 1307.39 68.9489C1302.42 68.9489 1297.95 70.0279 1293.99 72.1861C1290.07 74.294 1286.99 77.2301 1284.73 80.9943C1282.47 84.7585 1281.34 89.0999 1281.34 94.0185V162H1254.09ZM1350.12 205.364C1346.41 205.364 1342.97 205.063 1339.81 204.46C1336.69 203.908 1334.21 203.256 1332.35 202.503L1338.68 181.273C1342.64 182.427 1346.18 182.979 1349.29 182.929C1352.4 182.879 1355.14 181.9 1357.5 179.993C1359.91 178.136 1361.94 175.024 1363.6 170.658L1365.93 164.409L1324 46.3636H1352.91L1379.56 133.693H1380.76L1407.49 46.3636H1436.47L1390.17 176.003C1388.01 182.126 1385.15 187.371 1381.59 191.737C1378.03 196.154 1373.66 199.517 1368.49 201.825C1363.37 204.184 1357.25 205.364 1350.12 205.364ZM67.1541 226.364V247.443H0.678212V226.364H67.1541ZM17.0901 198.659H44.343V307.219C44.343 310.883 44.8951 313.693 45.9992 315.651C47.1536 317.558 48.6593 318.863 50.5163 319.565C52.3733 320.268 54.4311 320.619 56.6896 320.619C58.396 320.619 59.9519 320.494 61.3572 320.243C62.8127 319.992 63.9168 319.766 64.6697 319.565L69.262 340.871C67.8065 341.373 65.7237 341.925 63.0134 342.527C60.3534 343.129 57.0911 343.481 53.2265 343.581C46.4008 343.782 40.2526 342.753 34.7819 340.494C29.3113 338.186 24.9699 334.622 21.7578 329.804C18.5958 324.986 17.04 318.963 17.0901 311.736V198.659ZM130.664 344.259C119.372 344.259 109.585 341.774 101.304 336.805C93.0224 331.837 86.5982 324.885 82.031 315.952C77.5139 307.018 75.2554 296.579 75.2554 284.634C75.2554 272.688 77.5139 262.224 82.031 253.24C86.5982 244.256 93.0224 237.28 101.304 232.311C109.585 227.342 119.372 224.858 130.664 224.858C141.957 224.858 151.744 227.342 160.025 232.311C168.307 237.28 174.706 244.256 179.223 253.24C183.79 262.224 186.074 272.688 186.074 284.634C186.074 296.579 183.79 307.018 179.223 315.952C174.706 324.885 168.307 331.837 160.025 336.805C151.744 341.774 141.957 344.259 130.664 344.259ZM130.815 322.426C136.938 322.426 142.057 320.745 146.173 317.382C150.289 313.969 153.35 309.402 155.358 303.68C157.415 297.959 158.444 291.585 158.444 284.558C158.444 277.482 157.415 271.082 155.358 265.361C153.35 259.589 150.289 254.997 146.173 251.584C142.057 248.171 136.938 246.464 130.815 246.464C124.541 246.464 119.322 248.171 115.156 251.584C111.04 254.997 107.954 259.589 105.896 265.361C103.888 271.082 102.885 277.482 102.885 284.558C102.885 291.585 103.888 297.959 105.896 303.68C107.954 309.402 111.04 313.969 115.156 317.382C119.322 320.745 124.541 322.426 130.815 322.426ZM296.024 344.259C284.43 344.259 274.417 341.849 265.985 337.031C257.604 332.163 251.154 325.287 246.637 316.403C242.12 307.47 239.862 296.955 239.862 284.859C239.862 272.964 242.12 262.525 246.637 253.541C251.205 244.507 257.579 237.481 265.76 232.462C273.94 227.393 283.552 224.858 294.593 224.858C301.72 224.858 308.446 226.012 314.769 228.321C321.144 230.58 326.765 234.093 331.633 238.861C336.552 243.629 340.416 249.702 343.227 257.08C346.037 264.407 347.443 273.14 347.443 283.278V291.635H252.66V273.266H321.319C321.269 268.046 320.14 263.403 317.931 259.338C315.723 255.223 312.636 251.985 308.671 249.626C304.757 247.268 300.189 246.088 294.97 246.088C289.399 246.088 284.505 247.443 280.289 250.153C276.073 252.813 272.786 256.327 270.427 260.693C268.118 265.009 266.939 269.752 266.889 274.922V290.957C266.889 297.683 268.118 303.455 270.578 308.273C273.037 313.041 276.475 316.705 280.892 319.264C285.308 321.774 290.478 323.028 296.4 323.028C300.365 323.028 303.954 322.476 307.166 321.372C310.378 320.218 313.163 318.536 315.522 316.328C317.881 314.12 319.663 311.384 320.867 308.122L346.313 310.983C344.707 317.708 341.646 323.58 337.129 328.599C332.662 333.568 326.94 337.433 319.964 340.193C312.988 342.903 305.008 344.259 296.024 344.259ZM381.818 226.364L405.156 269.05L428.871 226.364H457.705L422.848 284.182L458.307 342H429.624L405.156 300.368L380.915 342H352.006L387.239 284.182L352.909 226.364H381.818ZM528.047 226.364V247.443H461.571V226.364H528.047ZM477.983 198.659H505.236V307.219C505.236 310.883 505.788 313.693 506.892 315.651C508.047 317.558 509.552 318.863 511.409 319.565C513.266 320.268 515.324 320.619 517.583 320.619C519.289 320.619 520.845 320.494 522.25 320.243C523.706 319.992 524.81 319.766 525.563 319.565L530.155 340.871C528.7 341.373 526.617 341.925 523.906 342.527C521.246 343.129 517.984 343.481 514.119 343.581C507.294 343.782 501.146 342.753 495.675 340.494C490.204 338.186 485.863 334.622 482.651 329.804C479.489 324.986 477.933 318.963 477.983 311.736V198.659ZM542.359 342V226.364H568.784V245.636H569.989C572.097 238.961 575.71 233.817 580.829 230.203C585.999 226.539 591.896 224.707 598.521 224.707C600.027 224.707 601.708 224.783 603.565 224.933C605.472 225.034 607.053 225.209 608.308 225.46V250.53C607.154 250.128 605.322 249.777 602.812 249.476C600.353 249.125 597.969 248.949 595.66 248.949C590.692 248.949 586.225 250.028 582.26 252.186C578.345 254.294 575.258 257.23 573 260.994C570.741 264.759 569.612 269.1 569.612 274.018V342H542.359ZM649.139 344.334C641.812 344.334 635.212 343.029 629.34 340.419C623.518 337.759 618.9 333.844 615.487 328.675C612.125 323.505 610.443 317.131 610.443 309.553C610.443 303.028 611.648 297.633 614.057 293.366C616.466 289.1 619.753 285.688 623.919 283.128C628.085 280.568 632.778 278.636 637.997 277.331C643.267 275.976 648.713 274.997 654.334 274.395C661.109 273.692 666.605 273.065 670.821 272.513C675.037 271.911 678.099 271.007 680.006 269.803C681.963 268.548 682.942 266.616 682.942 264.006V263.554C682.942 257.883 681.26 253.491 677.898 250.379C674.535 247.268 669.692 245.712 663.368 245.712C656.693 245.712 651.398 247.167 647.483 250.078C643.618 252.989 641.009 256.427 639.653 260.392L614.207 256.778C616.215 249.752 619.528 243.88 624.145 239.162C628.762 234.394 634.409 230.83 641.084 228.472C647.759 226.062 655.137 224.858 663.217 224.858C668.788 224.858 674.334 225.51 679.855 226.815C685.376 228.12 690.42 230.278 694.987 233.29C699.555 236.251 703.218 240.291 705.979 245.411C708.789 250.53 710.195 256.929 710.195 264.608V342H683.996V326.115H683.092C681.436 329.327 679.102 332.339 676.091 335.149C673.13 337.91 669.391 340.143 664.874 341.849C660.407 343.506 655.162 344.334 649.139 344.334ZM656.216 324.308C661.687 324.308 666.429 323.229 670.445 321.071C674.46 318.863 677.546 315.952 679.705 312.338C681.913 308.724 683.017 304.785 683.017 300.518V286.892C682.164 287.595 680.708 288.247 678.651 288.849C676.643 289.452 674.385 289.979 671.875 290.43C669.366 290.882 666.881 291.284 664.422 291.635C661.963 291.986 659.83 292.287 658.023 292.538C653.957 293.09 650.319 293.994 647.107 295.249C643.894 296.503 641.36 298.26 639.503 300.518C637.646 302.727 636.717 305.588 636.717 309.101C636.717 314.12 638.549 317.909 642.213 320.469C645.877 323.028 650.545 324.308 656.216 324.308ZM823.664 344.259C812.372 344.259 802.585 341.774 794.304 336.805C786.022 331.837 779.598 324.885 775.031 315.952C770.514 307.018 768.255 296.579 768.255 284.634C768.255 272.688 770.514 262.224 775.031 253.24C779.598 244.256 786.022 237.28 794.304 232.311C802.585 227.342 812.372 224.858 823.664 224.858C834.957 224.858 844.744 227.342 853.025 232.311C861.306 237.28 867.706 244.256 872.223 253.24C876.79 262.224 879.073 272.688 879.073 284.634C879.073 296.579 876.79 307.018 872.223 315.952C867.706 324.885 861.306 331.837 853.025 336.805C844.744 341.774 834.957 344.259 823.664 344.259ZM823.815 322.426C829.938 322.426 835.057 320.745 839.173 317.382C843.288 313.969 846.35 309.402 848.357 303.68C850.415 297.959 851.444 291.585 851.444 284.558C851.444 277.482 850.415 271.082 848.357 265.361C846.35 259.589 843.288 254.997 839.173 251.584C835.057 248.171 829.938 246.464 823.815 246.464C817.541 246.464 812.322 248.171 808.156 251.584C804.04 254.997 800.954 259.589 798.896 265.361C796.888 271.082 795.884 277.482 795.884 284.558C795.884 291.585 796.888 297.959 798.896 303.68C800.954 309.402 804.04 313.969 808.156 317.382C812.322 320.745 817.541 322.426 823.815 322.426ZM893.724 342V226.364H920.149V245.636H921.354C923.462 238.961 927.075 233.817 932.195 230.203C937.364 226.539 943.261 224.707 949.886 224.707C951.392 224.707 953.073 224.783 954.93 224.933C956.838 225.034 958.419 225.209 959.673 225.46V250.53C958.519 250.128 956.687 249.777 954.178 249.476C951.718 249.125 949.334 248.949 947.026 248.949C942.057 248.949 937.59 250.028 933.625 252.186C929.71 254.294 926.624 257.23 924.365 260.994C922.107 264.759 920.977 269.1 920.977 274.018V342H893.724ZM1007.45 344.033C998.365 344.033 990.234 341.699 983.057 337.031C975.88 332.364 970.209 325.588 966.043 316.705C961.877 307.821 959.795 297.03 959.795 284.332C959.795 271.484 961.903 260.643 966.118 251.81C970.385 242.926 976.131 236.226 983.358 231.709C990.586 227.142 998.641 224.858 1007.52 224.858C1014.3 224.858 1019.87 226.012 1024.24 228.321C1028.6 230.58 1032.07 233.315 1034.63 236.527C1037.19 239.689 1039.17 242.675 1040.57 245.486H1041.7V187.818H1069.03V342H1042.23V323.781H1040.57C1039.17 326.592 1037.14 329.578 1034.48 332.74C1031.82 335.852 1028.3 338.512 1023.94 340.72C1019.57 342.929 1014.07 344.033 1007.45 344.033ZM1015.05 321.673C1020.82 321.673 1025.74 320.117 1029.81 317.006C1033.87 313.844 1036.96 309.452 1039.07 303.831C1041.18 298.21 1042.23 291.66 1042.23 284.182C1042.23 276.704 1041.18 270.204 1039.07 264.683C1037.01 259.162 1033.95 254.871 1029.88 251.81C1025.87 248.748 1020.93 247.217 1015.05 247.217C1008.98 247.217 1003.91 248.798 999.846 251.96C995.78 255.122 992.719 259.489 990.661 265.06C988.603 270.631 987.574 277.005 987.574 284.182C987.574 291.409 988.603 297.858 990.661 303.53C992.769 309.151 995.856 313.593 999.921 316.855C1004.04 320.067 1009.08 321.673 1015.05 321.673ZM1089.59 342V226.364H1116.85V342H1089.59ZM1103.29 209.952C1098.98 209.952 1095.26 208.521 1092.15 205.661C1089.04 202.75 1087.48 199.261 1087.48 195.196C1087.48 191.08 1089.04 187.592 1092.15 184.732C1095.26 181.821 1098.98 180.365 1103.29 180.365C1107.66 180.365 1111.37 181.821 1114.44 184.732C1117.55 187.592 1119.1 191.08 1119.1 195.196C1119.1 199.261 1117.55 202.75 1114.44 205.661C1111.37 208.521 1107.66 209.952 1103.29 209.952ZM1163.64 274.244V342H1136.39V226.364H1162.44V246.013H1163.79C1166.45 239.538 1170.69 234.394 1176.52 230.58C1182.39 226.765 1189.64 224.858 1198.27 224.858C1206.25 224.858 1213.2 226.564 1219.13 229.977C1225.1 233.39 1229.72 238.334 1232.98 244.808C1236.29 251.283 1237.92 259.137 1237.87 268.372V342H1210.62V272.588C1210.62 264.859 1208.61 258.811 1204.6 254.445C1200.63 250.078 1195.14 247.895 1188.11 247.895C1183.34 247.895 1179.1 248.949 1175.39 251.057C1171.72 253.115 1168.84 256.101 1166.73 260.016C1164.67 263.93 1163.64 268.673 1163.64 274.244ZM1290.37 344.334C1283.05 344.334 1276.45 343.029 1270.57 340.419C1264.75 337.759 1260.13 333.844 1256.72 328.675C1253.36 323.505 1251.68 317.131 1251.68 309.553C1251.68 303.028 1252.88 297.633 1255.29 293.366C1257.7 289.1 1260.99 285.688 1265.15 283.128C1269.32 280.568 1274.01 278.636 1279.23 277.331C1284.5 275.976 1289.95 274.997 1295.57 274.395C1302.34 273.692 1307.84 273.065 1312.05 272.513C1316.27 271.911 1319.33 271.007 1321.24 269.803C1323.2 268.548 1324.18 266.616 1324.18 264.006V263.554C1324.18 257.883 1322.49 253.491 1319.13 250.379C1315.77 247.268 1310.93 245.712 1304.6 245.712C1297.93 245.712 1292.63 247.167 1288.72 250.078C1284.85 252.989 1282.24 256.427 1280.89 260.392L1255.44 256.778C1257.45 249.752 1260.76 243.88 1265.38 239.162C1270 234.394 1275.64 230.83 1282.32 228.472C1288.99 226.062 1296.37 224.858 1304.45 224.858C1310.02 224.858 1315.57 225.51 1321.09 226.815C1326.61 228.12 1331.65 230.278 1336.22 233.29C1340.79 236.251 1344.45 240.291 1347.21 245.411C1350.02 250.53 1351.43 256.929 1351.43 264.608V342H1325.23V326.115H1324.33C1322.67 329.327 1320.34 332.339 1317.32 335.149C1314.36 337.91 1310.62 340.143 1306.11 341.849C1301.64 343.506 1296.4 344.334 1290.37 344.334ZM1297.45 324.308C1302.92 324.308 1307.66 323.229 1311.68 321.071C1315.69 318.863 1318.78 315.952 1320.94 312.338C1323.15 308.724 1324.25 304.785 1324.25 300.518V286.892C1323.4 287.595 1321.94 288.247 1319.88 288.849C1317.88 289.452 1315.62 289.979 1313.11 290.43C1310.6 290.882 1308.11 291.284 1305.66 291.635C1303.2 291.986 1301.06 292.287 1299.26 292.538C1295.19 293.09 1291.55 293.994 1288.34 295.249C1285.13 296.503 1282.59 298.26 1280.74 300.518C1278.88 302.727 1277.95 305.588 1277.95 309.101C1277.95 314.12 1279.78 317.909 1283.45 320.469C1287.11 323.028 1291.78 324.308 1297.45 324.308ZM1370.35 342V226.364H1396.78V245.636H1397.98C1400.09 238.961 1403.7 233.817 1408.82 230.203C1413.99 226.539 1419.89 224.707 1426.51 224.707C1428.02 224.707 1429.7 224.783 1431.56 224.933C1433.47 225.034 1435.05 225.209 1436.3 225.46V250.53C1435.15 250.128 1433.31 249.777 1430.8 249.476C1428.35 249.125 1425.96 248.949 1423.65 248.949C1418.68 248.949 1414.22 250.028 1410.25 252.186C1406.34 254.294 1403.25 257.23 1400.99 260.994C1398.73 264.759 1397.6 269.1 1397.6 274.018V342H1370.35ZM1466.38 385.364C1462.67 385.364 1459.23 385.063 1456.07 384.46C1452.96 383.908 1450.47 383.256 1448.62 382.503L1454.94 361.273C1458.91 362.427 1462.45 362.979 1465.56 362.929C1468.67 362.879 1471.4 361.9 1473.76 359.993C1476.17 358.136 1478.2 355.024 1479.86 350.658L1482.19 344.409L1440.26 226.364H1469.17L1495.82 313.693H1497.03L1523.75 226.364H1552.74L1506.44 356.003C1504.28 362.126 1501.42 367.371 1497.85 371.737C1494.29 376.154 1489.92 379.517 1484.75 381.825C1479.63 384.184 1473.51 385.364 1466.38 385.364Z" fill="#111111"/>
</svg>
